<?xml version="1.0" encoding="UTF-8" standalone="no"?>
<!-- Created with Inkscape (http://www.inkscape.org/) -->

<svg
   width="435.19681mm"
   height="150.95856mm"
   viewBox="0 0 435.19681 150.95856"
   version="1.1"
   id="svg6072"
   xml:space="preserve"
   inkscape:version="1.2.1 (9c6d41e4, 2022-07-14)"
   xmlns:inkscape="http://www.inkscape.org/namespaces/inkscape"
   xmlns:sodipodi="http://sodipodi.sourceforge.net/DTD/sodipodi-0.dtd"
   xmlns="http://www.w3.org/2000/svg"
   xmlns:svg="http://www.w3.org/2000/svg"><sodipodi:namedview
     id="namedview6074"
     pagecolor="#ffffff"
     bordercolor="#999999"
     borderopacity="1"
     inkscape:showpageshadow="0"
     inkscape:pageopacity="0"
     inkscape:pagecheckerboard="0"
     inkscape:deskcolor="#d1d1d1"
     inkscape:document-units="mm"
     showgrid="false"
     inkscape:zoom="0.2102413"
     inkscape:cx="1674.2666"
     inkscape:cy="1574.3814"
     inkscape:window-width="2116"
     inkscape:window-height="1066"
     inkscape:window-x="0"
     inkscape:window-y="25"
     inkscape:window-maximized="0"
     inkscape:current-layer="svg6072"><inkscape:page
       x="0"
       y="0"
       width="435.19681"
       height="150.95857"
       id="page6462" /><inkscape:page
       x="707.2627"
       y="266.79663"
       width="435.1969"
       height="150.95818"
       id="page6464" /></sodipodi:namedview><defs
     id="defs6069"><linearGradient
       x1="-23.842501"
       y1="77.139084"
       x2="57.381233"
       y2="77.139084"
       gradientUnits="userSpaceOnUse"
       gradientTransform="matrix(2.834646,0,0,2.834646,386.48453,-42.003373)"
       spreadMethod="pad"
       id="linearGradient6255"><stop
         style="stop-opacity:1;stop-color:#009600"
         offset="0"
         id="stop6247" /><stop
         style="stop-opacity:1;stop-color:#009600"
         offset="0.219388"
         id="stop6249" /><stop
         style="stop-opacity:1;stop-color:#0000c8"
         offset="0.895408"
         id="stop6251" /><stop
         style="stop-opacity:1;stop-color:#0000c8"
         offset="1"
         id="stop6253" /></linearGradient><linearGradient
       x1="-23.842501"
       y1="77.139084"
       x2="57.381233"
       y2="77.139084"
       gradientUnits="userSpaceOnUse"
       gradientTransform="matrix(-2.834646,0,0,2.834646,954.79438,-42.003373)"
       spreadMethod="pad"
       id="linearGradient6283"><stop
         style="stop-opacity:1;stop-color:#c80000"
         offset="0"
         id="stop6275" /><stop
         style="stop-opacity:1;stop-color:#c80000"
         offset="0.219388"
         id="stop6277" /><stop
         style="stop-opacity:1;stop-color:#0000c8"
         offset="0.895408"
         id="stop6279" /><stop
         style="stop-opacity:1;stop-color:#0000c8"
         offset="1"
         id="stop6281" /></linearGradient><linearGradient
       x1="-122.6021"
       y1="156.40271"
       x2="46.213436"
       y2="60.125565"
       gradientUnits="userSpaceOnUse"
       gradientTransform="matrix(-2.464547,1.400438,1.400438,2.464547,384.22154,104.08241)"
       spreadMethod="pad"
       id="linearGradient6311"><stop
         style="stop-opacity:1;stop-color:#c80000"
         offset="0"
         id="stop6303" /><stop
         style="stop-opacity:1;stop-color:#c80000"
         offset="0.0969388"
         id="stop6305" /><stop
         style="stop-opacity:1;stop-color:#009600"
         offset="0.892857"
         id="stop6307" /><stop
         style="stop-opacity:1;stop-color:#009600"
         offset="1"
         id="stop6309" /></linearGradient></defs><g
     inkscape:label="Layer 1"
     inkscape:groupmode="layer"
     id="layer1"
     transform="translate(487.26271,266.79661)" /><path
     d="m 236.16672,0 -39.42574,12.28937 v 5.5686 L 236.16672,5.5686 Z"
     style="fill:#0000c8;fill-opacity:1;fill-rule:evenodd;stroke:none;stroke-width:0.352778"
     id="path6205" /><path
     d="m 199.25593,15.88312 h 1.61079 v 56.91011 h -1.61079 z"
     style="fill:#0000c8;fill-opacity:1;fill-rule:evenodd;stroke:none;stroke-width:0.352778"
     id="path6207" /><path
     d="m 271.61136,15.88312 h 1.61078 v 56.91011 h -1.61078 z"
     style="fill:#0000c8;fill-opacity:1;fill-rule:evenodd;stroke:none;stroke-width:0.352778"
     id="path6209" /><path
     d="m 236.16672,0 39.43279,12.28937 v 5.5686 L 236.16672,5.5686 Z"
     style="fill:#0000c8;fill-opacity:1;fill-rule:evenodd;stroke:none;stroke-width:0.352778"
     id="path6211" /><path
     d="m 225.28705,45.48752 c 0,1.39489 -0.55386,2.73156 -1.53917,3.71793 -0.98672,0.98531 -2.32339,1.53952 -3.71792,1.53952 -1.39453,0 -2.73121,-0.55421 -3.71652,-1.53952 -0.98671,-0.98637 -1.54058,-2.32304 -1.54058,-3.71793 0,-2.90336 2.35374,-5.25709 5.2571,-5.25709 2.90371,0 5.25709,2.35373 5.25709,5.25709 z"
     style="fill:#0000c8;fill-opacity:1;fill-rule:nonzero;stroke:none;stroke-width:0.352778"
     id="path6213" /><path
     d="m 231.3767,43.99527 h 21.00122 c 3.07869,0 4.89338,1.99002 4.89338,4.63833 v 7.60977 h -25.8946 z"
     style="fill:#0000c8;fill-opacity:1;fill-rule:nonzero;stroke:none;stroke-width:0.352778"
     id="path6215" /><path
     d="m 225.66347,46.71131 v 4.55718 h -8.08073 c -3.89855,0.0138 -3.89855,5.0285 0,5.0285 h 10.59427 c 1.54622,0 2.51495,-1.24989 2.51495,-2.66101 v -6.92467 c 0,-3.79095 -5.02849,-3.79095 -5.02849,0 z"
     style="fill:#0000c8;fill-opacity:1;fill-rule:nonzero;stroke:none;stroke-width:0.352778"
     id="path6217" /><path
     d="m 213.77768,39.61307 c 0,-4.14091 -5.74075,-4.14091 -5.74075,0 v 33.18051 h 5.87586 v -8.56333 h 44.65002 v 8.50936 h 5.74076 V 47.10148 c 0,-4.36986 -5.80849,-4.36986 -5.80849,0 v 10.23197 h -44.7174 z"
     style="fill:#0000c8;fill-opacity:1;fill-rule:nonzero;stroke:none;stroke-width:0.352778"
     id="path6219" /><path
     d="M 379.24315,112.35973 377.88848,96.7232 c -0.0854,-0.98001 -0.72072,-1.67428 -1.46897,-1.85208 -1.0929,-0.26035 1.32151,-1.75965 -36.59681,27.06864 -1.42487,1.08338 -0.50694,3.61456 1.15782,3.19581 l 36.87198,-10.53253 c 0.83255,-0.23812 1.48413,-1.15746 1.39065,-2.24331 z"
     style="fill:#c80000;fill-opacity:1;fill-rule:nonzero;stroke:none;stroke-width:0.352778"
     id="path6221" /><path
     d="m 396.42695,96.7232 -1.35431,15.63653 c -0.0938,1.08585 0.55809,2.0066 1.3903,2.24331 l 36.87233,10.53253 c 1.66581,0.41875 2.58233,-2.11243 1.15746,-3.19581 -37.90703,-28.82018 -35.50391,-27.32899 -36.59646,-27.06864 -0.74718,0.1778 -1.38359,0.87207 -1.46932,1.85208 z"
     style="fill:#c80000;fill-opacity:1;fill-rule:nonzero;stroke:none;stroke-width:0.352778"
     id="path6223" /><path
     d="m 391.54486,141.27375 4.61645,-60.1211 c 0.51541,-6.71371 -2.98485,-11.28183 -6.45619,-12.68483 -6.32389,-2.55764 -12.17506,4.55013 -11.55064,12.68483 l 4.6175,60.1211 c -3.06458,1.90711 -1.31162,0.81562 -8.20314,5.10822 -1.25694,1.30775 -0.34466,3.77049 1.31022,3.53765 6.57331,-0.92463 5.1442,-0.72354 9.02758,-1.26929 0.7994,1.39453 -0.10195,0.63959 -0.8957,1.21955 0.38876,0.61736 0.69039,0.98672 0.78422,1.08868 l 1.10243,-0.86114 c 0.15029,0.30022 0.74683,0.71509 1.26083,0.71509 0.89712,0 1.51589,-0.93169 2.23802,-2.16359 3.01767,0.42439 1.53106,0.21519 9.04135,1.2707 1.65346,0.23284 2.56575,-2.2299 1.31056,-3.53765 l -5.57036,-3.46851 z"
     style="fill:#c80000;fill-opacity:1;fill-rule:nonzero;stroke:none;stroke-width:0.352778"
     id="path6225" /><path
     d="m 8.47478,119.58744 h 90.98244 c 4.6796,0 8.47478,-3.79518 8.47478,-8.47619 V 92.77633 c 0,-4.6796 -3.79518,-8.47478 -8.47478,-8.47478 H 26.8097 C 11.9821,84.30155 0,96.32492 0,111.11125 c 0,4.68101 3.79518,8.47619 8.47478,8.47619 z M 79.79515,88.6259 c 0,-1.05163 0.85161,-1.90324 1.90324,-1.90324 h 19.60245 c 1.05163,0 1.90324,0.85161 1.90324,1.90324 v 6.34153 c 0,1.05163 -0.85161,1.90324 -1.90324,1.90324 H 81.69839 c -1.05022,0 -1.90324,-0.85161 -1.90324,-1.90324 z m -24.33037,0 c 0,-1.05163 0.8516,-1.90324 1.90288,-1.90324 h 19.6028 c 1.05128,0 1.90289,0.85161 1.90289,1.90324 v 6.34153 c 0,1.05163 -0.85161,1.90324 -1.90289,1.90324 h -19.6028 c -1.05128,0 -1.90288,-0.85161 -1.90288,-1.90324 z m -24.33073,0 c 0,-1.05163 0.8516,-1.90324 1.90288,-1.90324 h 19.6028 c 1.05128,0 1.90289,0.85161 1.90289,1.90324 v 6.34153 c 0,1.05163 -0.85161,1.90324 -1.90289,1.90324 h -19.6028 c -1.05128,0 -1.90288,-0.85161 -1.90288,-1.90324 z M 6.36517,96.33444 C 11.47904,88.69469 19.00872,86.14657 19.26484,86.14657 h 8.18021 c 1.21003,0 2.18969,0.98143 2.18969,2.19111 v 6.51545 c 0,1.21003 -0.97966,2.18969 -2.18969,2.18969 H 6.75111 c -0.36407,0 -0.58702,-0.4064 -0.38594,-0.70838 z"
     style="fill:#009600;fill-opacity:1;fill-rule:nonzero;stroke:none;stroke-width:0.352778"
     id="path6227" /><path
     d="M 109.14344,121.31711 H 1.55716 c -0.9151,0 -0.91652,1.38324 0,1.38324 h 107.58628 c 0.91511,0 0.9137,-1.38324 0,-1.38324 z"
     style="fill:#009600;fill-opacity:1;fill-rule:nonzero;stroke:none;stroke-width:0.352778"
     id="path6229" /><g
     id="g6231"
     transform="scale(0.35277776)"><path
       d="M 350.57,224.723 C 406.203,192.68 461.836,160.637 517.469,128.594"
       style="fill:#c80000;fill-opacity:1;fill-rule:nonzero;stroke:#0000c8;stroke-width:10.7717;stroke-linecap:butt;stroke-linejoin:miter;stroke-miterlimit:4;stroke-dasharray:none;stroke-opacity:1"
       id="path6233" /></g><path
     d="m 182.55155,45.36511 -1.89476,7.04321 13.06794,-13.47752 -18.21497,4.53954 z"
     style="fill:#0000c8;fill-opacity:1;fill-rule:evenodd;stroke:none;stroke-width:0.352778"
     id="path6235" /><g
     id="g6237"
     transform="scale(0.35277776)"><path
       d="M 350.57,224.723 C 406.203,192.68 461.836,160.637 517.469,128.594"
       style="fill:#c80000;fill-opacity:1;fill-rule:nonzero;stroke:#009600;stroke-width:10.7717;stroke-linecap:butt;stroke-linejoin:miter;stroke-miterlimit:4;stroke-dasharray:none;stroke-opacity:1"
       id="path6239" /></g><path
     d="m 123.6733,79.27728 1.89477,-7.0432 -13.06795,13.47717 18.21498,-4.5392 z"
     style="fill:#009600;fill-opacity:1;fill-rule:evenodd;stroke:none;stroke-width:0.352778"
     id="path6241" /><g
     id="g6243"
     transform="scale(0.35277776)"><g
       id="g6245"><path
         d="M 350.57,224.723 C 406.203,192.68 461.836,160.637 517.469,128.594"
         style="fill:#c80000;fill-opacity:1;fill-rule:nonzero;stroke:url(#linearGradient6255);stroke-width:10.7717;stroke-linecap:butt;stroke-linejoin:miter;stroke-miterlimit:4;stroke-dasharray:none;stroke-opacity:1"
         id="path6257" /></g></g><g
     id="g6259"
     transform="scale(0.35277776)"><path
       d="M 990.711,224.723 C 935.074,192.68 879.441,160.637 823.809,128.594"
       style="fill:#c80000;fill-opacity:1;fill-rule:nonzero;stroke:#0000c8;stroke-width:10.7717;stroke-linecap:butt;stroke-linejoin:miter;stroke-miterlimit:4;stroke-dasharray:none;stroke-opacity:1"
       id="path6261" /></g><path
     d="m 290.62149,45.36511 7.04286,-1.89477 -18.21462,-4.53954 13.06653,13.47752 z"
     style="fill:#0000c8;fill-opacity:1;fill-rule:evenodd;stroke:none;stroke-width:0.352778"
     id="path6263" /><g
     id="g6265"
     transform="scale(0.35277776)"><path
       d="M 990.711,224.723 C 935.074,192.68 879.441,160.637 823.809,128.594"
       style="fill:#c80000;fill-opacity:1;fill-rule:nonzero;stroke:#c80000;stroke-width:10.7717;stroke-linecap:butt;stroke-linejoin:miter;stroke-miterlimit:4;stroke-dasharray:none;stroke-opacity:1"
       id="path6267" /></g><path
     d="m 349.50081,79.27728 -7.04321,1.89477 18.21497,4.5392 -13.06653,-13.47717 z"
     style="fill:#c80000;fill-opacity:1;fill-rule:evenodd;stroke:none;stroke-width:0.352778"
     id="path6269" /><g
     id="g6271"
     transform="scale(0.35277776)"><g
       id="g6273"><path
         d="M 990.711,224.723 C 935.074,192.68 879.441,160.637 823.809,128.594"
         style="fill:#c80000;fill-opacity:1;fill-rule:nonzero;stroke:url(#linearGradient6283);stroke-width:10.7717;stroke-linecap:butt;stroke-linejoin:miter;stroke-miterlimit:4;stroke-dasharray:none;stroke-opacity:1"
         id="path6285" /></g></g><g
     id="g6287"
     transform="scale(0.35277776)"><path
       d="M 911.66,318.238 C 725.977,317.867 540.297,317.492 354.621,317.121"
       style="fill:#c80000;fill-opacity:1;fill-rule:nonzero;stroke:#009600;stroke-width:10.7717;stroke-linecap:butt;stroke-linejoin:miter;stroke-miterlimit:4;stroke-dasharray:none;stroke-opacity:1"
       id="path6289" /></g><path
     d="m 125.1024,111.87325 5.16784,-5.14703 -18.06081,5.12092 18.04,5.19395 z"
     style="fill:#009600;fill-opacity:1;fill-rule:evenodd;stroke:none;stroke-width:0.352778"
     id="path6291" /><g
     id="g6293"
     transform="scale(0.35277776)"><path
       d="M 907.961,318.238 C 727.035,317.867 546.109,317.492 365.184,317.121"
       style="fill:#c80000;fill-opacity:1;fill-rule:nonzero;stroke:#c80000;stroke-width:10.7717;stroke-linecap:butt;stroke-linejoin:miter;stroke-miterlimit:4;stroke-dasharray:none;stroke-opacity:1"
       id="path6295" /></g><path
     d="m 320.30845,112.2673 -5.16784,5.14703 18.06081,-5.11951 -18.04,-5.19501 z"
     style="fill:#c80000;fill-opacity:1;fill-rule:evenodd;stroke:none;stroke-width:0.352778"
     id="path6297" /><g
     id="g6299"
     transform="scale(0.35277776)"><g
       id="g6301"><path
         d="M 905.32,318.238 C 721.75,317.867 538.184,317.492 354.621,317.121"
         style="fill:#c80000;fill-opacity:1;fill-rule:nonzero;stroke:url(#linearGradient6311);stroke-width:10.7717;stroke-linecap:butt;stroke-linejoin:miter;stroke-miterlimit:4;stroke-dasharray:none;stroke-opacity:1"
         id="path6313" /></g></g><path
     d="m 105.14576,78.51634 c -0.13652,0.38171 -0.30197,0.69321 -0.49741,0.93028 -0.19156,0.23706 -0.43004,0.43815 -0.71402,0.60219 -0.46849,0.27164 -0.89571,0.36654 -1.27882,0.28399 -0.38594,-0.084 -0.68087,-0.30445 -0.88724,-0.66146 -0.12136,-0.20955 -0.18486,-0.42581 -0.19015,-0.65194 -0.004,-0.23001 0.0399,-0.44238 0.13194,-0.63535 0.0953,-0.19403 0.22331,-0.37324 0.38453,-0.53869 0.12135,-0.11994 0.31432,-0.27975 0.58173,-0.48084 0.54292,-0.40781 0.92463,-0.74012 1.14512,-0.99624 -0.055,-0.1009 -0.0896,-0.16404 -0.10478,-0.19156 -0.17074,-0.29492 -0.35983,-0.4632 -0.56621,-0.50447 -0.27975,-0.0564 -0.60113,0.0205 -0.96626,0.23283 -0.34043,0.19579 -0.55668,0.40252 -0.65052,0.61736 -0.0921,0.21096 -0.0892,0.49072 0.007,0.83785 l -0.762,0.31433 c -0.11183,-0.34044 -0.14746,-0.64629 -0.10619,-0.91652 0.0384,-0.2727 0.16828,-0.53869 0.39017,-0.7994 0.21908,-0.26317 0.51259,-0.50129 0.88054,-0.71367 0.36371,-0.21096 0.68474,-0.33901 0.96167,-0.38593 0.27834,-0.0455 0.50871,-0.0342 0.6918,0.0346 0.18062,0.0674 0.35136,0.18732 0.5087,0.36089 0.0949,0.10901 0.23566,0.32385 0.42157,0.64629 l 0.55951,0.96484 c 0.38841,0.6724 0.65052,1.09009 0.78387,1.25272 0.1337,0.15839 0.29386,0.2921 0.47978,0.40357 l -0.7553,0.43674 c -0.16263,-0.10583 -0.3115,-0.2547 -0.44909,-0.44238 z m -0.99624,-1.58185 c -0.20003,0.25894 -0.54187,0.57891 -1.0227,0.95779 -0.2727,0.21484 -0.45614,0.38594 -0.54857,0.50976 -0.0921,0.12559 -0.14041,0.25929 -0.14746,0.40252 -0.008,0.14041 0.025,0.27411 0.0967,0.3997 0.11289,0.19262 0.27834,0.31256 0.49741,0.35666 0.2219,0.0441 0.47273,-0.0166 0.75389,-0.17886 0.27975,-0.16157 0.49177,-0.36548 0.63923,-0.61207 0.14605,-0.248 0.20814,-0.50835 0.18768,-0.77858 -0.0166,-0.20814 -0.11712,-0.47272 -0.30198,-0.79093 z"
     style="fill:#020000;fill-opacity:1;fill-rule:nonzero;stroke:none;stroke-width:0.352778"
     id="path6315" /><path
     d="m 108.44741,76.44377 0.47555,0.5775 c -0.17922,0.16122 -0.34855,0.28822 -0.51012,0.38171 -0.26317,0.15169 -0.49036,0.22754 -0.68333,0.22895 -0.19297,0 -0.35701,-0.0497 -0.49318,-0.14887 -0.13794,-0.10196 -0.33373,-0.37077 -0.58456,-0.80504 l -1.42204,-2.45534 -0.53058,0.30727 -0.32526,-0.56373 0.53057,-0.30727 -0.61171,-1.05693 0.46849,-0.85019 0.86254,1.49084 0.72778,-0.42016 0.32526,0.56233 -0.72637,0.42157 1.44427,2.49555 c 0.11995,0.20672 0.20814,0.33196 0.266,0.37606 0.0617,0.0441 0.12947,0.0677 0.20672,0.0691 0.0783,0.001 0.17216,-0.0303 0.27976,-0.0924 0.0797,-0.0455 0.18027,-0.11712 0.30021,-0.21096 z"
     style="fill:#020000;fill-opacity:1;fill-rule:nonzero;stroke:none;stroke-width:0.352778"
     id="path6317" /><path
     d="m 108.02584,74.70211 c -0.45896,-0.78952 -0.5775,-1.50213 -0.35842,-2.13748 0.18486,-0.52917 0.5401,-0.9465 1.06821,-1.2513 0.58702,-0.34008 1.17793,-0.4244 1.77341,-0.25471 0.59514,0.16792 1.08868,0.59126 1.47991,1.26894 0.31856,0.54857 0.48648,1.02941 0.50306,1.44286 0.018,0.40817 -0.0811,0.78987 -0.29634,1.14794 -0.21201,0.3556 -0.50553,0.641 -0.87771,0.85584 -0.59795,0.34572 -1.19203,0.43533 -1.78329,0.266 -0.58984,-0.1711 -1.09255,-0.61737 -1.50883,-1.33809 z m 0.7426,-0.43004 c 0.31715,0.54716 0.67275,0.88759 1.06962,1.02271 0.39547,0.13335 0.77435,0.0949 1.13524,-0.11466 0.35983,-0.20778 0.57891,-0.51787 0.65899,-0.92851 0.0811,-0.41204 -0.0416,-0.89711 -0.36548,-1.45803 -0.30586,-0.52775 -0.65722,-0.85725 -1.05551,-0.98813 -0.39687,-0.13511 -0.77294,-0.0991 -1.12854,0.10619 -0.3623,0.20955 -0.5842,0.51929 -0.66569,0.92745 -0.0826,0.40922 0.036,0.88583 0.35137,1.43298 z"
     style="fill:#020000;fill-opacity:1;fill-rule:nonzero;stroke:none;stroke-width:0.352778"
     id="path6319" /><path
     d="m 114.10844,74.03113 -2.47086,-4.26932 0.64629,-0.37359 0.34749,0.59831 c 0.0123,-0.28681 0.0935,-0.55668 0.24376,-0.81174 0.14747,-0.25788 0.36372,-0.46849 0.6477,-0.63253 0.31539,-0.18345 0.61313,-0.26741 0.89006,-0.25224 0.27976,0.0138 0.52917,0.1143 0.74824,0.30198 0.0498,-0.69462 0.34467,-1.19768 0.88618,-1.5106 0.42298,-0.24518 0.81739,-0.31538 1.1811,-0.21202 0.36231,0.10196 0.68474,0.39547 0.96732,0.88336 l 1.69651,2.93088 -0.71967,0.41628 -1.55716,-2.68993 c -0.16651,-0.28928 -0.31115,-0.48225 -0.43251,-0.58032 -0.11994,-0.10196 -0.26458,-0.15699 -0.43285,-0.16263 -0.16793,-0.007 -0.33479,0.0374 -0.50165,0.1337 -0.29881,0.17392 -0.49037,0.4191 -0.57186,0.73448 -0.084,0.31292 0.001,0.68933 0.25506,1.12889 l 1.43581,2.48038 -0.7232,0.41875 -1.60549,-2.77389 c -0.18627,-0.32103 -0.38453,-0.52776 -0.59549,-0.6216 -0.21061,-0.0921 -0.4505,-0.0603 -0.7179,0.0953 -0.20391,0.11712 -0.3623,0.27975 -0.47413,0.48789 -0.11007,0.20673 -0.14323,0.43533 -0.10196,0.68757 0.0413,0.25082 0.17498,0.57044 0.3997,0.9592 l 1.28305,2.21439 z"
     style="fill:#020000;fill-opacity:1;fill-rule:nonzero;stroke:none;stroke-width:0.352778"
     id="path6321" /><path
     d="m 118.04014,64.99931 -0.48118,-0.8322 0.72354,-0.4191 0.48084,0.8322 z m 2.92947,5.06024 -2.47085,-4.26931 0.72354,-0.41734 2.47086,4.26755 z"
     style="fill:#020000;fill-opacity:1;fill-rule:nonzero;stroke:none;stroke-width:0.352778"
     id="path6323" /><path
     d="m 124.67378,65.82763 0.76623,-0.31997 c 0.20532,0.53622 0.22895,1.03646 0.0677,1.50072 -0.15875,0.46037 -0.47131,0.8255 -0.93733,1.09573 -0.5842,0.33761 -1.16452,0.42016 -1.74166,0.24518 -0.57468,-0.1778 -1.06927,-0.62301 -1.48131,-1.33668 -0.26741,-0.46037 -0.42475,-0.90805 -0.47132,-1.34232 -0.0483,-0.43391 0.0342,-0.82656 0.2466,-1.17827 0.21202,-0.35525 0.50165,-0.63924 0.86959,-0.85161 0.46285,-0.26846 0.91088,-0.37042 1.34197,-0.30445 0.42862,0.0621 0.81033,0.2854 1.14406,0.66852 l -0.641,0.5154 c -0.23283,-0.248 -0.4766,-0.3944 -0.73307,-0.43956 -0.25224,-0.0469 -0.49883,-0.001 -0.74013,0.139 -0.36512,0.21096 -0.5842,0.51258 -0.66005,0.90805 -0.0769,0.39158 0.0469,0.8696 0.37501,1.43475 0.33196,0.57467 0.68192,0.92745 1.05269,1.05974 0.37076,0.13229 0.73166,0.0963 1.08585,-0.1076 0.28398,-0.16545 0.47131,-0.38876 0.56091,-0.6738 0.0882,-0.28399 0.0536,-0.6216 -0.10477,-1.01283 z"
     style="fill:#020000;fill-opacity:1;fill-rule:nonzero;stroke:none;stroke-width:0.352778"
     id="path6325" /><path
     d="m 131.07775,62.12064 0.76482,-0.3182 c 0.20638,0.53446 0.2286,1.03469 0.0688,1.4993 -0.15981,0.46144 -0.47132,0.82656 -0.93839,1.09679 -0.58456,0.33761 -1.16452,0.41875 -1.74061,0.24518 -0.57608,-0.17921 -1.06927,-0.62406 -1.48272,-1.33668 -0.266,-0.46143 -0.42298,-0.90805 -0.47131,-1.34231 -0.0469,-0.43392 0.0346,-0.82656 0.24659,-1.17793 0.21237,-0.3556 0.50306,-0.641 0.86959,-0.85302 0.4632,-0.26881 0.91088,-0.36935 1.34232,-0.3048 0.43004,0.0621 0.81175,0.2854 1.14371,0.66852 l -0.64065,0.51682 c -0.23318,-0.24801 -0.47695,-0.39547 -0.73201,-0.44098 -0.25188,-0.0469 -0.50024,0 -0.74119,0.139 -0.36371,0.21096 -0.5842,0.514 -0.66004,0.90805 -0.0773,0.39158 0.048,0.87101 0.37465,1.43616 0.33231,0.57326 0.68368,0.92604 1.05445,1.05974 0.36901,0.13229 0.73166,0.0963 1.08585,-0.10901 0.28363,-0.16404 0.4699,-0.3884 0.55951,-0.67239 0.0892,-0.2854 0.055,-0.62301 -0.10337,-1.01424 z"
     style="fill:#020000;fill-opacity:1;fill-rule:nonzero;stroke:none;stroke-width:0.352778"
     id="path6327" /><path
     d="m 131.808,60.93672 c -0.45755,-0.79093 -0.57608,-1.50319 -0.35701,-2.13854 0.18345,-0.52916 0.5401,-0.94544 1.06821,-1.2513 0.58702,-0.34043 1.17793,-0.42439 1.77342,-0.25365 0.59372,0.16687 1.08726,0.58985 1.4799,1.26789 0.31856,0.54998 0.48507,1.0294 0.50306,1.44286 0.018,0.40781 -0.0815,0.79092 -0.29633,1.14794 -0.21343,0.3556 -0.50553,0.64064 -0.87772,0.85689 -0.59795,0.34608 -1.19203,0.43427 -1.7847,0.26459 -0.58843,-0.17075 -1.09149,-0.61595 -1.50883,-1.33668 z m 0.74401,-0.43109 c 0.31574,0.5468 0.67275,0.88723 1.06962,1.02235 0.39547,0.1337 0.77294,0.0952 1.13524,-0.1143 0.35842,-0.20814 0.57891,-0.51823 0.65864,-0.92887 0.0801,-0.41204 -0.0413,-0.89711 -0.36513,-1.45662 -0.30586,-0.52916 -0.65722,-0.85831 -1.05551,-0.98919 -0.39687,-0.13511 -0.77294,-0.0995 -1.12995,0.10725 -0.36089,0.20955 -0.58278,0.51823 -0.66569,0.92604 -0.0811,0.40922 0.036,0.88759 0.35278,1.43334 z"
     style="fill:#020000;fill-opacity:1;fill-rule:nonzero;stroke:none;stroke-width:0.352778"
     id="path6329" /><path
     d="m 137.8906,60.26433 -2.47086,-4.26791 0.6477,-0.37465 0.34608,0.59796 c 0.0138,-0.28646 0.0949,-0.55668 0.24376,-0.81174 0.14888,-0.25612 0.36513,-0.46849 0.64912,-0.63218 0.31538,-0.18344 0.61171,-0.26741 0.88864,-0.25224 0.27976,0.0138 0.52917,0.1143 0.74966,0.30163 0.0483,-0.69321 0.34466,-1.19733 0.88476,-1.51024 0.42439,-0.24518 0.81739,-0.31574 1.18251,-0.21238 0.36231,0.10196 0.68475,0.39688 0.96732,0.88336 l 1.69651,2.93123 -0.72073,0.41628 -1.5561,-2.68887 c -0.16792,-0.28928 -0.31115,-0.48366 -0.4325,-0.58138 -0.11995,-0.10195 -0.26459,-0.15699 -0.43286,-0.16263 -0.16793,-0.007 -0.33479,0.0385 -0.50165,0.1337 -0.30022,0.17498 -0.49036,0.41875 -0.57327,0.73448 -0.0825,0.31292 0.003,0.68898 0.25647,1.12854 l 1.43581,2.48038 -0.72355,0.4191 -1.60514,-2.77389 c -0.18626,-0.32103 -0.38453,-0.52776 -0.59549,-0.62018 -0.21061,-0.0938 -0.45049,-0.0621 -0.71931,0.0935 -0.2025,0.11747 -0.36089,0.28116 -0.47272,0.48789 -0.11007,0.20673 -0.14323,0.43568 -0.10196,0.68791 0.0413,0.25048 0.17498,0.57045 0.3997,0.95885 l 1.28164,2.21474 z"
     style="fill:#020000;fill-opacity:1;fill-rule:nonzero;stroke:none;stroke-width:0.352778"
     id="path6331" /><path
     d="m 144.74789,56.29558 -2.47086,-4.26897 0.6477,-0.37359 0.34714,0.59796 c 0.0124,-0.28646 0.0938,-0.55668 0.24236,-0.81174 0.14887,-0.25753 0.36547,-0.46849 0.64911,-0.63218 0.31573,-0.18344 0.61207,-0.26741 0.889,-0.25224 0.27975,0.0138 0.52916,0.1143 0.74965,0.30163 0.0483,-0.69462 0.34431,-1.19733 0.88477,-1.51024 0.42439,-0.24518 0.81703,-0.31574 1.18215,-0.21238 0.36266,0.10196 0.6851,0.39547 0.96732,0.88336 l 1.69651,2.92982 -0.71931,0.41769 -1.55717,-2.68993 c -0.16827,-0.28963 -0.3115,-0.4826 -0.43285,-0.58032 -0.1196,-0.10337 -0.26459,-0.15699 -0.43251,-0.16404 -0.16827,-0.005 -0.33479,0.0388 -0.50165,0.13511 -0.30057,0.17357 -0.49071,0.41875 -0.57326,0.73448 -0.0826,0.31292 0.003,0.68898 0.25611,1.12854 l 1.43616,2.48038 -0.72355,0.4191 -1.60549,-2.77389 c -0.18591,-0.32103 -0.38452,-0.52917 -0.59513,-0.6216 -0.21096,-0.0924 -0.45085,-0.0607 -0.71932,0.0938 -0.20284,0.11854 -0.36124,0.28082 -0.47272,0.48895 -0.11042,0.20673 -0.14323,0.43569 -0.10195,0.68651 0.0413,0.25188 0.17498,0.57185 0.3997,0.96026 l 1.28128,2.21474 z"
     style="fill:#020000;fill-opacity:1;fill-rule:nonzero;stroke:none;stroke-width:0.352778"
     id="path6333" /><path
     d="m 148.68066,47.26411 -0.48225,-0.83255 0.72355,-0.41875 0.48224,0.8322 z m 2.9284,5.05989 -2.47085,-4.26896 0.72355,-0.4191 2.47085,4.26932 z"
     style="fill:#020000;fill-opacity:1;fill-rule:nonzero;stroke:none;stroke-width:0.352778"
     id="path6335" /><path
     d="m 154.63943,49.70569 0.47378,0.57891 c -0.17745,0.16122 -0.34855,0.28786 -0.50836,0.3817 -0.26317,0.1517 -0.49071,0.22754 -0.68368,0.22895 -0.19262,0 -0.35666,-0.0497 -0.49318,-0.14887 -0.139,-0.10336 -0.33338,-0.37077 -0.5842,-0.80504 l -1.42205,-2.45568 -0.53058,0.30621 -0.32526,-0.56233 0.53058,-0.30727 -0.61207,-1.05692 0.46849,-0.8502 0.86289,1.49084 0.72743,-0.42157 0.32526,0.56339 -0.72743,0.42051 1.44533,2.49696 c 0.11854,0.20532 0.20814,0.33197 0.266,0.37606 0.0607,0.0441 0.12947,0.0663 0.20673,0.0691 0.0787,0 0.17215,-0.0303 0.27834,-0.0924 0.0815,-0.0469 0.18203,-0.11712 0.30198,-0.21237 z"
     style="fill:#020000;fill-opacity:1;fill-rule:nonzero;stroke:none;stroke-width:0.352778"
     id="path6337" /><path
     d="m 154.69446,48.83785 0.65052,-0.52669 c 0.20673,0.26317 0.44485,0.4191 0.71508,0.46602 0.2727,0.0455 0.57468,-0.0275 0.90417,-0.21802 0.33196,-0.19262 0.5401,-0.40217 0.62265,-0.62971 0.0829,-0.2286 0.0702,-0.43533 -0.0346,-0.61736 -0.0949,-0.16404 -0.24095,-0.25082 -0.43674,-0.26176 -0.13652,-0.008 -0.43003,0.0536 -0.88194,0.18203 -0.60749,0.17357 -1.04317,0.27129 -1.30493,0.29492 -0.26176,0.0176 -0.49459,-0.0275 -0.70132,-0.13652 -0.20532,-0.1143 -0.36795,-0.27552 -0.4893,-0.48366 -0.11042,-0.19015 -0.16969,-0.39158 -0.17639,-0.60078 -0.006,-0.21519 0.0346,-0.42051 0.12277,-0.61348 0.0645,-0.14852 0.17639,-0.30727 0.3376,-0.47378 0.16122,-0.17251 0.35278,-0.32385 0.57574,-0.45226 0.33514,-0.19403 0.65616,-0.31538 0.96343,-0.36513 0.3101,-0.0508 0.57468,-0.0275 0.79093,0.0691 0.21484,0.0935 0.4258,0.26459 0.63112,0.514 l -0.65158,0.50694 c -0.16016,-0.20108 -0.35278,-0.3182 -0.57891,-0.35277 -0.22472,-0.0346 -0.47695,0.0303 -0.75918,0.19296 -0.33231,0.19156 -0.53763,0.38453 -0.6163,0.57609 -0.0783,0.19297 -0.0741,0.3623 0.0113,0.50976 0.0536,0.0938 0.13229,0.16122 0.23424,0.20109 0.10478,0.0441 0.23425,0.0554 0.38982,0.0332 0.0868,-0.0152 0.3362,-0.0773 0.74578,-0.1845 0.5909,-0.15981 1.01282,-0.25365 1.2647,-0.28258 0.25365,-0.0318 0.48507,0.003 0.69745,0.10195 0.21096,0.0991 0.38876,0.27164 0.53057,0.51823 0.139,0.24095 0.20109,0.50977 0.1831,0.80751 -0.0176,0.2921 -0.12383,0.57327 -0.32103,0.84455 -0.19826,0.26882 -0.46567,0.50024 -0.80045,0.69462 -0.55528,0.32103 -1.04458,0.4505 -1.47038,0.39017 -0.42298,-0.0635 -0.80469,-0.29774 -1.14794,-0.70414 z"
     style="fill:#020000;fill-opacity:1;fill-rule:nonzero;stroke:none;stroke-width:0.352778"
     id="path6339" /><path
     d="m 163.07152,47.87301 -3.41771,-5.90339 0.65899,-0.3817 0.32103,0.55386 c 0.0303,-0.30586 0.11147,-0.57044 0.24518,-0.79093 0.13229,-0.22331 0.3376,-0.41487 0.61595,-0.57608 0.36371,-0.21097 0.74012,-0.30304 1.12747,-0.27694 0.387,0.0261 0.75071,0.16934 1.09115,0.43004 0.33901,0.25894 0.62723,0.5909 0.86289,0.99907 0.25188,0.43674 0.40217,0.8763 0.44626,1.31868 0.0469,0.43815 -0.0261,0.83785 -0.21766,1.19874 -0.19015,0.35701 -0.4505,0.63112 -0.77999,0.82127 -0.24095,0.14075 -0.48789,0.21519 -0.74013,0.22472 -0.248,0.008 -0.47942,-0.0289 -0.69286,-0.11289 l 1.20298,2.07821 z m -1.51306,-4.12433 c 0.31679,0.54822 0.66428,0.89006 1.03752,1.02517 0.375,0.13371 0.72072,0.10901 1.03646,-0.0744 0.32102,-0.18591 0.51823,-0.48083 0.58984,-0.88335 0.0716,-0.4064 -0.0579,-0.8957 -0.38735,-1.46615 -0.31538,-0.54292 -0.66428,-0.88617 -1.04599,-1.02658 -0.37888,-0.14217 -0.72354,-0.12277 -1.03469,0.0579 -0.30727,0.1778 -0.49777,0.48084 -0.56797,0.90805 -0.0702,0.42298 0.054,0.90946 0.37218,1.45944 z"
     style="fill:#020000;fill-opacity:1;fill-rule:nonzero;stroke:none;stroke-width:0.352778"
     id="path6341" /><path
     d="m 165.19771,41.60979 c -0.45755,-0.79093 -0.57714,-1.50319 -0.35666,-2.13854 0.18309,-0.52917 0.53869,-0.94544 1.06786,-1.2513 0.58561,-0.33902 1.17687,-0.42439 1.77341,-0.25365 0.59408,0.16687 1.08727,0.58985 1.48026,1.26788 0.31821,0.54963 0.48507,1.03082 0.50165,1.44287 0.0176,0.40781 -0.0801,0.79092 -0.29492,1.14793 -0.21379,0.35525 -0.50589,0.64065 -0.87807,0.8569 -0.59795,0.34608 -1.19344,0.43427 -1.78435,0.26459 -0.58843,-0.17075 -1.09149,-0.61595 -1.50918,-1.33668 z m 0.74436,-0.43109 c 0.31539,0.5468 0.6724,0.88723 1.06927,1.02376 0.39547,0.13229 0.77294,0.0938 1.13559,-0.11571 0.35807,-0.20814 0.57856,-0.51682 0.65864,-0.92887 0.0797,-0.41204 -0.0413,-0.89711 -0.36654,-1.45662 -0.30444,-0.52775 -0.65616,-0.85866 -1.0541,-0.98954 -0.39687,-0.13476 -0.77329,-0.0991 -1.1303,0.1076 -0.36089,0.20955 -0.58279,0.51823 -0.66534,0.92604 -0.0815,0.40922 0.0356,0.88759 0.35278,1.43334 z"
     style="fill:#020000;fill-opacity:1;fill-rule:nonzero;stroke:none;stroke-width:0.352778"
     id="path6343" /><path
     d="m 170.25372,39.83073 0.65052,-0.52634 c 0.20532,0.26317 0.4438,0.4191 0.71508,0.46566 0.27305,0.0469 0.57468,-0.0261 0.90417,-0.21766 0.33197,-0.19156 0.54011,-0.40111 0.62301,-0.6283 0.0825,-0.23001 0.0702,-0.43532 -0.036,-0.61736 -0.0938,-0.16404 -0.23989,-0.25223 -0.43533,-0.26317 -0.13653,-0.007 -0.43004,0.0536 -0.88195,0.18309 -0.60783,0.17251 -1.04316,0.27164 -1.30527,0.29351 -0.26176,0.0194 -0.4946,-0.0261 -0.70133,-0.13617 -0.20531,-0.11324 -0.36794,-0.27446 -0.4893,-0.48366 -0.11007,-0.19015 -0.16933,-0.39017 -0.17639,-0.60113 -0.007,-0.21484 0.0346,-0.41875 0.12277,-0.61313 0.0649,-0.14746 0.17639,-0.30586 0.33761,-0.47413 0.16122,-0.17216 0.35278,-0.32244 0.57608,-0.45191 0.33479,-0.19297 0.65582,-0.31397 0.96309,-0.36371 0.31009,-0.0511 0.57467,-0.0289 0.79128,0.0674 0.21484,0.0938 0.4258,0.26599 0.63112,0.5154 l -0.65194,0.50589 c -0.1598,-0.20109 -0.35277,-0.31821 -0.5789,-0.35137 -0.22437,-0.0346 -0.47661,0.0289 -0.75918,0.19156 -0.33197,0.19297 -0.53728,0.38453 -0.61595,0.57714 -0.0787,0.19156 -0.0744,0.36125 0.0109,0.50871 0.054,0.0935 0.1323,0.16122 0.23425,0.20249 0.10477,0.0427 0.23424,0.0536 0.39017,0.0317 0.0868,-0.0152 0.3362,-0.0759 0.74542,-0.1845 0.59126,-0.16016 1.01282,-0.25365 1.26506,-0.28116 0.25365,-0.0318 0.48507,10e-4 0.69744,0.10054 0.21061,0.0991 0.387,0.2727 0.53023,0.51929 0.13934,0.2413 0.20002,0.51011 0.18203,0.80645 -0.0166,0.2921 -0.12277,0.57432 -0.31962,0.84596 -0.19861,0.26882 -0.46602,0.50024 -0.8008,0.69321 -0.55527,0.32102 -1.04458,0.45191 -1.47038,0.38982 -0.42298,-0.0632 -0.8061,-0.2974 -1.14794,-0.70415 z"
     style="fill:#020000;fill-opacity:1;fill-rule:nonzero;stroke:none;stroke-width:0.352778"
     id="path6345" /><path
     d="m 174.36993,37.44807 0.65053,-0.52634 c 0.20531,0.26317 0.44379,0.4191 0.71508,0.46566 0.27305,0.0469 0.57467,-0.0261 0.90416,-0.21625 0.33197,-0.19297 0.54011,-0.40217 0.62301,-0.62971 0.0811,-0.23001 0.0702,-0.43533 -0.036,-0.61736 -0.0938,-0.16404 -0.23989,-0.25082 -0.43533,-0.26317 -0.13653,-0.007 -0.43145,0.0536 -0.88194,0.18309 -0.60784,0.17392 -1.04317,0.27164 -1.30528,0.29386 -0.26176,0.019 -0.4946,-0.0265 -0.70132,-0.13511 -0.20532,-0.11465 -0.36936,-0.27587 -0.48931,-0.48507 -0.11006,-0.19015 -0.16933,-0.39017 -0.17639,-0.60078 -0.007,-0.21519 0.0346,-0.4191 0.12277,-0.61348 0.0649,-0.14746 0.17639,-0.30586 0.3362,-0.47378 0.16263,-0.17251 0.35419,-0.32279 0.57608,-0.45085 0.33479,-0.19438 0.65723,-0.31538 0.9645,-0.36513 0.31009,-0.0508 0.57326,-0.0289 0.79128,0.0674 0.21484,0.0938 0.42439,0.266 0.62971,0.51541 l -0.65053,0.50589 c -0.1598,-0.20109 -0.35277,-0.31821 -0.58031,-0.35137 -0.22296,-0.0346 -0.47661,0.0289 -0.75777,0.19156 -0.33197,0.19297 -0.53728,0.38453 -0.61595,0.5775 -0.0787,0.19155 -0.0744,0.36089 0.0109,0.50835 0.0536,0.0938 0.1323,0.16122 0.23425,0.20249 0.10477,0.0441 0.23424,0.054 0.38876,0.0318 0.0882,-0.0152 0.33761,-0.0759 0.74683,-0.1845 0.59126,-0.16016 1.01283,-0.25365 1.26506,-0.28116 0.25224,-0.0317 0.48507,10e-4 0.69603,0.10054 0.21202,0.10054 0.38841,0.27269 0.53164,0.51964 0.13935,0.24095 0.20002,0.50976 0.18203,0.8061 -0.0166,0.2921 -0.12418,0.57467 -0.32103,0.84596 -0.19861,0.26881 -0.4646,0.50024 -0.79939,0.69462 -0.55527,0.32102 -1.04458,0.45049 -1.47038,0.38841 -0.42298,-0.0617 -0.8061,-0.2974 -1.14794,-0.70415 z"
     style="fill:#020000;fill-opacity:1;fill-rule:nonzero;stroke:none;stroke-width:0.352778"
     id="path6347" /><path
     d="m 176.58714,31.11077 -0.48083,-0.83255 0.72354,-0.41875 0.48084,0.8322 z m 2.92982,5.05989 -2.47086,-4.26896 0.72355,-0.4191 2.47086,4.26932 z"
     style="fill:#020000;fill-opacity:1;fill-rule:nonzero;stroke:none;stroke-width:0.352778"
     id="path6349" /><path
     d="m 182.00863,34.7278 -0.67134,0.38876 -3.41065,-5.89244 0.72355,-0.4191 1.21673,2.1029 c 0.0843,-0.56091 0.36265,-0.97684 0.83643,-1.25271 0.26353,-0.15134 0.54187,-0.24095 0.83679,-0.26846 0.29598,-0.0332 0.57573,0.004 0.83785,0.11006 0.26317,0.10196 0.51541,0.26317 0.75776,0.48507 0.24236,0.22049 0.45191,0.48507 0.63112,0.79375 0.42298,0.73166 0.56903,1.40159 0.43957,2.01084 -0.13089,0.60748 -0.44909,1.05833 -0.95639,1.35184 -0.50411,0.2921 -1.02093,0.30974 -1.5501,0.055 z m -1.26224,-2.16217 c 0.29598,0.51294 0.57997,0.84208 0.85161,0.98954 0.44344,0.23989 0.8583,0.248 1.24707,0.0236 0.31679,-0.18345 0.51117,-0.47837 0.58278,-0.88477 0.0716,-0.40922 -0.0508,-0.88618 -0.36653,-1.43051 -0.32244,-0.55669 -0.67098,-0.90382 -1.0474,-1.04035 -0.37324,-0.13793 -0.71649,-0.11712 -1.03082,0.0646 -0.31538,0.18345 -0.50835,0.47978 -0.57996,0.889 -0.0716,0.4064 0.0427,0.8696 0.34325,1.38889 z"
     style="fill:#020000;fill-opacity:1;fill-rule:nonzero;stroke:none;stroke-width:0.352778"
     id="path6351" /><path
     d="m 185.90294,32.47355 -3.41065,-5.89245 0.72355,-0.4191 3.41065,5.89245 z"
     style="fill:#020000;fill-opacity:1;fill-rule:nonzero;stroke:none;stroke-width:0.352778"
     id="path6353" /><path
     d="m 189.87452,28.33935 0.80186,-0.34043 c 0.13511,0.50588 0.11289,0.97155 -0.0674,1.39735 -0.17921,0.42439 -0.51682,0.7814 -1.01177,1.06786 -0.62406,0.36265 -1.2319,0.45755 -1.82033,0.28681 -0.58843,-0.17498 -1.08303,-0.60925 -1.48414,-1.30352 -0.41592,-0.7179 -0.55386,-1.38218 -0.41345,-1.99284 0.14076,-0.6103 0.50588,-1.08726 1.09431,-1.42769 0.57186,-0.33055 1.15076,-0.4064 1.73638,-0.22719 0.58702,0.17921 1.08443,0.6216 1.49225,1.32574 0.025,0.0427 0.0607,0.10724 0.10759,0.19544 l -3.18311,1.84256 c 0.29739,0.45332 0.63782,0.73589 1.02094,0.84596 0.38311,0.11183 0.75247,0.0649 1.10948,-0.14182 0.26459,-0.15416 0.4505,-0.35419 0.5581,-0.60219 0.10583,-0.248 0.12665,-0.55668 0.0593,-0.92604 z m -3.05259,0.20532 2.38407,-1.37937 c -0.23989,-0.34043 -0.48789,-0.55668 -0.74154,-0.64911 -0.39123,-0.14605 -0.77011,-0.11147 -1.13806,0.10054 -0.33231,0.19156 -0.54716,0.46602 -0.64629,0.81986 -0.0967,0.35278 -0.0497,0.72214 0.14182,1.10808 z"
     style="fill:#020000;fill-opacity:1;fill-rule:nonzero;stroke:none;stroke-width:0.352778"
     id="path6355" /><path
     d="m 285.71294,32.16769 c -0.4011,0.0688 -0.75247,0.0769 -1.05586,0.0233 -0.30021,-0.0512 -0.5909,-0.16122 -0.87348,-0.32808 -0.46708,-0.27552 -0.75812,-0.60078 -0.87524,-0.97402 -0.11571,-0.37783 -0.0674,-0.74436 0.14217,-1.09855 0.12241,-0.20814 0.28116,-0.36936 0.47519,-0.48507 0.19862,-0.11712 0.40393,-0.18168 0.61736,-0.19544 0.21661,-0.0138 0.43568,0.0109 0.65864,0.0702 0.16404,0.0469 0.39829,0.13653 0.7045,0.26988 0.62124,0.27446 1.09819,0.4452 1.42875,0.51152 0.0621,-0.0981 0.10089,-0.1598 0.11606,-0.18626 0.17357,-0.29351 0.22719,-0.5401 0.16228,-0.73978 -0.0882,-0.27164 -0.31256,-0.51399 -0.67522,-0.72919 -0.33902,-0.19967 -0.62547,-0.28787 -0.85831,-0.26317 -0.22895,0.0222 -0.47131,0.16122 -0.72778,0.41769 l -0.64629,-0.51259 c 0.24271,-0.26317 0.49072,-0.44379 0.74578,-0.54045 0.25752,-0.10055 0.55245,-0.11713 0.88864,-0.0522 0.33761,0.0621 0.68757,0.20108 1.05269,0.41769 0.36266,0.21343 0.63253,0.42968 0.80892,0.64875 0.17639,0.21943 0.27834,0.42581 0.30868,0.62019 0.0303,0.19014 0.01,0.39687 -0.0646,0.62018 -0.0483,0.13653 -0.16686,0.36513 -0.3556,0.68474 l -0.56762,0.9592 c -0.39546,0.66993 -0.63112,1.10244 -0.70696,1.29823 -0.0716,0.19438 -0.11042,0.39969 -0.11571,0.61595 l -0.75248,-0.4438 c 0.0138,-0.19297 0.0688,-0.39687 0.16545,-0.60889 z m 0.89006,-1.64288 c -0.32526,-0.048 -0.77046,-0.18874 -1.33667,-0.42298 -0.32103,-0.1323 -0.5581,-0.20814 -0.71261,-0.22719 -0.15417,-0.0194 -0.29598,0.004 -0.42298,0.0688 -0.12665,0.0621 -0.22719,0.15557 -0.30163,0.28116 -0.11324,0.19156 -0.13511,0.39405 -0.0677,0.60643 0.0716,0.21484 0.24659,0.40499 0.52634,0.57044 0.27729,0.16404 0.55951,0.24941 0.84632,0.25612 0.28786,0.006 0.54574,-0.0674 0.77152,-0.21767 0.17392,-0.11712 0.35278,-0.33478 0.54046,-0.65193 z"
     style="fill:#020000;fill-opacity:1;fill-rule:nonzero;stroke:none;stroke-width:0.352778"
     id="path6357" /><path
     d="m 289.13842,34.0293 -0.27129,0.69744 c -0.2286,-0.0773 -0.42157,-0.16263 -0.58138,-0.25788 -0.26211,-0.15416 -0.43991,-0.31573 -0.53481,-0.48224 -0.0953,-0.16828 -0.13229,-0.3362 -0.11289,-0.50448 0.0219,-0.16933 0.15981,-0.47131 0.41452,-0.9024 l 1.44427,-2.44334 -0.52776,-0.3115 0.33056,-0.56092 0.5281,0.31291 0.62125,-1.05163 0.97013,-0.009 -0.8763,1.48273 0.72355,0.42862 -0.3309,0.55951 -0.72355,-0.42722 -1.46615,2.48321 c -0.12135,0.20531 -0.18732,0.34325 -0.19826,0.41627 -0.008,0.0744 0.005,0.14605 0.0413,0.21344 0.0384,0.0691 0.11006,0.13511 0.21766,0.19861 0.0801,0.0469 0.19015,0.10054 0.33197,0.1584 z"
     style="fill:#020000;fill-opacity:1;fill-rule:nonzero;stroke:none;stroke-width:0.352778"
     id="path6359" /><path
     d="m 290.44757,32.80693 c 0.46602,-0.78529 1.028,-1.23896 1.6884,-1.35855 0.55104,-0.0995 1.08973,0.007 1.61502,0.31679 0.5842,0.34467 0.9465,0.81845 1.09114,1.42064 0.14499,0.60078 0.018,1.23754 -0.3803,1.91276 -0.32244,0.54575 -0.66004,0.92745 -1.01,1.14512 -0.34713,0.21519 -0.72884,0.31714 -1.14653,0.3048 -0.41345,-0.0113 -0.8061,-0.127 -1.17686,-0.34608 -0.59408,-0.34995 -0.96309,-0.8255 -1.10526,-1.42346 -0.1404,-0.59654 10e-4,-1.25412 0.42439,-1.97202 z m 0.74013,0.43815 c -0.32103,0.54292 -0.44379,1.02129 -0.36653,1.43333 0.0787,0.40922 0.29774,0.72073 0.65722,0.93275 0.35701,0.21096 0.73448,0.25082 1.13277,0.11853 0.39688,-0.13088 0.76059,-0.47519 1.09008,-1.03223 0.3101,-0.52634 0.4244,-0.99342 0.34467,-1.40405 -0.0773,-0.41205 -0.2921,-0.72355 -0.6477,-0.9331 -0.35984,-0.21202 -0.73731,-0.25471 -1.13418,-0.12524 -0.39547,0.12947 -0.7553,0.46567 -1.07633,1.01001 z"
     style="fill:#020000;fill-opacity:1;fill-rule:nonzero;stroke:none;stroke-width:0.352778"
     id="path6361" /><path
     d="m 294.01557,37.78039 2.50931,-4.24709 0.64346,0.38029 -0.35136,0.59514 c 0.25647,-0.12806 0.53199,-0.19015 0.82691,-0.18451 0.29633,0.003 0.58702,0.0868 0.86959,0.25365 0.31398,0.18591 0.53305,0.40358 0.65582,0.65158 0.12559,0.25083 0.15981,0.51823 0.10336,0.80081 0.62971,-0.29634 1.21285,-0.28681 1.75154,0.0317 0.42157,0.24941 0.67522,0.55809 0.76342,0.92604 0.0896,0.36512 -0.008,0.79093 -0.29493,1.276 l -1.72261,2.91465 -0.71508,-0.42193 1.57903,-2.67617 c 0.1711,-0.28787 0.26882,-0.50835 0.29492,-0.66146 0.0303,-0.15416 0.007,-0.30727 -0.0702,-0.45755 -0.0773,-0.14852 -0.19826,-0.2727 -0.36371,-0.37042 -0.29775,-0.17639 -0.60502,-0.2233 -0.9204,-0.13934 -0.31432,0.0801 -0.59972,0.33902 -0.85866,0.77717 l -1.45662,2.46662 -0.72072,-0.4258 1.63018,-2.75873 c 0.18874,-0.31961 0.27305,-0.59407 0.24941,-0.82409 -0.0219,-0.2286 -0.16651,-0.42157 -0.43391,-0.57855 -0.20285,-0.11995 -0.42192,-0.1778 -0.65899,-0.17392 -0.23283,0.006 -0.44909,0.0882 -0.64735,0.248 -0.19861,0.16016 -0.41204,0.43286 -0.64099,0.8188 l -1.3007,2.20345 z"
     style="fill:#020000;fill-opacity:1;fill-rule:nonzero;stroke:none;stroke-width:0.352778"
     id="path6363" /><path
     d="m 303.81609,36.7785 0.4893,-0.82832 0.71931,0.4258 -0.4893,0.82691 z m -2.97392,5.03378 2.50825,-4.24709 0.71931,0.42581 -2.50825,4.24603 z"
     style="fill:#020000;fill-opacity:1;fill-rule:nonzero;stroke:none;stroke-width:0.352778"
     id="path6365" /><path
     d="m 306.34762,42.96587 0.65299,0.51117 c -0.36653,0.44098 -0.79093,0.70697 -1.27458,0.79516 -0.47943,0.0868 -0.95074,-0.007 -1.41394,-0.27975 -0.58137,-0.34431 -0.93697,-0.81033 -1.06786,-1.39735 -0.127,-0.58985 0.0194,-1.23896 0.43815,-1.94698 0.27023,-0.45897 0.58279,-0.81598 0.93839,-1.06962 0.3556,-0.2533 0.73731,-0.37465 1.14794,-0.36231 0.41487,0.0109 0.80328,0.12418 1.16876,0.33902 0.46143,0.2727 0.7687,0.61313 0.92463,1.02129 0.15557,0.40499 0.14887,0.84597 -0.0222,1.32398 l -0.76341,-0.30445 c 0.10195,-0.32526 0.10901,-0.6103 0.0236,-0.85443 -0.0829,-0.24377 -0.24413,-0.43532 -0.48402,-0.57714 -0.3623,-0.21519 -0.73448,-0.25788 -1.11477,-0.13123 -0.3803,0.12559 -0.7359,0.46884 -1.06786,1.03081 -0.3362,0.5708 -0.47272,1.05022 -0.4064,1.43757 0.066,0.38841 0.27411,0.68616 0.62688,0.89429 0.28258,0.16652 0.56904,0.21908 0.86114,0.15699 0.29104,-0.0607 0.56938,-0.25647 0.83255,-0.58702 z"
     style="fill:#020000;fill-opacity:1;fill-rule:nonzero;stroke:none;stroke-width:0.352778"
     id="path6367" /><path
     d="m 312.71667,46.7293 0.65334,0.50977 c -0.36512,0.44238 -0.78951,0.70837 -1.27317,0.79657 -0.47978,0.0868 -0.9525,-0.007 -1.41534,-0.28117 -0.58174,-0.3429 -0.93698,-0.80892 -1.06786,-1.39594 -0.127,-0.58984 0.019,-1.23895 0.43815,-1.94698 0.27128,-0.45896 0.5842,-0.81597 0.93839,-1.06962 0.3556,-0.2533 0.73871,-0.37465 1.14793,-0.36371 0.41487,0.0109 0.80469,0.12558 1.16982,0.34043 0.46037,0.27269 0.76905,0.61312 0.92322,1.02129 0.15592,0.40499 0.14887,0.84596 -0.0219,1.32397 l -0.76341,-0.30586 c 0.10195,-0.32385 0.11007,-0.60889 0.0247,-0.85301 -0.084,-0.24377 -0.24518,-0.43533 -0.48507,-0.57715 -0.36231,-0.21519 -0.73449,-0.25788 -1.11478,-0.13123 -0.37888,0.12559 -0.7359,0.46884 -1.06786,1.03082 -0.33655,0.57079 -0.47272,1.05022 -0.40675,1.43757 0.0663,0.3884 0.27446,0.68615 0.62724,0.89429 0.28222,0.16651 0.56903,0.21907 0.86113,0.15698 0.29069,-0.0607 0.56903,-0.25647 0.8322,-0.58702 z"
     style="fill:#020000;fill-opacity:1;fill-rule:nonzero;stroke:none;stroke-width:0.352778"
     id="path6369" /><path
     d="m 314.10732,46.78575 c 0.46426,-0.7867 1.02799,-1.24037 1.68804,-1.35996 0.55104,-0.0995 1.09009,0.007 1.61502,0.31679 0.58279,0.34467 0.94685,0.81845 1.09149,1.42205 0.14464,0.59972 0.018,1.23754 -0.38029,1.91135 -0.32244,0.54716 -0.66005,0.92886 -1.01142,1.14512 -0.34607,0.2166 -0.72778,0.31714 -1.14546,0.3048 -0.41452,-0.0113 -0.8061,-0.12559 -1.17687,-0.34467 -0.59514,-0.35136 -0.96308,-0.82691 -1.10631,-1.42487 -0.13935,-0.59654 0.003,-1.25412 0.4258,-1.97061 z m 0.73978,0.43673 c -0.32103,0.54434 -0.44345,1.0213 -0.36654,1.43334 0.0773,0.41063 0.29633,0.72073 0.65758,0.93416 0.35666,0.21096 0.73448,0.24941 1.13136,0.11853 0.39828,-0.13229 0.762,-0.4766 1.09114,-1.03329 0.31009,-0.52528 0.42474,-0.99377 0.34466,-1.4044 -0.0773,-0.41205 -0.2921,-0.72214 -0.6477,-0.93169 -0.35948,-0.21343 -0.7373,-0.25471 -1.13418,-0.12524 -0.39546,0.12806 -0.75494,0.46426 -1.07632,1.00859 z"
     style="fill:#020000;fill-opacity:1;fill-rule:nonzero;stroke:none;stroke-width:0.352778"
     id="path6371" /><path
     d="m 317.67496,51.7578 2.50931,-4.24568 0.64382,0.38029 -0.35137,0.59514 c 0.25471,-0.12947 0.53164,-0.19156 0.82656,-0.18592 0.29633,0.003 0.58561,0.0882 0.8696,0.25506 0.31432,0.18591 0.53199,0.40217 0.65581,0.65158 0.12559,0.25083 0.16016,0.51682 0.10337,0.80081 0.62865,-0.29775 1.21285,-0.28681 1.75154,0.0303 0.42051,0.24941 0.67521,0.55809 0.76341,0.92604 0.0896,0.36653 -0.01,0.79234 -0.29598,1.27741 l -1.7212,2.91465 -0.71685,-0.42334 1.5808,-2.67476 c 0.17074,-0.28786 0.26881,-0.50835 0.29492,-0.66287 0.0303,-0.15416 0.007,-0.30586 -0.0702,-0.45614 -0.0773,-0.14993 -0.19862,-0.27411 -0.36407,-0.37042 -0.29739,-0.17638 -0.60501,-0.2233 -0.9204,-0.14075 -0.31432,0.0815 -0.59937,0.34043 -0.85866,0.77717 l -1.45662,2.46697 -0.72072,-0.42474 1.63054,-2.75873 c 0.18873,-0.31961 0.27269,-0.59513 0.24941,-0.82409 -0.0236,-0.2286 -0.16827,-0.42298 -0.43427,-0.57996 -0.20249,-0.11995 -0.42157,-0.1778 -0.65863,-0.17392 -0.23284,0.007 -0.44944,0.0896 -0.6477,0.24835 -0.19862,0.15981 -0.41205,0.43251 -0.64065,0.81986 l -1.30104,2.20345 z"
     style="fill:#020000;fill-opacity:1;fill-rule:nonzero;stroke:none;stroke-width:0.352778"
     id="path6373" /><path
     d="m 324.49627,55.78863 2.50931,-4.24709 0.64382,0.3803 -0.35172,0.59513 c 0.25647,-0.12805 0.53199,-0.19014 0.82691,-0.1845 0.29634,0.003 0.58702,0.0868 0.8696,0.2533 0.31432,0.18626 0.5334,0.40393 0.65581,0.65334 0.12559,0.24941 0.16016,0.51682 0.10337,0.79939 0.63006,-0.29633 1.21285,-0.2868 1.75154,0.0317 0.42051,0.24942 0.67521,0.5581 0.76341,0.92605 0.0896,0.36512 -0.008,0.79092 -0.29492,1.27599 l -1.72226,2.9143 -0.71685,-0.42157 1.5808,-2.67617 c 0.17074,-0.28646 0.26846,-0.50835 0.29492,-0.66146 0.0303,-0.15416 0.007,-0.30727 -0.0706,-0.45755 -0.0769,-0.14887 -0.19827,-0.2727 -0.36372,-0.37042 -0.29774,-0.17639 -0.60501,-0.22331 -0.9204,-0.13935 -0.31432,0.0801 -0.59936,0.33902 -0.85866,0.77717 l -1.45662,2.46663 -0.72072,-0.42581 1.63019,-2.75872 c 0.18908,-0.31962 0.27305,-0.59408 0.24941,-0.82268 -0.0219,-0.23001 -0.16651,-0.42298 -0.43392,-0.58032 -0.20249,-0.11959 -0.42157,-0.1778 -0.65863,-0.17356 -0.23284,0.006 -0.44944,0.0882 -0.6477,0.248 -0.19862,0.15981 -0.41205,0.43286 -0.641,0.8188 l -1.30069,2.20345 z"
     style="fill:#020000;fill-opacity:1;fill-rule:nonzero;stroke:none;stroke-width:0.352778"
     id="path6375" /><path
     d="m 334.29679,54.78675 0.4893,-0.82833 0.71932,0.42581 -0.4893,0.82691 z m -2.97356,5.03378 2.50789,-4.24709 0.71932,0.4258 -2.5079,4.24568 z"
     style="fill:#020000;fill-opacity:1;fill-rule:nonzero;stroke:none;stroke-width:0.352778"
     id="path6377" /><path
     d="m 335.08913,61.17802 -0.27129,0.69744 c -0.22754,-0.0773 -0.42157,-0.16263 -0.58173,-0.25788 -0.26176,-0.15416 -0.43956,-0.31538 -0.53445,-0.48366 -0.0952,-0.16686 -0.1323,-0.33478 -0.11325,-0.50306 0.0222,-0.17074 0.16122,-0.47131 0.41628,-0.90381 l 1.44286,-2.44334 -0.52775,-0.31151 0.33055,-0.5595 0.52776,0.3115 0.62159,-1.05163 0.97155,-0.008 -0.8763,1.48273 0.72355,0.42721 -0.33091,0.56092 -0.72355,-0.42863 -1.46755,2.4832 c -0.12136,0.20532 -0.18733,0.34467 -0.19826,0.41769 -0.007,0.0744 0.007,0.14464 0.0413,0.21343 0.0385,0.0691 0.11148,0.13512 0.21767,0.19862 0.0801,0.0469 0.19014,0.0991 0.33196,0.15839 z"
     style="fill:#020000;fill-opacity:1;fill-rule:nonzero;stroke:none;stroke-width:0.352778"
     id="path6379" /><path
     d="m 335.87336,60.79914 0.77858,0.30868 c -0.12806,0.30868 -0.14747,0.59231 -0.055,0.8516 0.0935,0.26176 0.30445,0.4879 0.63253,0.68192 0.33056,0.19579 0.61454,0.27305 0.85443,0.23425 0.23954,-0.0413 0.41346,-0.15276 0.5207,-0.33338 0.0952,-0.16263 0.10054,-0.33196 0.0138,-0.50976 -0.0607,-0.12136 -0.25753,-0.34749 -0.5909,-0.67804 -0.44944,-0.44521 -0.7486,-0.77576 -0.89606,-0.99342 -0.14464,-0.21802 -0.22049,-0.4438 -0.22578,-0.67804 -0.001,-0.23425 0.0593,-0.45614 0.18168,-0.66428 0.11183,-0.18874 0.25788,-0.33761 0.43851,-0.44803 0.18309,-0.11007 0.3817,-0.17498 0.59372,-0.19297 0.16122,-0.0162 0.35419,0.004 0.57891,0.0607 0.2286,0.0564 0.45473,0.15028 0.67522,0.28116 0.33337,0.19721 0.59654,0.41769 0.79092,0.66146 0.19721,0.24554 0.30586,0.48648 0.32809,0.72214 0.0247,0.23283 -0.0222,0.50024 -0.13935,0.80222 l -0.76059,-0.31997 c 0.0977,-0.23707 0.10478,-0.46285 0.0222,-0.67663 -0.0787,-0.21202 -0.2593,-0.40217 -0.53905,-0.56762 -0.33055,-0.19438 -0.59796,-0.27975 -0.80468,-0.25365 -0.20532,0.0261 -0.35137,0.11183 -0.43815,0.25929 -0.0554,0.0921 -0.0758,0.19403 -0.0607,0.30304 0.0123,0.11148 0.0674,0.23001 0.16263,0.3556 0.0564,0.0688 0.23142,0.25471 0.52634,0.55951 0.42863,0.43673 0.71791,0.75776 0.86537,0.96449 0.1531,0.20391 0.23706,0.42298 0.25364,0.65581 0.018,0.23319 -0.0469,0.47273 -0.19155,0.71826 -0.14182,0.23954 -0.34608,0.42439 -0.61313,0.55386 -0.26353,0.12947 -0.56092,0.17357 -0.89465,0.13511 -0.33196,-0.0413 -0.66392,-0.1598 -0.99765,-0.35701 -0.55104,-0.32526 -0.90523,-0.68897 -1.05975,-1.09008 -0.15275,-0.3997 -0.13617,-0.84737 0.0498,-1.3462 z"
     style="fill:#020000;fill-opacity:1;fill-rule:nonzero;stroke:none;stroke-width:0.352778"
     id="path6381" /><path
     d="m 340.82036,67.62715 3.47133,-5.87304 0.65617,0.38699 -0.32667,0.55281 c 0.28257,-0.12559 0.55245,-0.18345 0.81033,-0.17498 0.25893,0.005 0.52634,0.091 0.80327,0.25365 0.3623,0.21484 0.6283,0.49741 0.79516,0.84737 0.16687,0.34995 0.22049,0.73872 0.15981,1.16311 -0.0593,0.42157 -0.20814,0.83502 -0.44767,1.24001 -0.25647,0.43427 -0.56657,0.77999 -0.93028,1.03646 -0.35983,0.25471 -0.74295,0.38841 -1.15217,0.39829 -0.40499,0.01 -0.77012,-0.0829 -1.0982,-0.27693 -0.23989,-0.14217 -0.4258,-0.31997 -0.55809,-0.53481 -0.12947,-0.21379 -0.20955,-0.43286 -0.2413,-0.66005 l -1.22097,2.06692 z m 2.85397,-3.34045 c -0.32244,0.54575 -0.4505,1.01565 -0.38453,1.40723 0.0677,0.39123 0.25788,0.68051 0.57327,0.86677 0.31997,0.18874 0.67274,0.21626 1.05833,0.0797 0.39017,-0.13617 0.75247,-0.48753 1.08726,-1.05551 0.31997,-0.54151 0.44803,-1.01282 0.38312,-1.41393 -0.0632,-0.40076 -0.24801,-0.6918 -0.5581,-0.87489 -0.30586,-0.18062 -0.66251,-0.1972 -1.07068,-0.0497 -0.40216,0.14746 -0.76623,0.49354 -1.08867,1.04034 z"
     style="fill:#020000;fill-opacity:1;fill-rule:nonzero;stroke:none;stroke-width:0.352778"
     id="path6383" /><path
     d="m 347.32346,66.40901 c 0.46426,-0.78528 1.02659,-1.23896 1.68804,-1.35855 0.5514,-0.0995 1.08868,0.007 1.61361,0.3168 0.58455,0.34466 0.94827,0.81844 1.09149,1.42063 0.14605,0.60078 0.0194,1.23755 -0.37888,1.91276 -0.32385,0.54575 -0.66005,0.92746 -1.01141,1.14512 -0.34749,0.2152 -0.72919,0.31715 -1.14512,0.3048 -0.41487,-0.0113 -0.80751,-0.127 -1.17828,-0.34466 -0.59407,-0.35137 -0.96202,-0.82691 -1.10525,-1.42487 -0.13899,-0.59655 0.001,-1.25413 0.4258,-1.97203 z m 0.74013,0.43815 c -0.32103,0.54292 -0.44379,1.02129 -0.36795,1.43334 0.0783,0.40922 0.29775,0.72072 0.65723,0.93274 0.35701,0.21096 0.73448,0.25083 1.13277,0.11853 0.39828,-0.13088 0.762,-0.47519 1.09149,-1.03222 0.31009,-0.52494 0.42439,-0.99343 0.3429,-1.40406 -0.0755,-0.41204 -0.2921,-0.72355 -0.64629,-0.9331 -0.35948,-0.21202 -0.73836,-0.25329 -1.13382,-0.12523 -0.39723,0.12947 -0.7553,0.46566 -1.07633,1.01 z"
     style="fill:#020000;fill-opacity:1;fill-rule:nonzero;stroke:none;stroke-width:0.352778"
     id="path6385" /><path
     d="m 351.35148,69.94384 0.77858,0.30868 c -0.12806,0.30868 -0.14746,0.59232 -0.055,0.85161 0.0935,0.26176 0.30444,0.48789 0.63253,0.68192 0.33055,0.19579 0.61454,0.27305 0.85442,0.23424 0.23954,-0.0413 0.41346,-0.15275 0.5207,-0.33337 0.0952,-0.16263 0.10055,-0.33197 0.0152,-0.50977 -0.0621,-0.12135 -0.25893,-0.34748 -0.59266,-0.67803 -0.44909,-0.44521 -0.74683,-0.77576 -0.8957,-0.99378 -0.14464,-0.21766 -0.22049,-0.44344 -0.22578,-0.67769 -0.001,-0.23424 0.0593,-0.45614 0.18168,-0.66428 0.11183,-0.18873 0.25788,-0.3376 0.4385,-0.44802 0.18309,-0.11007 0.38171,-0.17498 0.59373,-0.19297 0.16121,-0.0166 0.35418,0.004 0.5789,0.0607 0.2286,0.0564 0.45473,0.15028 0.67522,0.28116 0.33338,0.1972 0.59655,0.41769 0.79093,0.66146 0.1972,0.24518 0.30586,0.48648 0.32808,0.72213 0.0247,0.23284 -0.0222,0.50165 -0.13935,0.80187 l -0.76058,-0.31962 c 0.0977,-0.23706 0.10477,-0.46284 0.0233,-0.67663 -0.0797,-0.21202 -0.26035,-0.4011 -0.5401,-0.5662 -0.33056,-0.1958 -0.59796,-0.28117 -0.80469,-0.25506 -0.20532,0.0261 -0.35137,0.11148 -0.43815,0.25894 -0.0554,0.0924 -0.0758,0.19438 -0.0607,0.30339 0.0123,0.11288 0.0674,0.23001 0.16263,0.3556 0.0565,0.0688 0.23142,0.2547 0.52635,0.5595 0.43003,0.43674 0.7179,0.75777 0.86536,0.9645 0.15311,0.2039 0.23707,0.42298 0.25365,0.65581 0.018,0.23283 -0.0469,0.47272 -0.19156,0.7179 -0.14182,0.23989 -0.34608,0.42475 -0.61313,0.55422 -0.26317,0.12947 -0.56091,0.17356 -0.89464,0.13511 -0.33197,-0.0416 -0.66393,-0.16016 -0.99766,-0.35701 -0.55104,-0.32526 -0.90523,-0.68898 -1.05974,-1.09008 -0.15275,-0.3997 -0.13617,-0.84738 0.0497,-1.3462 z"
     style="fill:#020000;fill-opacity:1;fill-rule:nonzero;stroke:none;stroke-width:0.352778"
     id="path6387" /><path
     d="m 355.44688,72.36355 0.77752,0.30868 c -0.12841,0.30868 -0.1464,0.59266 -0.0554,0.8516 0.0938,0.26035 0.3048,0.48789 0.63253,0.68086 0.33091,0.19544 0.61595,0.27411 0.85443,0.23566 0.23989,-0.0413 0.41346,-0.15311 0.52105,-0.33514 0.0963,-0.16228 0.10055,-0.33196 0.0152,-0.50835 -0.0607,-0.12277 -0.25788,-0.34855 -0.59266,-0.67804 -0.44803,-0.44627 -0.74683,-0.77717 -0.89571,-0.99342 -0.14464,-0.21908 -0.21907,-0.44521 -0.22472,-0.67804 -0.004,-0.23566 0.0579,-0.45614 0.18063,-0.66428 0.11289,-0.19015 0.25752,-0.33902 0.43815,-0.44768 0.18344,-0.11183 0.3817,-0.17639 0.59407,-0.19438 0.16122,-0.0166 0.35419,0.004 0.57856,0.0621 0.23036,0.0564 0.45473,0.14852 0.67663,0.27975 0.33231,0.19685 0.5969,0.41734 0.78987,0.66146 0.19685,0.24518 0.30586,0.48613 0.32914,0.72179 0.0236,0.23424 -0.0233,0.50165 -0.14041,0.80362 l -0.76094,-0.31961 c 0.0981,-0.23848 0.10478,-0.46461 0.0236,-0.67804 -0.0801,-0.21237 -0.25894,-0.40111 -0.53869,-0.56656 -0.33091,-0.19544 -0.59973,-0.27976 -0.80504,-0.25471 -0.20673,0.0261 -0.35278,0.11289 -0.43956,0.25894 -0.055,0.0938 -0.0744,0.19438 -0.0607,0.30445 0.0138,0.11183 0.0677,0.23036 0.16263,0.35419 0.0564,0.0688 0.23142,0.25647 0.52775,0.5595 0.42863,0.43674 0.71685,0.75777 0.86431,0.9645 0.15275,0.20531 0.23671,0.42474 0.25471,0.65757 0.0166,0.23284 -0.0469,0.47131 -0.19297,0.7165 -0.14041,0.23988 -0.34573,0.4258 -0.61313,0.55527 -0.26317,0.12806 -0.56092,0.17356 -0.89429,0.13511 -0.33091,-0.0413 -0.66428,-0.16122 -0.99766,-0.35701 -0.55139,-0.32667 -0.90417,-0.69039 -1.05974,-1.09114 -0.15311,-0.39829 -0.13512,-0.84773 0.0508,-1.34514 z"
     style="fill:#020000;fill-opacity:1;fill-rule:nonzero;stroke:none;stroke-width:0.352778"
     id="path6389" /><path
     d="m 362.05899,71.18809 0.48895,-0.82832 0.71931,0.4258 -0.48895,0.82832 z m -2.97533,5.03379 2.50931,-4.24568 0.71931,0.42439 -2.50789,4.24744 z"
     style="fill:#020000;fill-opacity:1;fill-rule:nonzero;stroke:none;stroke-width:0.352778"
     id="path6391" /><path
     d="m 361.56263,77.68696 -0.66675,-0.39405 3.46287,-5.86246 0.71931,0.42615 -1.23472,2.09021 c 0.52917,-0.20108 1.02941,-0.16263 1.50072,0.11571 0.26176,0.15452 0.47695,0.35278 0.64487,0.5969 0.17357,0.24236 0.27835,0.50412 0.31433,0.78388 0.0399,0.27975 0.0233,0.5789 -0.0512,0.89852 -0.073,0.31997 -0.20109,0.63253 -0.38171,0.93839 -0.42968,0.72919 -0.94262,1.18533 -1.53635,1.36984 -0.59548,0.18344 -1.1437,0.127 -1.64817,-0.17075 -0.50024,-0.29492 -0.77047,-0.7373 -0.80892,-1.32433 z m 1.26647,-2.15935 c -0.30162,0.50835 -0.44908,0.91757 -0.4452,1.22626 0.008,0.50447 0.20532,0.871 0.59267,1.09855 0.31432,0.18591 0.66569,0.2106 1.05551,0.0744 0.39158,-0.13935 0.74718,-0.47978 1.0668,-1.01989 0.32773,-0.55527 0.45896,-1.0294 0.39405,-1.42345 -0.0635,-0.39406 -0.24942,-0.68228 -0.56233,-0.86678 -0.31397,-0.18627 -0.66675,-0.20955 -1.05833,-0.0705 -0.38982,0.13653 -0.73872,0.46461 -1.04317,0.98143 z"
     style="fill:#020000;fill-opacity:1;fill-rule:nonzero;stroke:none;stroke-width:0.352778"
     id="path6393" /><path
     d="m 365.4379,79.97578 3.46286,-5.8621 0.71932,0.4258 -3.46287,5.86211 z"
     style="fill:#020000;fill-opacity:1;fill-rule:nonzero;stroke:none;stroke-width:0.352778"
     id="path6395" /><path
     d="m 370.9885,81.41053 0.68898,0.53164 c -0.37465,0.36512 -0.79093,0.57326 -1.2499,0.62583 -0.45896,0.0522 -0.93415,-0.0663 -1.42769,-0.35843 -0.62124,-0.36653 -1.00153,-0.84878 -1.14229,-1.44533 -0.13512,-0.59831 0,-1.24177 0.40922,-1.93216 0.42192,-0.71508 0.9331,-1.16029 1.53388,-1.33809 0.60078,-0.17639 1.19486,-0.0924 1.78188,0.25365 0.56762,0.3362 0.91616,0.80328 1.04845,1.40264 0.13088,0.59832 -0.01,1.24849 -0.42439,1.95016 -0.0247,0.0427 -0.0646,0.10583 -0.11712,0.18874 l -3.16653,-1.87008 c -0.24942,0.48225 -0.32809,0.91652 -0.23848,1.30493 0.091,0.38876 0.31397,0.6865 0.66816,0.8957 0.26458,0.15734 0.53058,0.22049 0.79939,0.19156 0.26882,-0.0275 0.54716,-0.16122 0.83503,-0.40076 v 0 z m -1.67569,-2.55905 2.37031,1.39982 c 0.17921,-0.37606 0.24659,-0.69708 0.20391,-0.96449 -0.0663,-0.41204 -0.28117,-0.72637 -0.64629,-0.94262 -0.33091,-0.19438 -0.67522,-0.24942 -1.03223,-0.16122 -0.35419,0.0882 -0.65299,0.3115 -0.8957,0.66851 z"
     style="fill:#020000;fill-opacity:1;fill-rule:nonzero;stroke:none;stroke-width:0.352778"
     id="path6397" /><path
     d="m 167.74724,123.0175 c -0.30868,0.26599 -0.60502,0.45473 -0.89288,0.56479 -0.28399,0.11042 -0.58985,0.16687 -0.91793,0.16969 -0.54152,0.004 -0.9592,-0.12524 -1.25272,-0.38594 -0.29351,-0.26458 -0.44097,-0.60219 -0.44379,-1.01423 -0.001,-0.24095 0.0512,-0.46144 0.15734,-0.66005 0.11007,-0.2025 0.25365,-0.36372 0.42862,-0.48648 0.17886,-0.12242 0.37889,-0.21484 0.60219,-0.27834 0.16405,-0.0441 0.41064,-0.0882 0.74119,-0.13088 0.67522,-0.0854 1.17158,-0.18451 1.48837,-0.29916 0.003,-0.1143 0.004,-0.18733 0.004,-0.21908 -0.003,-0.34043 -0.0843,-0.57855 -0.24271,-0.7179 -0.21484,-0.18732 -0.5334,-0.27834 -0.95497,-0.27552 -0.39264,0.003 -0.68333,0.0744 -0.87101,0.21484 -0.1845,0.13794 -0.32102,0.38171 -0.40781,0.73308 l -0.81844,-0.10584 c 0.0716,-0.35031 0.19297,-0.63253 0.36089,-0.84772 0.16828,-0.21767 0.41346,-0.38559 0.73448,-0.50271 0.32138,-0.11994 0.69462,-0.18203 1.1176,-0.18486 0.42193,-0.003 0.76342,0.0441 1.028,0.14041 0.26317,0.0981 0.45896,0.2219 0.58314,0.37218 0.12524,0.14746 0.21343,0.3362 0.26458,0.56515 0.0289,0.14182 0.0455,0.3997 0.048,0.77011 l 0.008,1.11478 c 0.006,0.77752 0.0261,1.2693 0.0621,1.47744 0.0385,0.2039 0.11006,0.39969 0.21766,0.58702 l -0.87383,0.007 c -0.0882,-0.17251 -0.14464,-0.375 -0.17074,-0.60783 z m -0.084,-1.86584 c -0.30197,0.12664 -0.7567,0.23424 -1.36313,0.32667 -0.3429,0.0508 -0.58561,0.10865 -0.72743,0.17215 -0.14181,0.0635 -0.25223,0.15417 -0.32808,0.27552 -0.0773,0.11854 -0.1143,0.25083 -0.11289,0.39688 0.001,0.22189 0.0868,0.40781 0.25471,0.55527 0.17109,0.14746 0.4191,0.21943 0.74436,0.21661 0.32244,-10e-4 0.60783,-0.073 0.85831,-0.2152 0.24941,-0.14464 0.43144,-0.33902 0.54715,-0.5842 0.0896,-0.19015 0.1323,-0.46849 0.12947,-0.83644 z"
     style="fill:#020000;fill-opacity:1;fill-rule:nonzero;stroke:none;stroke-width:0.352778"
     id="path6399" /><path
     d="m 171.64155,122.84922 0.12665,0.73872 c -0.23566,0.0511 -0.44486,0.0773 -0.63112,0.0787 -0.30304,0.003 -0.53869,-0.0441 -0.70697,-0.13935 -0.16792,-0.0949 -0.28645,-0.21907 -0.35525,-0.37324 -0.0691,-0.15734 -0.10618,-0.48648 -0.11042,-0.98813 l -0.0208,-2.83739 -0.61313,0.004 -0.004,-0.65052 0.61348,-0.004 -0.01,-1.22097 0.82832,-0.50835 0.0123,1.72261 0.84067,-0.006 0.004,0.65052 -0.84067,0.005 0.0219,2.88432 c 10e-4,0.23847 0.0166,0.39158 0.0455,0.46037 0.0318,0.0674 0.0801,0.12136 0.14499,0.16122 0.0688,0.0399 0.16369,0.0593 0.28786,0.0579 0.0938,-0.001 0.21485,-0.0123 0.36654,-0.036 z"
     style="fill:#020000;fill-opacity:1;fill-rule:nonzero;stroke:none;stroke-width:0.352778"
     id="path6401" /><path
     d="m 172.13473,121.12802 c -0.005,-0.91334 0.24271,-1.59138 0.74719,-2.03518 0.42157,-0.36935 0.93697,-0.55527 1.54728,-0.5595 0.67804,-0.006 1.23331,0.21343 1.66758,0.65581 0.43392,0.43956 0.65299,1.05163 0.65864,1.83445 0.006,0.635 -0.0868,1.13524 -0.27693,1.50177 -0.18592,0.36407 -0.46038,0.6477 -0.82409,0.85161 -0.36089,0.20426 -0.75671,0.30762 -1.18639,0.3115 -0.69039,0.004 -1.25131,-0.21202 -1.68275,-0.65158 -0.42722,-0.43956 -0.64347,-1.07633 -0.65053,-1.90888 z m 0.86008,-0.007 c 0.004,0.63112 0.14605,1.10384 0.42439,1.41781 0.27693,0.3115 0.62547,0.46461 1.04316,0.46179 0.41487,-0.003 0.75918,-0.16405 1.03223,-0.48084 0.2727,-0.31856 0.40781,-0.80081 0.40217,-1.44851 -0.004,-0.60889 -0.14711,-1.06926 -0.42828,-1.38077 -0.27728,-0.31397 -0.623,-0.46849 -1.03364,-0.46566 -0.4191,0.003 -0.76482,0.16263 -1.03752,0.4766 -0.27305,0.31432 -0.40675,0.78846 -0.40251,1.41958 z"
     style="fill:#020000;fill-opacity:1;fill-rule:nonzero;stroke:none;stroke-width:0.352778"
     id="path6403" /><path
     d="m 177.75448,123.55231 -0.037,-4.93219 0.74824,-0.006 0.005,0.69179 c 0.15311,-0.24235 0.35702,-0.43673 0.61348,-0.5842 0.25612,-0.15169 0.54681,-0.22718 0.8763,-0.23001 0.36513,-0.003 0.66429,0.0702 0.89712,0.22049 0.23707,0.15028 0.40358,0.36089 0.50165,0.63253 0.38594,-0.57891 0.89147,-0.8696 1.5173,-0.87524 0.48895,-0.003 0.86677,0.12982 1.13135,0.40111 0.266,0.2674 0.39935,0.68227 0.40358,1.24566 l 0.0261,3.38596 -0.83221,0.006 -0.0219,-3.10621 c -0.003,-0.33478 -0.0332,-0.57467 -0.0896,-0.71931 -0.054,-0.14887 -0.1517,-0.26741 -0.29493,-0.3556 -0.14358,-0.0882 -0.3115,-0.13229 -0.50306,-0.13088 -0.34607,0.003 -0.63394,0.12135 -0.86113,0.35419 -0.22754,0.23142 -0.33902,0.60078 -0.33514,1.10772 l 0.0208,2.86632 -0.83503,0.006 -0.025,-3.20392 c -0.002,-0.37219 -0.073,-0.65053 -0.2092,-0.83503 -0.13794,-0.18486 -0.36266,-0.27552 -0.67134,-0.27305 -0.23565,0.001 -0.45332,0.0649 -0.65299,0.19015 -0.19861,0.12559 -0.34043,0.30762 -0.42862,0.54716 -0.0882,0.23847 -0.13088,0.58314 -0.12665,1.03222 l 0.019,2.55905 z"
     style="fill:#020000;fill-opacity:1;fill-rule:nonzero;stroke:none;stroke-width:0.352778"
     id="path6405" /><path
     d="m 185.63836,117.64575 -0.007,-0.96026 0.83644,-0.007 0.007,0.96203 z m 0.0441,5.84729 -0.0374,-4.93218 0.83644,-0.006 0.036,4.93219 z"
     style="fill:#020000;fill-opacity:1;fill-rule:nonzero;stroke:none;stroke-width:0.352778"
     id="path6407" /><path
     d="m 190.996,121.64766 0.82267,0.10054 c -0.0854,0.56656 -0.31256,1.01283 -0.68192,1.33809 -0.36653,0.32103 -0.81879,0.48366 -1.35748,0.48789 -0.67522,0.006 -1.21956,-0.21096 -1.63584,-0.6477 -0.41204,-0.43956 -0.62018,-1.07068 -0.62688,-1.89477 -0.004,-0.53199 0.0811,-0.99907 0.25506,-1.40017 0.17356,-0.3997 0.43815,-0.70133 0.79622,-0.901 0.36124,-0.20426 0.75388,-0.30727 1.17686,-0.3115 0.53623,-0.004 0.97579,0.12947 1.31763,0.3997 0.3429,0.26564 0.56338,0.64875 0.66428,1.14652 l -0.81174,0.13088 c -0.0801,-0.3309 -0.22049,-0.5789 -0.4191,-0.74436 -0.19685,-0.1651 -0.43392,-0.248 -0.71226,-0.24518 -0.42192,0.003 -0.762,0.15699 -1.02412,0.4632 -0.26035,0.30162 -0.3884,0.77964 -0.38311,1.43298 0.004,0.66287 0.13511,1.1423 0.39158,1.44145 0.25612,0.29775 0.58843,0.44662 0.99625,0.44239 0.32949,-10e-4 0.60219,-0.10478 0.81985,-0.30727 0.21908,-0.2025 0.3556,-0.514 0.41205,-0.93169 z"
     style="fill:#020000;fill-opacity:1;fill-rule:nonzero;stroke:none;stroke-width:0.352778"
     id="path6409" /><path
     d="m 198.39339,121.59263 0.82268,0.10054 c -0.0854,0.56621 -0.31291,1.01282 -0.68227,1.33809 -0.36513,0.32102 -0.81845,0.48365 -1.35714,0.48789 -0.6738,0.005 -1.21955,-0.21096 -1.63442,-0.6477 -0.41204,-0.43956 -0.62159,-1.07068 -0.62688,-1.89477 -0.004,-0.53199 0.0797,-0.99907 0.25329,-1.39877 0.17392,-0.4011 0.43956,-0.70132 0.79798,-0.90275 0.35984,-0.20391 0.75248,-0.30727 1.17687,-0.31115 0.53622,-0.003 0.97437,0.12946 1.31727,0.39934 0.34184,0.26741 0.56374,0.64911 0.66287,1.14653 l -0.81139,0.13229 c -0.0801,-0.33055 -0.21942,-0.57997 -0.4191,-0.74542 -0.19579,-0.16545 -0.43391,-0.248 -0.71225,-0.24518 -0.42052,0.003 -0.76236,0.15699 -1.02271,0.46284 -0.26035,0.30198 -0.38841,0.78 -0.38452,1.43334 0.006,0.66287 0.13511,1.14229 0.39158,1.44145 0.25612,0.2988 0.58843,0.44626 0.99765,0.44238 0.32773,-0.001 0.60078,-0.10477 0.81986,-0.30762 0.21766,-0.20249 0.3556,-0.514 0.41063,-0.93133 z"
     style="fill:#020000;fill-opacity:1;fill-rule:nonzero;stroke:none;stroke-width:0.352778"
     id="path6411" /><path
     d="m 199.61436,120.92411 c -0.007,-0.91334 0.24235,-1.59138 0.74683,-2.03517 0.42157,-0.36936 0.93697,-0.55527 1.54763,-0.55951 0.67804,-0.006 1.23331,0.21343 1.66723,0.65582 0.43286,0.43956 0.65335,1.05163 0.65899,1.83409 0.005,0.63535 -0.0868,1.13559 -0.27728,1.50213 -0.18592,0.36406 -0.46003,0.6477 -0.82409,0.8516 -0.36089,0.20391 -0.75636,0.30727 -1.18781,0.3115 -0.69038,0.004 -1.24989,-0.21201 -1.68098,-0.65158 -0.42722,-0.43991 -0.64382,-1.07632 -0.65052,-1.90888 z m 0.85972,-0.007 c 0.004,0.63112 0.1464,1.10384 0.42333,1.41781 0.27834,0.3101 0.62547,0.46461 1.04457,0.46179 0.41452,-0.004 0.75777,-0.16404 1.03188,-0.48225 0.27305,-0.31714 0.40675,-0.79939 0.40252,-1.44709 -0.004,-0.61031 -0.14746,-1.07068 -0.42863,-1.38077 -0.27834,-0.31433 -0.62265,-0.46849 -1.03469,-0.46567 -0.41769,0.003 -0.76341,0.16122 -1.03646,0.4766 -0.2727,0.31433 -0.40782,0.78846 -0.40252,1.41958 z"
     style="fill:#020000;fill-opacity:1;fill-rule:nonzero;stroke:none;stroke-width:0.352778"
     id="path6413" /><path
     d="m 205.23411,123.34805 -0.0374,-4.93183 0.74824,-0.006 0.006,0.6918 c 0.15275,-0.24236 0.35701,-0.43815 0.61313,-0.58561 0.25505,-0.15029 0.54715,-0.22613 0.87524,-0.2286 0.36653,-0.003 0.66534,0.0702 0.89817,0.22048 0.23707,0.14993 0.40393,0.3609 0.50165,0.63253 0.38594,-0.5789 0.89182,-0.86959 1.5173,-0.87524 0.4893,-0.003 0.86677,0.12947 1.13135,0.40111 0.26459,0.26741 0.3997,0.68192 0.40394,1.24566 l 0.0247,3.38596 -0.83079,0.005 -0.0236,-3.10585 c -0.001,-0.33479 -0.0317,-0.57468 -0.0882,-0.71932 -0.0536,-0.14887 -0.15276,-0.2674 -0.29492,-0.3556 -0.14323,-0.0882 -0.31151,-0.13229 -0.50307,-0.13088 -0.34713,0.003 -0.63358,0.12136 -0.86113,0.35419 -0.22718,0.23142 -0.33902,0.60078 -0.33478,1.10772 l 0.0205,2.86632 -0.83644,0.006 -0.0233,-3.20393 c -0.003,-0.37218 -0.073,-0.65052 -0.21096,-0.83503 -0.13758,-0.18485 -0.36089,-0.27587 -0.66957,-0.27305 -0.23566,0.001 -0.45332,0.0649 -0.65476,0.19015 -0.19685,0.12559 -0.33902,0.30727 -0.42721,0.54716 -0.0882,0.23848 -0.13088,0.58279 -0.12665,1.03082 l 0.0194,2.55905 z"
     style="fill:#020000;fill-opacity:1;fill-rule:nonzero;stroke:none;stroke-width:0.352778"
     id="path6415" /><path
     d="m 213.15644,123.28878 -0.036,-4.93183 0.74683,-0.006 0.006,0.69179 c 0.1531,-0.24236 0.35701,-0.43674 0.61313,-0.5842 0.25647,-0.15169 0.54857,-0.22719 0.87665,-0.23001 0.36512,-0.003 0.66393,0.0716 0.89711,0.22049 0.23672,0.15028 0.40358,0.36089 0.50271,0.63394 0.38453,-0.57891 0.89041,-0.87101 1.51589,-0.87665 0.4893,-0.003 0.86677,0.13088 1.13136,0.4011 0.26599,0.26741 0.4011,0.68228 0.40534,1.24566 l 0.0247,3.38596 -0.83114,0.007 -0.0233,-3.10727 c -0.003,-0.33479 -0.0318,-0.57467 -0.0896,-0.71931 -0.0536,-0.14746 -0.1517,-0.266 -0.29492,-0.3556 -0.14323,-0.0882 -0.3101,-0.1323 -0.50307,-0.13088 -0.34572,0.003 -0.63358,0.12135 -0.86113,0.3556 -0.22718,0.23001 -0.33902,0.59937 -0.33478,1.10772 l 0.0205,2.86491 -0.83503,0.006 -0.0233,-3.20393 c -0.003,-0.37218 -0.073,-0.64911 -0.21096,-0.83361 -0.13758,-0.18627 -0.36089,-0.27693 -0.67098,-0.27446 -0.23566,10e-4 -0.45332,0.0649 -0.65335,0.19015 -0.19685,0.12558 -0.34043,0.30726 -0.42862,0.54715 -0.0882,0.23848 -0.12947,0.58315 -0.12665,1.03223 l 0.0194,2.55905 z"
     style="fill:#020000;fill-opacity:1;fill-rule:nonzero;stroke:none;stroke-width:0.352778"
     id="path6417" /><path
     d="m 221.03996,117.38399 -0.007,-0.96167 0.83643,-0.007 0.007,0.96203 z m 0.0441,5.84553 -0.037,-4.93184 0.83643,-0.006 0.037,4.93218 z"
     style="fill:#020000;fill-opacity:1;fill-rule:nonzero;stroke:none;stroke-width:0.352778"
     id="path6419" /><path
     d="m 225.01153,122.45376 0.127,0.7373 c -0.23459,0.0512 -0.4452,0.0773 -0.63147,0.0787 -0.30304,0.003 -0.53869,-0.0441 -0.70661,-0.13793 -0.16828,-0.0949 -0.28681,-0.22049 -0.3556,-0.37465 -0.0691,-0.15734 -0.10619,-0.48648 -0.11042,-0.98813 l -0.0205,-2.8374 -0.61348,0.004 -0.004,-0.64911 0.61312,-0.006 -0.01,-1.22096 0.82797,-0.50835 0.0123,1.72402 0.84067,-0.007 0.004,0.65052 -0.84067,0.007 0.0222,2.8829 c 10e-4,0.23848 0.0162,0.39264 0.0452,0.46038 0.0318,0.0674 0.0801,0.12135 0.14499,0.16121 0.0688,0.0399 0.1651,0.0593 0.28787,0.0579 0.0938,0 0.21484,-0.0123 0.36653,-0.0346 z"
     style="fill:#020000;fill-opacity:1;fill-rule:nonzero;stroke:none;stroke-width:0.352778"
     id="path6421" /><path
     d="m 225.4899,121.72492 0.82515,-0.13511 c 0.0497,0.3309 0.17921,0.58278 0.39158,0.75776 0.21484,0.17533 0.51259,0.2607 0.89288,0.25788 0.38453,-0.003 0.66851,-0.0815 0.85302,-0.23848 0.1845,-0.15839 0.27693,-0.3429 0.27552,-0.55386 -0.001,-0.18873 -0.0854,-0.3376 -0.24942,-0.44379 -0.11571,-0.0744 -0.40075,-0.16686 -0.85689,-0.27693 -0.6149,-0.15028 -1.0407,-0.28117 -1.28023,-0.39017 -0.23566,-0.11289 -0.41769,-0.26847 -0.54187,-0.46567 -0.12242,-0.19967 -0.1845,-0.42157 -0.18592,-0.66287 -0.003,-0.21907 0.0455,-0.42298 0.14323,-0.60889 0.1009,-0.19015 0.23707,-0.34749 0.40958,-0.47273 0.12947,-0.0967 0.30586,-0.1778 0.52775,-0.24518 0.22578,-0.0691 0.46708,-0.10477 0.72461,-0.10759 0.38594,-0.003 0.72637,0.0508 1.01847,0.1598 0.29492,0.10901 0.51258,0.25894 0.65334,0.4505 0.14041,0.18768 0.23813,0.44097 0.29351,0.75953 l -0.81738,0.11712 c -0.0385,-0.25364 -0.14887,-0.45085 -0.32914,-0.59125 -0.1778,-0.14182 -0.42863,-0.21096 -0.75389,-0.20814 -0.38453,0.003 -0.65723,0.0674 -0.81986,0.19579 -0.16404,0.12806 -0.24553,0.27834 -0.24412,0.44768 0.001,0.109 0.036,0.20531 0.10478,0.2921 0.0688,0.0896 0.17639,0.16263 0.32244,0.22048 0.0843,0.0303 0.3309,0.0995 0.74012,0.20814 0.59267,0.15311 1.00471,0.27975 1.23755,0.3803 0.23706,0.0981 0.42157,0.24271 0.55668,0.43285 0.1337,0.19156 0.2025,0.42863 0.20532,0.71367 10e-4,0.27835 -0.0787,0.54293 -0.2413,0.79128 -0.1584,0.2466 -0.39123,0.43815 -0.69709,0.57715 -0.3048,0.13511 -0.65193,0.2039 -1.03787,0.20673 -0.64065,0.006 -1.13136,-0.12383 -1.47179,-0.38841 -0.3362,-0.26317 -0.55245,-0.65617 -0.64876,-1.17969 z"
     style="fill:#020000;fill-opacity:1;fill-rule:nonzero;stroke:none;stroke-width:0.352778"
     id="path6423" /><path
     d="m 233.33074,123.13885 -0.0508,-6.80755 0.92463,-0.007 3.61597,5.31919 -0.0402,-5.34529 0.86431,-0.007 0.0494,6.80861 -0.92322,0.006 -3.61597,-5.32342 0.0399,5.35094 z"
     style="fill:#020000;fill-opacity:1;fill-rule:nonzero;stroke:none;stroke-width:0.352778"
     id="path6425" /><path
     d="m 239.90969,119.77512 c -0.008,-1.1303 0.28928,-2.01754 0.89147,-2.65995 0.60078,-0.64488 1.38218,-0.9712 2.3428,-0.97825 0.62829,-0.004 1.19591,0.14182 1.70321,0.43815 0.50553,0.29633 0.89288,0.71261 1.16028,1.24989 0.26988,0.5334 0.40782,1.14124 0.41346,1.82175 0.004,0.69038 -0.12982,1.30915 -0.40534,1.85631 -0.27411,0.54716 -0.66569,0.96309 -1.17405,1.24848 -0.50835,0.28258 -1.05974,0.42581 -1.651,0.43145 -0.64064,0.004 -1.2139,-0.14605 -1.7212,-0.45226 -0.50694,-0.30586 -0.89288,-0.72602 -1.15605,-1.25942 -0.26458,-0.5334 -0.39829,-1.09961 -0.40358,-1.69615 z m 0.92851,0.007 c 0.007,0.81985 0.23178,1.46473 0.67416,1.93604 0.44626,0.46743 1.00295,0.69886 1.66864,0.69321 0.67804,-0.005 1.23331,-0.248 1.66617,-0.72743 0.43674,-0.47977 0.65017,-1.15781 0.64488,-2.03411 -0.004,-0.55386 -0.10196,-1.03611 -0.29493,-1.4471 -0.18873,-0.4131 -0.4646,-0.73166 -0.82832,-0.95497 -0.36089,-0.22719 -0.76623,-0.33866 -1.21532,-0.33478 -0.63817,0.004 -1.18498,0.22895 -1.64394,0.67133 -0.45473,0.44098 -0.67804,1.17264 -0.67134,2.19781 z"
     style="fill:#020000;fill-opacity:1;fill-rule:nonzero;stroke:none;stroke-width:0.352778"
     id="path6427" /><path
     d="m 249.33944,123.02032 -0.0455,-6.00428 -2.24331,0.0166 -0.006,-0.80327 5.39645,-0.0402 0.007,0.80363 -2.25319,0.0166 0.0441,6.00392 z"
     style="fill:#020000;fill-opacity:1;fill-rule:nonzero;stroke:none;stroke-width:0.352778"
     id="path6429" /><path
     d="m 255.79421,124.86252 -0.0512,-6.82236 0.76235,-0.006 0.004,0.64065 c 0.1778,-0.25189 0.38029,-0.44098 0.60501,-0.56621 0.22472,-0.12806 0.49883,-0.19438 0.81985,-0.19579 0.42193,-0.004 0.79375,0.10195 1.1176,0.31714 0.32385,0.21343 0.56939,0.51788 0.7359,0.91334 0.16686,0.39159 0.25224,0.82268 0.25647,1.29399 0.003,0.50448 -0.084,0.96062 -0.26458,1.36702 -0.17639,0.40393 -0.43674,0.71543 -0.78282,0.93451 -0.34184,0.21625 -0.70273,0.32667 -1.08444,0.32914 -0.27834,0.001 -0.52916,-0.055 -0.75388,-0.17075 -0.22049,-0.11571 -0.40252,-0.26317 -0.54575,-0.44238 l 0.018,2.40206 z m 0.72496,-4.33387 c 0.005,0.63535 0.13618,1.10243 0.39547,1.40441 0.26035,0.30162 0.57185,0.4505 0.93697,0.44767 0.37219,-0.003 0.68757,-0.16122 0.94933,-0.47519 0.26317,-0.31856 0.39299,-0.80645 0.38876,-1.4665 -0.006,-0.62829 -0.13935,-1.09819 -0.40111,-1.40828 -0.25894,-0.31151 -0.56903,-0.46567 -0.92745,-0.46285 -0.35666,0.002 -0.67098,0.17216 -0.94368,0.50835 -0.27023,0.33338 -0.40252,0.81704 -0.39829,1.45239 z"
     style="fill:#020000;fill-opacity:1;fill-rule:nonzero;stroke:none;stroke-width:0.352778"
     id="path6431" /><path
     d="m 260.73981,120.46938 c -0.007,-0.91369 0.24271,-1.59138 0.74718,-2.03517 0.42157,-0.36795 0.93698,-0.55527 1.54728,-0.55951 0.67804,-0.004 1.23331,0.21343 1.66758,0.65723 0.43392,0.43815 0.65335,1.05022 0.65864,1.83409 0.006,0.63394 -0.0868,1.13559 -0.27693,1.50213 -0.18592,0.36371 -0.46038,0.6477 -0.82409,0.8516 -0.36089,0.20391 -0.75636,0.30727 -1.18639,0.31009 -0.69039,0.006 -1.2513,-0.21202 -1.68275,-0.65193 -0.42722,-0.43956 -0.64347,-1.07597 -0.65052,-1.90853 z m 0.86007,-0.007 c 0.004,0.63253 0.14605,1.10525 0.42298,1.41781 0.27834,0.31151 0.62724,0.46461 1.04457,0.46179 0.41487,-0.003 0.75918,-0.16263 1.03223,-0.48084 0.2727,-0.31855 0.4064,-0.8008 0.40252,-1.44709 -0.004,-0.61031 -0.14746,-1.07068 -0.42862,-1.38077 -0.27693,-0.31433 -0.62301,-0.4699 -1.03364,-0.46708 -0.41875,0.004 -0.76482,0.16263 -1.03752,0.4766 -0.27305,0.31574 -0.40817,0.78846 -0.40252,1.41958 z"
     style="fill:#020000;fill-opacity:1;fill-rule:nonzero;stroke:none;stroke-width:0.352778"
     id="path6433" /><path
     d="m 266.01383,121.42435 0.82656,-0.13617 c 0.0483,0.33055 0.17921,0.5842 0.39017,0.75918 0.21485,0.17498 0.514,0.26035 0.8943,0.25753 0.38311,-0.002 0.66851,-0.0825 0.85301,-0.23813 0.18451,-0.16016 0.27552,-0.34466 0.27411,-0.55562 -10e-4,-0.18874 -0.084,-0.3362 -0.24941,-0.44345 -0.11571,-0.073 -0.40076,-0.16545 -0.8569,-0.27728 -0.61348,-0.14993 -1.04069,-0.27975 -1.28023,-0.38982 -0.23566,-0.11289 -0.41628,-0.2674 -0.54151,-0.46425 -0.12277,-0.20144 -0.18486,-0.42193 -0.18627,-0.66287 -10e-4,-0.22049 0.0469,-0.42334 0.14323,-0.61066 0.1023,-0.18874 0.23847,-0.34572 0.41098,-0.47131 0.12947,-0.0963 0.30445,-0.17921 0.52776,-0.24518 0.22436,-0.0702 0.46566,-0.10619 0.72319,-0.1076 0.38735,-0.003 0.72637,0.0497 1.01847,0.15981 0.29492,0.10901 0.51259,0.25929 0.65335,0.44944 0.1404,0.18873 0.23847,0.44097 0.29351,0.75917 l -0.81598,0.11854 c -0.0399,-0.25365 -0.14887,-0.4505 -0.32914,-0.59267 -0.1778,-0.1404 -0.43004,-0.21061 -0.7553,-0.20779 -0.38311,0.002 -0.65722,0.0688 -0.81985,0.19685 -0.16263,0.12806 -0.24412,0.27694 -0.24271,0.44803 0,0.10725 0.036,0.20532 0.10477,0.29069 0.0677,0.0896 0.17498,0.16404 0.32103,0.22049 0.0843,0.0303 0.33091,0.10054 0.74013,0.20814 0.59266,0.15416 1.00612,0.28116 1.23895,0.3817 0.23566,0.0977 0.42157,0.24095 0.55528,0.43251 0.13511,0.19014 0.20249,0.42862 0.20531,0.71402 0.001,0.27834 -0.0787,0.54151 -0.23989,0.79093 -0.15981,0.24518 -0.39264,0.43815 -0.69709,0.57608 -0.30585,0.13512 -0.65193,0.20532 -1.03928,0.20814 -0.64064,0.004 -1.13136,-0.12559 -1.47038,-0.38876 -0.33619,-0.26458 -0.55245,-0.65722 -0.65017,-1.17969 z"
     style="fill:#020000;fill-opacity:1;fill-rule:nonzero;stroke:none;stroke-width:0.352778"
     id="path6435" /><path
     d="m 270.76928,121.38872 0.82691,-0.13652 c 0.0483,0.33196 0.17921,0.5842 0.38982,0.75917 0.21519,0.17498 0.514,0.26071 0.89464,0.25789 0.38277,-0.003 0.66816,-0.0815 0.85302,-0.23848 0.1845,-0.1584 0.27552,-0.34431 0.27411,-0.55386 -0.001,-0.18874 -0.084,-0.33761 -0.24942,-0.44521 -0.11571,-0.073 -0.4011,-0.16545 -0.85725,-0.27693 -0.61312,-0.15028 -1.04034,-0.27975 -1.28023,-0.38876 -0.23565,-0.11289 -0.41592,-0.26846 -0.54151,-0.46567 -0.12277,-0.19967 -0.1845,-0.42157 -0.18591,-0.66287 -10e-4,-0.21907 0.0469,-0.42298 0.14322,-0.60889 0.10196,-0.1905 0.23848,-0.34749 0.41064,-0.47272 0.12947,-0.0967 0.30444,-0.1778 0.52775,-0.24554 0.22472,-0.0702 0.46567,-0.10583 0.72355,-0.10724 0.38735,-0.003 0.72602,0.0508 1.01847,0.15981 0.29492,0.10865 0.51259,0.25894 0.65299,0.45049 0.14076,0.18733 0.23848,0.44098 0.29351,0.75918 l -0.81562,0.11748 c -0.0402,-0.25365 -0.14887,-0.45085 -0.32949,-0.59267 -0.1778,-0.14076 -0.43004,-0.20955 -0.75495,-0.20673 -0.38312,0.003 -0.65758,0.0674 -0.82021,0.19579 -0.16263,0.12806 -0.24377,0.27693 -0.24236,0.44768 0,0.10901 0.0356,0.20532 0.10337,0.2921 0.0688,0.0896 0.17639,0.16263 0.32244,0.22049 0.084,0.0303 0.33055,0.0995 0.73977,0.20813 0.59267,0.15311 1.00612,0.27976 1.23896,0.3803 0.23565,0.0981 0.42192,0.2413 0.55527,0.43286 0.13511,0.19156 0.20285,0.42862 0.20532,0.71367 0.001,0.27834 -0.0783,0.54292 -0.23954,0.79092 -0.15981,0.24695 -0.39299,0.43851 -0.69744,0.5775 -0.30586,0.13512 -0.65158,0.20391 -1.03893,0.20673 -0.641,0.006 -1.13136,-0.12383 -1.47038,-0.38841 -0.3362,-0.26352 -0.5528,-0.65758 -0.65052,-1.17969 z"
     style="fill:#020000;fill-opacity:1;fill-rule:nonzero;stroke:none;stroke-width:0.352778"
     id="path6437" /><path
     d="m 275.83234,116.97618 -0.007,-0.96062 0.83502,-0.007 0.007,0.96167 z m 0.0427,5.84694 -0.036,-4.93184 0.83502,-0.006 0.0374,4.93218 z"
     style="fill:#020000;fill-opacity:1;fill-rule:nonzero;stroke:none;stroke-width:0.352778"
     id="path6439" /><path
     d="m 278.75511,122.80266 -0.77576,0.005 -0.0512,-6.80897 0.83643,-0.005 0.018,2.42817 c 0.34996,-0.4452 0.79799,-0.66992 1.3462,-0.67416 0.30339,-0.002 0.58985,0.0582 0.86149,0.17921 0.2727,0.11854 0.49741,0.28963 0.67239,0.51118 0.1778,0.21802 0.3168,0.48401 0.4191,0.79516 0.10054,0.3115 0.15276,0.64629 0.15558,1.00189 0.007,0.84631 -0.19721,1.50072 -0.61172,1.96532 -0.41487,0.46426 -0.9151,0.6985 -1.4993,0.70274 -0.58315,0.004 -1.04211,-0.23566 -1.3769,-0.71932 z m -0.0275,-2.50402 c 0.004,0.59125 0.0882,1.01847 0.25083,1.28023 0.26599,0.42862 0.62406,0.64064 1.07209,0.63782 0.36653,-0.002 0.68051,-0.16369 0.94403,-0.48083 0.26458,-0.32103 0.39405,-0.79658 0.38982,-1.42487 -0.006,-0.64347 -0.13794,-1.1176 -0.39687,-1.42205 -0.25647,-0.30445 -0.56515,-0.45614 -0.92746,-0.45332 -0.36512,0.002 -0.67945,0.1651 -0.94403,0.48507 -0.26317,0.3182 -0.39405,0.77717 -0.38841,1.37795 z"
     style="fill:#020000;fill-opacity:1;fill-rule:nonzero;stroke:none;stroke-width:0.352778"
     id="path6441" /><path
     d="m 283.25444,122.76808 -0.0497,-6.80755 0.83503,-0.007 0.0512,6.80861 z"
     style="fill:#020000;fill-opacity:1;fill-rule:nonzero;stroke:none;stroke-width:0.352778"
     id="path6443" /><path
     d="m 288.75142,121.13931 0.86395,0.10054 c -0.13229,0.50553 -0.3817,0.89852 -0.74824,1.1811 -0.36654,0.28081 -0.83503,0.42298 -1.40829,0.42827 -0.72214,0.004 -1.2954,-0.21202 -1.72402,-0.65158 -0.4244,-0.44238 -0.63924,-1.06539 -0.64488,-1.86725 -0.007,-0.82973 0.20249,-1.47461 0.62688,-1.9364 0.42299,-0.46143 0.97579,-0.69427 1.65665,-0.69991 0.66005,-0.006 1.20015,0.21484 1.62172,0.66146 0.42192,0.4452 0.63535,1.07632 0.641,1.89053 0,0.0483 -10e-4,0.12277 -0.003,0.2219 l -3.67947,0.0275 c 0.036,0.54187 0.19156,0.95532 0.4699,1.24178 0.27693,0.28539 0.6216,0.42721 1.03364,0.42439 0.30727,-0.003 0.56762,-0.0854 0.78387,-0.248 0.2152,-0.16264 0.38453,-0.42016 0.50871,-0.77435 z m -2.75484,-1.33139 2.75343,-0.0205 c -0.0399,-0.41486 -0.14746,-0.72495 -0.32244,-0.93027 -0.26882,-0.32103 -0.61454,-0.47943 -1.03893,-0.47555 -0.38453,0.003 -0.70697,0.13371 -0.96767,0.393 -0.25894,0.25894 -0.39935,0.6036 -0.42439,1.03328 z"
     style="fill:#020000;fill-opacity:1;fill-rule:nonzero;stroke:none;stroke-width:0.352778"
     id="path6445" /></svg>
