<?xml version="1.0" encoding="UTF-8"?>
<svg width="654.11mm" height="781.38mm" version="1.1" viewBox="0 0 654.11 781.38" xmlns="http://www.w3.org/2000/svg" xmlns:xlink="http://www.w3.org/1999/xlink"><defs><linearGradient id="a"><stop stop-color="#00c800" offset="0"/><stop stop-color="#0000ff" offset="1"/></linearGradient><linearGradient id="b"><stop stop-color="#0000ff" offset="0"/><stop stop-color="#ff0001" offset="1"/></linearGradient><linearGradient id="f" x1="197.01" x2="197.01" y1="187.61" y2="141.78" gradientTransform="matrix(1 0 0 1.2207 -695.38 -723.75)" gradientUnits="userSpaceOnUse" xlink:href="#b"/><linearGradient id="e" x1="197.01" x2="197.01" y1="187.61" y2="141.78" gradientTransform="matrix(1 0 0 2.4773 -695.38 -663.22)" gradientUnits="userSpaceOnUse" xlink:href="#b"/><linearGradient id="d" x1="197.01" x2="197.01" y1="187.61" y2="141.78" gradientTransform="matrix(1 0 0 1.2207 -189.3 -723.75)" gradientUnits="userSpaceOnUse" xlink:href="#a"/><linearGradient id="c" x1="197.01" x2="197.01" y1="187.61" y2="141.78" gradientTransform="matrix(1 0 0 2.4773 -189.3 -663.22)" gradientUnits="userSpaceOnUse" xlink:href="#a"/></defs><g transform="translate(-118.17 -26.346)"><g transform="translate(0 270.15)"><g stroke-linejoin="round"><rect transform="matrix(0,-1,-1,0,0,0)" x="7.7068" y="-510.08" width="16.447" height="45.828" fill="#00c800" stroke-width=".90077"/><path d="m488.85-62.036a25.005 25.005 0 0 1 0.86286 6.4864l0.0727 79.082a25.005 25.005 0 0 1-24.98 25.026l-119.07 0.10938a25.005 25.005 0 0 1-24.163-18.493z" fill="#0000ff" stroke-width="1.6576"/><circle transform="matrix(0,-1,-1,0,0,0)" cx="15.826" cy="-345.37" r="21.268" fill="#0000ff"/></g><g transform="matrix(0 -1 -1 0 514.02 1376.2)" fill="#00c800"><rect x="1383.9" y="281.41" width="16.447" height="48.863"/><rect x="1385.2" y="343.51" width="13.859" height="13.859"/><rect x="1386.8" y="368.05" width="10.709" height="10.709"/><rect x="1388.4" y="388.28" width="7.5595" height="7.5595"/></g><g stroke-linejoin="round"><rect transform="matrix(0,-1,-1,0,0,0)" x="7.7068" y="-578.98" width="16.447" height="45.828" fill="#0000ff" stroke-width=".90077"/><rect transform="matrix(0,-1,-1,0,0,0)" x="7.7068" y="-351.74" width="16.447" height="127.61" fill="#0000ff" stroke-width="1.5031"/><rect transform="matrix(0,-1,-1,0,0,0)" x="7.7068" y="-550.68" width="16.447" height="55.944" fill="url(#d)" stroke-width=".99524"/><rect transform="matrix(0,-1,-1,0,0,0)" x="7.7068" y="-311.99" width="16.447" height="113.53" fill="url(#c)" stroke-width="1.4178"/><path d="m716.15-62.036a25.005 25.005 0 0 1 0.86286 6.4864l0.0727 79.082a25.005 25.005 0 0 1-24.98 25.026l-119.07 0.10938a25.005 25.005 0 0 1-24.163-18.493z" fill="#0000ff" stroke-width="1.6576"/></g><g transform="matrix(0 -1 -1 0 1011.9 189.3)" fill="#00c800" stroke-linejoin="round"><path d="m256.86 297.94a25.005 25.005 0 0 0-5.5242-2.2245l-92.21 167.28a25.005 25.005 0 0 0 6.4864 0.86286l27.518 0.0252a27.062 27.062 0 0 1-15.017-24.258 27.062 27.062 0 0 1 27.087-27.038 27.062 27.062 0 0 1 27.038 27.087 27.062 27.062 0 0 1-15.062 24.231l27.518 0.0253a25.005 25.005 0 0 0 25.026-24.98l0.10939-119.07a25.005 25.005 0 0 0-12.969-21.938z" stroke-width="1.6576"/><path d="m256.86 297.94a25.005 25.005 0 0 0-12.011-3.0874l-70.205-0.0645a68.194 68.194 0 0 0 30.586 84.568 68.194 68.194 0 0 0 64.543 0.69693l0.0553-60.175a25.005 25.005 0 0 0-12.969-21.938z" stroke-width="1.623"/></g><path d="m632.55-15.865a68.194 68.194 0 0 1 0.66098 64.478l-60.175 0.0553a25.005 25.005 0 0 1-25.026-24.98l-0.0252-27.518a27.062 27.062 0 0 0 24.258 15.017 27.062 27.062 0 0 0 27.038-27.087 27.062 27.062 0 0 0-27.087-27.038 27.062 27.062 0 0 0-24.231 15.062l-0.0171-18.64a68.194 68.194 0 0 1 84.568 30.586 68.194 68.194 0 0 1 0.036 0.0652z" fill="#0000ff" stroke-linejoin="round" stroke-width="1.623"/><circle transform="matrix(0,-1,-1,0,0,0)" cx="15.826" cy="-572.67" r="21.268" fill="#0000ff" stroke-linejoin="round"/><g transform="matrix(0 -1 -1 0 785.09 188.77)" fill="#00c800" stroke-linejoin="round"><path d="m256.86 297.94a25.005 25.005 0 0 0-5.5242-2.2245l-92.21 167.28a25.005 25.005 0 0 0 6.4864 0.86286l27.518 0.0252a27.062 27.062 0 0 1-15.017-24.258 27.062 27.062 0 0 1 27.087-27.038 27.062 27.062 0 0 1 27.038 27.087 27.062 27.062 0 0 1-15.062 24.231l27.518 0.0253a25.005 25.005 0 0 0 25.026-24.98l0.10939-119.07a25.005 25.005 0 0 0-12.969-21.938z" stroke-width="1.6576"/><path d="m256.86 297.94a25.005 25.005 0 0 0-12.011-3.0874l-70.205-0.0645a68.194 68.194 0 0 0 30.586 84.568 68.194 68.194 0 0 0 64.543 0.69693l0.0553-60.175a25.005 25.005 0 0 0-12.969-21.938z" stroke-width="1.623"/></g><path d="m405.77-15.865a68.194 68.194 0 0 1 0.66098 64.478l-60.175 0.0553a25.005 25.005 0 0 1-25.026-24.98l-0.0252-27.518a27.062 27.062 0 0 0 24.258 15.017 27.062 27.062 0 0 0 27.038-27.087 27.062 27.062 0 0 0-27.087-27.038 27.062 27.062 0 0 0-24.231 15.062l-0.0171-18.64a68.194 68.194 0 0 1 84.568 30.586 68.194 68.194 0 0 1 0.036 0.0652z" fill="#0000ff" stroke-linejoin="round" stroke-width="1.623"/></g><g transform="matrix(0 -1 -1 0 514.02 2135.3)" fill="#ff0000"><rect x="1383.9" y="281.41" width="16.447" height="48.863"/><rect x="1385.2" y="343.51" width="13.859" height="13.859"/><rect x="1386.8" y="368.05" width="10.709" height="10.709"/><rect x="1388.4" y="388.28" width="7.5595" height="7.5595"/></g><path d="m387.31 782.73a25.002 25.002 0 0 1-25 25h-119.06a25.002 25.002 0 0 1-25-25v-27.515a27.06 27.06 0 0 0 24.242 15.038 27.06 27.06 0 0 0 27.06-27.06 27.06 27.06 0 0 0-27.06-27.06 27.06 27.06 0 0 0-24.242 15.038v-27.515a25.002 25.002 0 0 1 25-25h119.06a25.002 25.002 0 0 1 25 25z" color="#000000" color-rendering="auto" dominant-baseline="auto" fill="#fe0000" image-rendering="auto" shape-rendering="auto" solid-color="#000000" stop-color="#000000" style="font-feature-settings:normal;font-variant-alternates:normal;font-variant-caps:normal;font-variant-east-asian:normal;font-variant-ligatures:normal;font-variant-numeric:normal;font-variant-position:normal;font-variation-settings:normal;inline-size:0;isolation:auto;mix-blend-mode:normal;shape-margin:0;shape-padding:0;text-decoration-color:#000000;text-decoration-line:none;text-decoration-style:solid;text-indent:0;text-orientation:mixed;text-transform:none;white-space:normal"/><circle transform="matrix(0,-1,-1,0,0,0)" cx="-743.19" cy="-243.14" r="21.268" fill="#ff0001" stroke-linejoin="round"/><path d="m579.8 782.73a25.002 25.002 0 0 1-25 25h-119.06a25.002 25.002 0 0 1-25-25v-27.515a27.06 27.06 0 0 0 24.242 15.038 27.06 27.06 0 0 0 27.06-27.06 27.06 27.06 0 0 0-27.06-27.06 27.06 27.06 0 0 0-24.242 15.038v-27.515a25.002 25.002 0 0 1 25-25h119.06a25.002 25.002 0 0 1 25 25z" color="#000000" color-rendering="auto" dominant-baseline="auto" fill="#fe0000" image-rendering="auto" shape-rendering="auto" solid-color="#000000" stop-color="#000000" style="font-feature-settings:normal;font-variant-alternates:normal;font-variant-caps:normal;font-variant-east-asian:normal;font-variant-ligatures:normal;font-variant-numeric:normal;font-variant-position:normal;font-variation-settings:normal;inline-size:0;isolation:auto;mix-blend-mode:normal;shape-margin:0;shape-padding:0;text-decoration-color:#000000;text-decoration-line:none;text-decoration-style:solid;text-indent:0;text-orientation:mixed;text-transform:none;white-space:normal"/><circle transform="matrix(0,-1,-1,0,0,0)" cx="-743.19" cy="-435.63" r="21.268" fill="#ff0001" stroke-linejoin="round"/><rect transform="matrix(0,-1,-1,0,0,0)" x="-751.41" y="-436.48" width="16.447" height="127.61" fill="#ff0001" stroke-linejoin="round" stroke-width="1.5031"/><path d="m772.29 782.73a25.002 25.002 0 0 1-25 25h-119.06a25.002 25.002 0 0 1-25-25v-27.515a27.06 27.06 0 0 0 24.242 15.038 27.06 27.06 0 0 0 27.06-27.06 27.06 27.06 0 0 0-27.06-27.06 27.06 27.06 0 0 0-24.242 15.038v-27.515a25.002 25.002 0 0 1 25-25h119.06a25.002 25.002 0 0 1 25 25z" color="#000000" color-rendering="auto" dominant-baseline="auto" fill="#fe0000" image-rendering="auto" shape-rendering="auto" solid-color="#000000" stop-color="#000000" style="font-feature-settings:normal;font-variant-alternates:normal;font-variant-caps:normal;font-variant-east-asian:normal;font-variant-ligatures:normal;font-variant-numeric:normal;font-variant-position:normal;font-variation-settings:normal;inline-size:0;isolation:auto;mix-blend-mode:normal;shape-margin:0;shape-padding:0;text-decoration-color:#000000;text-decoration-line:none;text-decoration-style:solid;text-indent:0;text-orientation:mixed;text-transform:none;white-space:normal"/><circle transform="matrix(0,-1,-1,0,0,0)" cx="-743.19" cy="-628.12" r="21.268" fill="#ff0001" stroke-linejoin="round"/><rect transform="matrix(0,-1,-1,0,0,0)" x="-751.41" y="-628.97" width="16.447" height="127.61" fill="#ff0001" stroke-linejoin="round" stroke-width="1.5031"/><g transform="translate(0 179.93)" fill="#0000ff"><g transform="matrix(0 -1 -1 0 514.02 1629.2)"><rect x="1383.9" y="281.41" width="16.447" height="48.863"/><rect x="1385.2" y="343.51" width="13.859" height="13.859"/><rect x="1386.8" y="368.05" width="10.709" height="10.709"/><rect x="1388.4" y="388.28" width="7.5595" height="7.5595"/></g><path d="m387.31 276.65a25.002 25.002 0 0 1-25 25h-119.06a25.002 25.002 0 0 1-25-25v-27.515a27.06 27.06 0 0 0 24.242 15.038 27.06 27.06 0 0 0 27.06-27.06 27.06 27.06 0 0 0-27.06-27.06 27.06 27.06 0 0 0-24.242 15.038v-27.515a25.002 25.002 0 0 1 25-25h119.06a25.002 25.002 0 0 1 25 25z" color="#000000" color-rendering="auto" dominant-baseline="auto" image-rendering="auto" shape-rendering="auto" solid-color="#000000" stop-color="#000000" style="font-feature-settings:normal;font-variant-alternates:normal;font-variant-caps:normal;font-variant-east-asian:normal;font-variant-ligatures:normal;font-variant-numeric:normal;font-variant-position:normal;font-variation-settings:normal;inline-size:0;isolation:auto;mix-blend-mode:normal;shape-margin:0;shape-padding:0;text-decoration-color:#000000;text-decoration-line:none;text-decoration-style:solid;text-indent:0;text-orientation:mixed;text-transform:none;white-space:normal"/><g stroke-linejoin="round"><circle transform="matrix(0,-1,-1,0,0,0)" cx="-237.11" cy="-243.14" r="21.268"/><circle transform="matrix(0,-1,-1,0,0,0)" cx="-237.11" cy="-435.63" r="21.268"/><rect transform="matrix(0,-1,-1,0,0,0)" x="-245.33" y="-436.48" width="16.447" height="127.61" stroke-width="1.5031"/></g><path d="m579.8 276.65a25.002 25.002 0 0 1-25 25h-119.06a25.002 25.002 0 0 1-25-25v-27.515a27.06 27.06 0 0 0 24.242 15.038 27.06 27.06 0 0 0 27.06-27.06 27.06 27.06 0 0 0-27.06-27.06 27.06 27.06 0 0 0-24.242 15.038v-27.515a25.002 25.002 0 0 1 25-25h119.06a25.002 25.002 0 0 1 25 25z" color="#000000" color-rendering="auto" dominant-baseline="auto" image-rendering="auto" shape-rendering="auto" solid-color="#000000" stop-color="#000000" style="font-feature-settings:normal;font-variant-alternates:normal;font-variant-caps:normal;font-variant-east-asian:normal;font-variant-ligatures:normal;font-variant-numeric:normal;font-variant-position:normal;font-variation-settings:normal;inline-size:0;isolation:auto;mix-blend-mode:normal;shape-margin:0;shape-padding:0;text-decoration-color:#000000;text-decoration-line:none;text-decoration-style:solid;text-indent:0;text-orientation:mixed;text-transform:none;white-space:normal"/><circle transform="matrix(0,-1,-1,0,0,0)" cx="-237.11" cy="-628.12" r="21.268" stroke-linejoin="round"/><rect transform="matrix(0,-1,-1,0,0,0)" x="-245.33" y="-628.97" width="16.447" height="127.61" stroke-linejoin="round" stroke-width="1.5031"/><path d="m772.29 276.65a25.002 25.002 0 0 1-25 25h-119.06a25.002 25.002 0 0 1-25-25v-27.515a27.06 27.06 0 0 0 24.242 15.038 27.06 27.06 0 0 0 27.06-27.06 27.06 27.06 0 0 0-27.06-27.06 27.06 27.06 0 0 0-24.242 15.038v-27.515a25.002 25.002 0 0 1 25-25h119.06a25.002 25.002 0 0 1 25 25z" color="#000000" color-rendering="auto" dominant-baseline="auto" image-rendering="auto" shape-rendering="auto" solid-color="#000000" stop-color="#000000" style="font-feature-settings:normal;font-variant-alternates:normal;font-variant-caps:normal;font-variant-east-asian:normal;font-variant-ligatures:normal;font-variant-numeric:normal;font-variant-position:normal;font-variation-settings:normal;inline-size:0;isolation:auto;mix-blend-mode:normal;shape-margin:0;shape-padding:0;text-decoration-color:#000000;text-decoration-line:none;text-decoration-style:solid;text-indent:0;text-orientation:mixed;text-transform:none;white-space:normal"/></g><g stroke-linejoin="round" stroke-width="1.973"><rect transform="matrix(-.82584 -.5639 -.5639 .82584 0 0)" x="-685.37" y="68.618" width="16.447" height="219.87" fill="#0000ff"/><rect transform="matrix(-.82584 -.5639 -.5639 .82584 0 0)" x="-847.98" y="-79.206" width="16.447" height="219.87" fill="#0000ff"/><rect transform="matrix(-.82584 -.5639 -.5639 .82584 0 0)" x="-670.28" y="236.86" width="16.447" height="219.87" fill="#ff0000"/><rect transform="matrix(-.7738 .63343 .63343 .7738 0 0)" x="18.596" y="527.87" width="16.447" height="219.87" fill="#0000ff"/><rect transform="matrix(-.82584 -.5639 -.5639 .82584 0 0)" x="-845.63" y="127.47" width="16.447" height="219.87" fill="#ff0000"/></g><g transform="translate(0 89.963)"><g transform="matrix(0 -1 -1 0 514.02 1882.3)" fill="#0000ff"><rect x="1383.9" y="281.41" width="16.447" height="48.863"/><rect x="1385.2" y="343.51" width="13.859" height="13.859"/><rect x="1386.8" y="368.05" width="10.709" height="10.709"/><rect x="1388.4" y="388.28" width="7.5595" height="7.5595"/></g><g stroke-linejoin="round"><rect transform="matrix(0,-1,-1,0,0,0)" x="-498.37" y="-578.98" width="16.447" height="45.828" fill="#ff0001" stroke-width=".90077"/><rect transform="matrix(0,-1,-1,0,0,0)" x="-498.37" y="-510.08" width="16.447" height="45.828" fill="#0000ff" stroke-width=".90077"/><rect transform="matrix(0,-1,-1,0,0,0)" x="-498.37" y="-351.74" width="16.447" height="127.61" fill="#ff0001" stroke-width="1.5031"/></g><g transform="matrix(0 -1 -1 0 1011.9 695.38)" stroke-linejoin="round"><path d="m251.34 295.72a25.005 25.005 0 0 0-6.4864-0.86286l-79.082-0.0727a25.005 25.005 0 0 0-25.026 24.98l-0.10938 119.07a25.005 25.005 0 0 0 18.493 24.163z" fill="#ff0000" stroke-width="1.6576"/><g fill="#0000ff"><path d="m256.86 297.94a25.005 25.005 0 0 0-5.5242-2.2245l-92.21 167.28a25.005 25.005 0 0 0 6.4864 0.86286l27.518 0.0252a27.062 27.062 0 0 1-15.017-24.258 27.062 27.062 0 0 1 27.087-27.038 27.062 27.062 0 0 1 27.038 27.087 27.062 27.062 0 0 1-15.062 24.231l27.518 0.0253a25.005 25.005 0 0 0 25.026-24.98l0.10939-119.07a25.005 25.005 0 0 0-12.969-21.938z" stroke-width="1.6576"/><path d="m256.86 297.94a25.005 25.005 0 0 0-12.011-3.0874l-70.205-0.0645a68.194 68.194 0 0 0 30.586 84.568 68.194 68.194 0 0 0 64.543 0.69693l0.0553-60.175a25.005 25.005 0 0 0-12.969-21.938z" stroke-width="1.623"/></g><path d="m205.17 379.32a68.194 68.194 0 0 0-64.478-0.66098l-0.0553 60.175a25.005 25.005 0 0 0 24.98 25.026l27.518 0.0252a27.062 27.062 0 0 1-15.017-24.258 27.062 27.062 0 0 1 27.087-27.038 27.062 27.062 0 0 1 27.038 27.087 27.062 27.062 0 0 1-15.062 24.231l18.64 0.0171a68.194 68.194 0 0 0-30.586-84.568 68.194 68.194 0 0 0-0.0652-0.036z" fill="#ff0000" stroke-width="1.623"/><circle cx="205.13" cy="439.2" r="21.268" fill="#ff0001"/></g><g stroke-linejoin="round"><rect transform="matrix(0,-1,-1,0,0,0)" x="-498.37" y="-550.68" width="16.447" height="55.944" fill="url(#f)" stroke-width=".99524"/><rect transform="matrix(0,-1,-1,0,0,0)" x="-498.37" y="-311.99" width="16.447" height="113.53" fill="url(#e)" stroke-width="1.4178"/><path d="m488.85 444.04a25.005 25.005 0 0 1 0.86286 6.4864l0.0727 79.082a25.005 25.005 0 0 1-24.98 25.026l-119.07 0.10938a25.005 25.005 0 0 1-24.163-18.493z" fill="#ff0000" stroke-width="1.6576"/><g transform="matrix(0 -1 -1 0 785.09 695.38)" fill="#0000ff"><path d="m256.86 297.94a25.005 25.005 0 0 0-5.5242-2.2245l-92.21 167.28a25.005 25.005 0 0 0 6.4864 0.86286l27.518 0.0252a27.062 27.062 0 0 1-15.017-24.258 27.062 27.062 0 0 1 27.087-27.038 27.062 27.062 0 0 1 27.038 27.087 27.062 27.062 0 0 1-15.062 24.231l27.518 0.0253a25.005 25.005 0 0 0 25.026-24.98l0.10939-119.07a25.005 25.005 0 0 0-12.969-21.938z" stroke-width="1.6576"/><path d="m256.86 297.94a25.005 25.005 0 0 0-12.011-3.0874l-70.205-0.0645a68.194 68.194 0 0 0 30.586 84.568 68.194 68.194 0 0 0 64.543 0.69693l0.0553-60.175a25.005 25.005 0 0 0-12.969-21.938z" stroke-width="1.623"/></g><path d="m405.77 490.21a68.194 68.194 0 0 1 0.66098 64.478l-60.175 0.0553a25.005 25.005 0 0 1-25.026-24.98l-0.0252-27.518a27.062 27.062 0 0 0 24.258 15.017 27.062 27.062 0 0 0 27.038-27.087 27.062 27.062 0 0 0-27.087-27.038 27.062 27.062 0 0 0-24.231 15.062l-0.0171-18.64a68.194 68.194 0 0 1 84.568 30.586 68.194 68.194 0 0 1 0.036 0.0652z" fill="#ff0000" stroke-width="1.623"/><circle transform="matrix(0,-1,-1,0,0,0)" cx="-490.25" cy="-345.37" r="21.268" fill="#ff0001"/></g></g><g stroke-linejoin="round" stroke-width="1.973"><rect transform="matrix(-.7738 .63343 .63343 .7738 0 0)" x="-84.839" y="838.92" width="16.447" height="219.87" fill="#ff0000"/><rect transform="matrix(-.82584 -.5639 -.5639 .82584 0 0)" x="-663.34" y="-390.03" width="16.447" height="219.87" fill="#00c800"/><rect transform="matrix(-.7738 .63343 .63343 .7738 0 0)" x="-185.63" y="248.4" width="16.447" height="219.87" fill="#00c800"/><rect transform="matrix(-.82584 -.5639 -.5639 .82584 0 0)" x="-673.13" y="-110.01" width="16.447" height="219.87" fill="#0000ff"/><rect transform="matrix(-.7738 .63343 .63343 .7738 0 0)" x="-311.5" y="608.49" width="16.447" height="219.87" fill="#0000ff"/></g><g transform="translate(0 359.85)" fill="#00c800"><g transform="matrix(0 -1 -1 0 514.02 1123.2)"><rect x="1383.9" y="281.41" width="16.447" height="48.863"/><rect x="1385.2" y="343.51" width="13.859" height="13.859"/><rect x="1386.8" y="368.05" width="10.709" height="10.709"/><rect x="1388.4" y="388.28" width="7.5595" height="7.5595"/></g><g stroke-linejoin="round"><circle transform="matrix(0,-1,-1,0,0,0)" cx="268.97" cy="-243.14" r="21.268"/><circle transform="matrix(0,-1,-1,0,0,0)" cx="268.97" cy="-435.63" r="21.268"/><rect transform="matrix(0,-1,-1,0,0,0)" x="260.75" y="-436.48" width="16.447" height="127.61" stroke-width="1.5031"/></g><path d="m579.8-229.43a25.002 25.002 0 0 1-25 25h-119.06a25.002 25.002 0 0 1-25-25v-27.515a27.06 27.06 0 0 0 24.242 15.038 27.06 27.06 0 0 0 27.06-27.06 27.06 27.06 0 0 0-27.06-27.06 27.06 27.06 0 0 0-24.242 15.038v-27.515a25.002 25.002 0 0 1 25-25h119.06a25.002 25.002 0 0 1 25 25z" color="#000000" color-rendering="auto" dominant-baseline="auto" image-rendering="auto" shape-rendering="auto" solid-color="#000000" stop-color="#000000" style="font-feature-settings:normal;font-variant-alternates:normal;font-variant-caps:normal;font-variant-east-asian:normal;font-variant-ligatures:normal;font-variant-numeric:normal;font-variant-position:normal;font-variation-settings:normal;inline-size:0;isolation:auto;mix-blend-mode:normal;shape-margin:0;shape-padding:0;text-decoration-color:#000000;text-decoration-line:none;text-decoration-style:solid;text-indent:0;text-orientation:mixed;text-transform:none;white-space:normal"/><circle transform="matrix(0,-1,-1,0,0,0)" cx="268.97" cy="-628.12" r="21.268" stroke-linejoin="round"/><rect transform="matrix(0,-1,-1,0,0,0)" x="260.75" y="-628.97" width="16.447" height="127.61" stroke-linejoin="round" stroke-width="1.5031"/><path d="m772.29-229.43a25.002 25.002 0 0 1-25 25h-119.06a25.002 25.002 0 0 1-25-25v-27.515a27.06 27.06 0 0 0 24.242 15.038 27.06 27.06 0 0 0 27.06-27.06 27.06 27.06 0 0 0-27.06-27.06 27.06 27.06 0 0 0-24.242 15.038v-27.515a25.002 25.002 0 0 1 25-25h119.06a25.002 25.002 0 0 1 25 25z" color="#000000" color-rendering="auto" dominant-baseline="auto" image-rendering="auto" shape-rendering="auto" solid-color="#000000" stop-color="#000000" style="font-feature-settings:normal;font-variant-alternates:normal;font-variant-caps:normal;font-variant-east-asian:normal;font-variant-ligatures:normal;font-variant-numeric:normal;font-variant-position:normal;font-variation-settings:normal;inline-size:0;isolation:auto;mix-blend-mode:normal;shape-margin:0;shape-padding:0;text-decoration-color:#000000;text-decoration-line:none;text-decoration-style:solid;text-indent:0;text-orientation:mixed;text-transform:none;white-space:normal"/><path d="m387.31-229.43a25.002 25.002 0 0 1-25 25h-119.06a25.002 25.002 0 0 1-25-25v-27.515a27.06 27.06 0 0 0 24.242 15.038 27.06 27.06 0 0 0 27.06-27.06 27.06 27.06 0 0 0-27.06-27.06 27.06 27.06 0 0 0-24.242 15.038v-27.515a25.002 25.002 0 0 1 25-25h119.06a25.002 25.002 0 0 1 25 25z" color="#000000" color-rendering="auto" dominant-baseline="auto" image-rendering="auto" shape-rendering="auto" solid-color="#000000" stop-color="#000000" style="font-feature-settings:normal;font-variant-alternates:normal;font-variant-caps:normal;font-variant-east-asian:normal;font-variant-ligatures:normal;font-variant-numeric:normal;font-variant-position:normal;font-variation-settings:normal;inline-size:0;isolation:auto;mix-blend-mode:normal;shape-margin:0;shape-padding:0;text-decoration-color:#000000;text-decoration-line:none;text-decoration-style:solid;text-indent:0;text-orientation:mixed;text-transform:none;white-space:normal"/></g></g></svg>
