<?xml version="1.0" encoding="UTF-8"?>
<svg width="1141.2334mm" height="654.11328mm" version="1.1" viewBox="0 0 1141.2334 654.11328" xmlns="http://www.w3.org/2000/svg" xmlns:xlink="http://www.w3.org/1999/xlink"><defs><linearGradient id="a"><stop stop-color="#00c800" offset="0"/><stop stop-color="#00f" offset="1"/></linearGradient><linearGradient id="b"><stop stop-color="#00f" offset="0"/><stop stop-color="#ff0001" offset="1"/></linearGradient><linearGradient id="f" x1="197.00824" x2="197.00824" y1="187.60692" y2="141.77921" gradientTransform="matrix(1,0,0,1.220749,-13.040901,-41.414039)" gradientUnits="userSpaceOnUse" xlink:href="#b"/><linearGradient id="e" x1="197.00824" x2="197.00824" y1="187.60692" y2="141.77921" gradientTransform="matrix(1,0,0,2.4773201,-13.040901,19.121175)" gradientUnits="userSpaceOnUse" xlink:href="#b"/><linearGradient id="d" x1="197.00824" x2="197.00824" y1="187.60692" y2="141.77921" gradientTransform="matrix(1,0,0,1.220749,493.03866,-41.414039)" gradientUnits="userSpaceOnUse" xlink:href="#a"/><linearGradient id="c" x1="197.00824" x2="197.00824" y1="187.60692" y2="141.77921" gradientTransform="matrix(1,0,0,2.4773201,493.03866,19.121175)" gradientUnits="userSpaceOnUse" xlink:href="#a"/></defs><g transform="translate(125.38597,89.94719)"><rect x="690.04694" y="172.26129" width="16.447256" height="45.827713" fill="#00c800" stroke-linejoin="round" stroke-width=".900774"/><g fill="#00f"><path d="m744.37575 193.49a25.005068 25.005068 0 0 0-6.48642-0.86286l-79.08225-0.0727a25.005068 25.005068 0 0 0-25.0256 24.97964l-0.10938 119.07462a25.005068 25.005068 0 0 0 18.49321 24.16274z" stroke-linejoin="round" stroke-width="1.65762"/><circle cx="698.16571" cy="336.97244" r="21.268005" stroke-linejoin="round"/><g transform="translate(-946.90804,168.32355)"><rect x="1383.9152" y="281.41318" width="16.447256" height="48.862976"/><rect x="1385.2092" y="343.50552" width="13.859126" height="13.859126"/><rect x="1386.7842" y="368.04874" width="10.709325" height="10.709325"/><rect x="1388.359" y="388.28302" width="7.5595231" height="7.5595231"/></g></g><g transform="translate(-1452.9876,168.32355)" fill="#f00"><rect x="1383.9152" y="281.41318" width="16.447256" height="48.862976"/><rect x="1385.2092" y="343.50552" width="13.859126" height="13.859126"/><rect x="1386.7842" y="368.04874" width="10.709325" height="10.709325"/><rect x="1388.359" y="388.28302" width="7.5595231" height="7.5595231"/></g><path d="m-100.38594 295.02627a25.002499 25.002499 0 0 0-25.00003 25.00003v119.0625a25.002499 25.002499 0 0 0 25.00003 25.00002h27.515099a27.059657 27.059657 0 0 1-15.03786-24.24191 27.059657 27.059657 0 0 1 27.05987-27.05987 27.059657 27.059657 0 0 1 27.059829 27.05987 27.059657 27.059657 0 0 1-15.037829 24.24191h27.515109a25.002499 25.002499 0 0 0 25.0000305-25.00002v-119.0625a25.002499 25.002499 0 0 0-25.0000305-25.00003z" color="#000000" color-rendering="auto" dominant-baseline="auto" fill="#fe0000" image-rendering="auto" shape-rendering="auto" solid-color="#000000" stop-color="#000000" style="font-feature-settings:normal;font-variant-alternates:normal;font-variant-caps:normal;font-variant-east-asian:normal;font-variant-ligatures:normal;font-variant-numeric:normal;font-variant-position:normal;font-variation-settings:normal;inline-size:0;isolation:auto;mix-blend-mode:normal;shape-margin:0;shape-padding:0;text-decoration-color:#000000;text-decoration-line:none;text-decoration-style:solid;text-indent:0;text-orientation:mixed;text-transform:none;white-space:normal"/><circle cx="-60.848846" cy="439.19781" r="21.268005" fill="#ff0001" stroke-linejoin="round"/><path d="m-100.38594 102.53954a25.002499 25.002499 0 0 0-25.00003 25v119.0625a25.002499 25.002499 0 0 0 25.00003 25.00003h27.515099a27.059657 27.059657 0 0 1-15.03786-24.24192 27.059657 27.059657 0 0 1 27.05987-27.05986 27.059657 27.059657 0 0 1 27.059829 27.05986 27.059657 27.059657 0 0 1-15.037829 24.24192h27.515109a25.002499 25.002499 0 0 0 25.0000305-25.00003v-119.0625a25.002499 25.002499 0 0 0-25.0000305-25z" color="#000000" color-rendering="auto" dominant-baseline="auto" fill="#fe0000" image-rendering="auto" shape-rendering="auto" solid-color="#000000" stop-color="#000000" style="font-feature-settings:normal;font-variant-alternates:normal;font-variant-caps:normal;font-variant-east-asian:normal;font-variant-ligatures:normal;font-variant-numeric:normal;font-variant-position:normal;font-variation-settings:normal;inline-size:0;isolation:auto;mix-blend-mode:normal;shape-margin:0;shape-padding:0;text-decoration-color:#000000;text-decoration-line:none;text-decoration-style:solid;text-indent:0;text-orientation:mixed;text-transform:none;white-space:normal"/><circle cx="-60.848846" cy="246.71109" r="21.268005" fill="#ff0001" stroke-linejoin="round"/><rect x="-69.072479" y="245.86035" width="16.447256" height="127.60802" fill="#ff0001" stroke-linejoin="round" stroke-width="1.50311"/><g fill="#00f"><path d="m405.69361 295.02627a25.002499 25.002499 0 0 0-25 25.00003v119.0625a25.002499 25.002499 0 0 0 25 25.00002h27.51513a27.059657 27.059657 0 0 1-15.03786-24.24191 27.059657 27.059657 0 0 1 27.05987-27.05987 27.059657 27.059657 0 0 1 27.05983 27.05987 27.059657 27.059657 0 0 1-15.03783 24.24191h27.51511a25.002499 25.002499 0 0 0 25.00003-25.00002v-119.0625a25.002499 25.002499 0 0 0-25.00003-25.00003z" color="#000000" color-rendering="auto" dominant-baseline="auto" image-rendering="auto" shape-rendering="auto" solid-color="#000000" stop-color="#000000" style="font-feature-settings:normal;font-variant-alternates:normal;font-variant-caps:normal;font-variant-east-asian:normal;font-variant-ligatures:normal;font-variant-numeric:normal;font-variant-position:normal;font-variation-settings:normal;inline-size:0;isolation:auto;mix-blend-mode:normal;shape-margin:0;shape-padding:0;text-decoration-color:#000000;text-decoration-line:none;text-decoration-style:solid;text-indent:0;text-orientation:mixed;text-transform:none;white-space:normal"/><g stroke-linejoin="round"><circle cx="445.23077" cy="439.19781" r="21.268005"/><circle cx="445.23077" cy="246.71109" r="21.268005"/><rect x="437.00714" y="245.86035" width="16.447256" height="127.60802" stroke-width="1.50311"/></g><path d="m405.69361 102.53954a25.002499 25.002499 0 0 0-25 25v119.0625a25.002499 25.002499 0 0 0 25 25.00003h27.51513a27.059657 27.059657 0 0 1-15.03786-24.24192 27.059657 27.059657 0 0 1 27.05987-27.05986 27.059657 27.059657 0 0 1 27.05983 27.05986 27.059657 27.059657 0 0 1-15.03783 24.24192h27.51511a25.002499 25.002499 0 0 0 25.00003-25.00003v-119.0625a25.002499 25.002499 0 0 0-25.00003-25z" color="#000000" color-rendering="auto" dominant-baseline="auto" image-rendering="auto" shape-rendering="auto" solid-color="#000000" stop-color="#000000" style="font-feature-settings:normal;font-variant-alternates:normal;font-variant-caps:normal;font-variant-east-asian:normal;font-variant-ligatures:normal;font-variant-numeric:normal;font-variant-position:normal;font-variation-settings:normal;inline-size:0;isolation:auto;mix-blend-mode:normal;shape-margin:0;shape-padding:0;text-decoration-color:#000000;text-decoration-line:none;text-decoration-style:solid;text-indent:0;text-orientation:mixed;text-transform:none;white-space:normal"/></g><path d="m-100.38594-89.94719a25.002499 25.002499 0 0 0-25.00003 25v119.0625a25.002499 25.002499 0 0 0 25.00003 25.00003h27.515099a27.059657 27.059657 0 0 1-15.03786-24.24192 27.059657 27.059657 0 0 1 27.05987-27.05986 27.059657 27.059657 0 0 1 27.059829 27.05986 27.059657 27.059657 0 0 1-15.037829 24.24192h27.515109a25.002499 25.002499 0 0 0 25.0000305-25.00003v-119.0625a25.002499 25.002499 0 0 0-25.0000305-25z" color="#000000" color-rendering="auto" dominant-baseline="auto" fill="#fe0000" image-rendering="auto" shape-rendering="auto" solid-color="#000000" stop-color="#000000" style="font-feature-settings:normal;font-variant-alternates:normal;font-variant-caps:normal;font-variant-east-asian:normal;font-variant-ligatures:normal;font-variant-numeric:normal;font-variant-position:normal;font-variation-settings:normal;inline-size:0;isolation:auto;mix-blend-mode:normal;shape-margin:0;shape-padding:0;text-decoration-color:#000000;text-decoration-line:none;text-decoration-style:solid;text-indent:0;text-orientation:mixed;text-transform:none;white-space:normal"/><circle cx="-60.848846" cy="54.224361" r="21.268005" fill="#ff0001" stroke-linejoin="round"/><rect x="-69.072479" y="53.373623" width="16.447256" height="127.60802" fill="#ff0001" stroke-linejoin="round" stroke-width="1.50311"/><g fill="#00f"><circle cx="445.23077" cy="54.224361" r="21.268005" stroke-linejoin="round"/><rect x="437.00714" y="53.373623" width="16.447256" height="127.60802" stroke-linejoin="round" stroke-width="1.50311"/><path d="m405.69361-89.94719a25.002499 25.002499 0 0 0-25 25v119.0625a25.002499 25.002499 0 0 0 25 25.00003h27.51513a27.059657 27.059657 0 0 1-15.03786-24.24192 27.059657 27.059657 0 0 1 27.05987-27.05986 27.059657 27.059657 0 0 1 27.05983 27.05986 27.059657 27.059657 0 0 1-15.03783 24.24192h27.51511a25.002499 25.002499 0 0 0 25.00003-25.00003v-119.0625a25.002499 25.002499 0 0 0-25.00003-25z" color="#000000" color-rendering="auto" dominant-baseline="auto" image-rendering="auto" shape-rendering="auto" solid-color="#000000" stop-color="#000000" style="font-feature-settings:normal;font-variant-alternates:normal;font-variant-caps:normal;font-variant-east-asian:normal;font-variant-ligatures:normal;font-variant-numeric:normal;font-variant-position:normal;font-variation-settings:normal;inline-size:0;isolation:auto;mix-blend-mode:normal;shape-margin:0;shape-padding:0;text-decoration-color:#000000;text-decoration-line:none;text-decoration-style:solid;text-indent:0;text-orientation:mixed;text-transform:none;white-space:normal"/></g><g transform="rotate(-34.326137,905.76676,-590.9354)"><rect transform="rotate(90)" x="-279.56573" y="-86.05851" width="16.447256" height="219.87297" fill="#00f" stroke-linejoin="round" stroke-width="1.97305"/><text x="-89.468842" y="-266.45078" fill="#000000" font-family="sans-serif" font-size="13.1722px" stroke-width=".329306" style="line-height:1.25" xml:space="preserve"><tspan x="-89.468842" y="-266.45078" fill="#ffffff" font-family="sans-serif" font-weight="bold" stroke-width=".329306">communication →</tspan></text></g><g transform="rotate(39.303606,-516.95362,64.784061)"><rect transform="rotate(90)" x="-249.49945" y="-425.20624" width="16.447256" height="219.87297" fill="#00f" stroke-linejoin="round" stroke-width="1.97305"/><text x="249.67889" y="-236.38449" fill="#000000" font-family="sans-serif" font-size="13.1722px" stroke-width=".329306" style="line-height:1.25" xml:space="preserve"><tspan x="249.67889" y="-236.38449" fill="#ffffff" font-family="sans-serif" font-weight="bold" stroke-width=".329306">← communication</tspan></text></g><g transform="translate(-1199.9478,168.32355)" fill="#00f"><rect x="1383.9152" y="281.41318" width="16.447256" height="48.862976"/><rect x="1385.2092" y="343.50552" width="13.859126" height="13.859126"/><rect x="1386.7842" y="368.04874" width="10.709325" height="10.709325"/><rect x="1388.359" y="388.28302" width="7.5595231" height="7.5595231"/></g><g stroke-linejoin="round"><rect x="183.96735" y="103.35983" width="16.447256" height="45.827713" fill="#ff0001" stroke-width=".900774"/><rect x="183.96735" y="172.26129" width="16.447256" height="45.827713" fill="#00f" stroke-width=".900774"/><rect x="183.96735" y="330.59549" width="16.447256" height="127.60802" fill="#ff0001" stroke-width="1.50311"/></g><g transform="translate(-13.040901,-329.52652)" stroke-linejoin="round"><path d="m251.33709 295.71538a25.005068 25.005068 0 0 0-6.48642-0.86286l-79.08225-0.0727a25.005068 25.005068 0 0 0-25.0256 24.97964l-0.10938 119.07462a25.005068 25.005068 0 0 0 18.49321 24.16274z" fill="#f00" stroke-width="1.65762"/><g fill="#00f"><path d="m256.86128 297.93989a25.005068 25.005068 0 0 0-5.52419-2.22451l-92.21044 167.28149a25.005068 25.005068 0 0 0 6.48642 0.86286l27.51791 0.0252a27.062437 27.062437 0 0 1-15.01712-24.25821 27.062437 27.062437 0 0 1 27.08749-27.03764 27.062437 27.062437 0 0 1 27.03772 27.08734 27.062437 27.062437 0 0 1-15.06157 24.23063l27.51782 0.0253a25.005068 25.005068 0 0 0 25.0256-24.97963l0.10939-119.07463a25.005068 25.005068 0 0 0-12.96903-21.93823z" stroke-width="1.65762"/><path d="m256.86128 297.93989a25.005068 25.005068 0 0 0-12.01061-3.08737l-70.20484-0.0645a68.193812 68.193812 0 0 0 30.58604 84.56811 68.193812 68.193812 0 0 0 64.54318 0.69693l0.0553-60.17494a25.005068 25.005068 0 0 0-12.96903-21.93823z" stroke-width="1.62305"/></g><path d="m205.16664 379.32017a68.193812 68.193812 0 0 0-64.47795-0.66098l-0.0553 60.17494a25.005068 25.005068 0 0 0 24.97963 25.0256l27.51791 0.0252a27.062437 27.062437 0 0 1-15.01712-24.25821 27.062437 27.062437 0 0 1 27.08749-27.03764 27.062437 27.062437 0 0 1 27.03772 27.08734 27.062437 27.062437 0 0 1-15.06157 24.23063l18.64027 0.0171a68.193812 68.193812 0 0 0-30.5859-84.56802 68.193812 68.193812 0 0 0-0.0652-0.036z" fill="#f00" stroke-width="1.62305"/><circle cx="205.12703" cy="439.19781" r="21.268005" fill="#ff0001"/></g><rect x="183.96735" y="131.66278" width="16.447256" height="55.944134" fill="url(#f)" stroke-linejoin="round" stroke-width=".995243"/><rect x="183.96735" y="370.35373" width="16.447256" height="113.52991" fill="url(#e)" stroke-linejoin="round" stroke-width="1.41778"/><g transform="rotate(-34.326137,621.04496,-678.87045)"><rect transform="rotate(90)" x="-279.56573" y="-86.05851" width="16.447256" height="219.87297" fill="#00f" stroke-linejoin="round" stroke-width="1.97305"/><text x="-89.468842" y="-266.45078" fill="#000000" font-family="sans-serif" font-size="13.1722px" stroke-width=".329306" style="line-height:1.25" xml:space="preserve"><tspan x="-89.468842" y="-266.45078" fill="#ffffff" font-family="sans-serif" font-weight="bold" stroke-width=".329306">communication →</tspan></text></g><g transform="translate(329.95098,186.46352)"><rect transform="rotate(55.673863)" x="-25.409515" y="198.74625" width="16.447256" height="219.87297" fill="#f00" stroke-linejoin="round" stroke-width="1.97305"/><text transform="rotate(-34.326137)" x="-374.27359" y="-12.294558" fill="#000000" font-family="sans-serif" font-size="13.1722px" stroke-width=".329306" style="line-height:1.25" xml:space="preserve"><tspan x="-374.27359" y="-12.294558" fill="#ffffff" font-family="sans-serif" font-weight="bold" stroke-width=".329306">communication →</tspan></text></g><g transform="rotate(39.303606,-516.95362,64.784061)"><rect transform="rotate(90)" x="-249.49945" y="-425.20624" width="16.447256" height="219.87297" fill="#00f" stroke-linejoin="round" stroke-width="1.97305"/><text x="249.67889" y="-236.38449" fill="#000000" font-family="sans-serif" font-size="13.1722px" stroke-width=".329306" style="line-height:1.25" xml:space="preserve"><tspan x="249.67889" y="-236.38449" fill="#ffffff" font-family="sans-serif" font-weight="bold" stroke-width=".329306">← communication</tspan></text></g><g transform="translate(329.95098,-31.428637)"><rect transform="rotate(55.673863)" x="-25.409515" y="198.74625" width="16.447256" height="219.87297" fill="#f00" stroke-linejoin="round" stroke-width="1.97305"/><text transform="rotate(-34.326137)" x="-374.27359" y="-12.294558" fill="#000000" font-family="sans-serif" font-size="13.1722px" stroke-width=".329306" style="line-height:1.25" xml:space="preserve"><tspan x="-374.27359" y="-12.294558" fill="#ffffff" font-family="sans-serif" font-weight="bold" stroke-width=".329306">communication →</tspan></text></g><g stroke-linejoin="round"><path d="m238.29619 193.49a25.005068 25.005068 0 0 0-6.48642-0.86286l-79.08225-0.0727a25.005068 25.005068 0 0 0-25.0256 24.97964l-0.10938 119.07462a25.005068 25.005068 0 0 0 18.49321 24.16274z" fill="#f00" stroke-width="1.65762"/><g transform="translate(-13.040901,-102.75455)" fill="#00f"><path d="m256.86128 297.93989a25.005068 25.005068 0 0 0-5.52419-2.22451l-92.21044 167.28149a25.005068 25.005068 0 0 0 6.48642 0.86286l27.51791 0.0252a27.062437 27.062437 0 0 1-15.01712-24.25821 27.062437 27.062437 0 0 1 27.08749-27.03764 27.062437 27.062437 0 0 1 27.03772 27.08734 27.062437 27.062437 0 0 1-15.06157 24.23063l27.51782 0.0253a25.005068 25.005068 0 0 0 25.0256-24.97963l0.10939-119.07463a25.005068 25.005068 0 0 0-12.96903-21.93823z" stroke-width="1.65762"/><path d="m256.86128 297.93989a25.005068 25.005068 0 0 0-12.01061-3.08737l-70.20484-0.0645a68.193812 68.193812 0 0 0 30.58604 84.56811 68.193812 68.193812 0 0 0 64.54318 0.69693l0.0553-60.17494a25.005068 25.005068 0 0 0-12.96903-21.93823z" stroke-width="1.62305"/></g><path d="m192.12574 276.56562a68.193812 68.193812 0 0 0-64.47795-0.66098l-0.0553 60.17494a25.005068 25.005068 0 0 0 24.97963 25.0256l27.51791 0.0252a27.062437 27.062437 0 0 1-15.01712-24.25821 27.062437 27.062437 0 0 1 27.08749-27.03764 27.062437 27.062437 0 0 1 27.03772 27.08734 27.062437 27.062437 0 0 1-15.06157 24.23063l18.64027 0.0171a68.193812 68.193812 0 0 0-30.5859-84.56802 68.193812 68.193812 0 0 0-0.0652-0.036z" fill="#f00" stroke-width="1.62305"/><circle cx="192.08614" cy="336.97244" r="21.268005" fill="#ff0001"/></g><g transform="translate(360.53767,-280.90397)"><rect transform="rotate(129.30361)" x="395.94626" y="-53.962337" width="16.447256" height="219.87297" fill="#f00" stroke-linejoin="round" stroke-width="1.97305"/><text transform="rotate(39.303606)" x="-121.56503" y="409.06119" fill="#000000" font-family="sans-serif" font-size="13.1722px" stroke-width=".329306" style="line-height:1.25" xml:space="preserve"><tspan x="-121.56503" y="409.06119" fill="#ffffff" font-family="sans-serif" font-weight="bold" stroke-width=".329306">← communication</tspan></text></g><g fill="#00c800"><g transform="translate(-440.82848,168.32355)"><rect x="1383.9152" y="281.41318" width="16.447256" height="48.862976"/><rect x="1385.2092" y="343.50552" width="13.859126" height="13.859126"/><rect x="1386.7842" y="368.04874" width="10.709325" height="10.709325"/><rect x="1388.359" y="388.28302" width="7.5595231" height="7.5595231"/></g><g stroke-linejoin="round"><circle cx="951.31036" cy="439.19781" r="21.268005"/><circle cx="951.31036" cy="246.71109" r="21.268005"/><rect x="943.08673" y="245.86035" width="16.447256" height="127.60802" stroke-width="1.50311"/></g><path d="m911.77317 102.53954a25.002499 25.002499 0 0 0-25 25v119.0625a25.002499 25.002499 0 0 0 25 25.00003h27.51513a27.059657 27.059657 0 0 1-15.03786-24.24192 27.059657 27.059657 0 0 1 27.05987-27.05986 27.059657 27.059657 0 0 1 27.05983 27.05986 27.059657 27.059657 0 0 1-15.03783 24.24192h27.51511a25.002499 25.002499 0 0 0 24.99998-25.00003v-119.0625a25.002499 25.002499 0 0 0-24.99998-25z" color="#000000" color-rendering="auto" dominant-baseline="auto" image-rendering="auto" shape-rendering="auto" solid-color="#000000" stop-color="#000000" style="font-feature-settings:normal;font-variant-alternates:normal;font-variant-caps:normal;font-variant-east-asian:normal;font-variant-ligatures:normal;font-variant-numeric:normal;font-variant-position:normal;font-variation-settings:normal;inline-size:0;isolation:auto;mix-blend-mode:normal;shape-margin:0;shape-padding:0;text-decoration-color:#000000;text-decoration-line:none;text-decoration-style:solid;text-indent:0;text-orientation:mixed;text-transform:none;white-space:normal"/><circle cx="951.31036" cy="54.224361" r="21.268005" stroke-linejoin="round"/><rect x="943.08673" y="53.373623" width="16.447256" height="127.60802" stroke-linejoin="round" stroke-width="1.50311"/><path d="m911.77317-89.94719a25.002499 25.002499 0 0 0-25 25v119.0625a25.002499 25.002499 0 0 0 25 25.00003h27.51513a27.059657 27.059657 0 0 1-15.03786-24.24192 27.059657 27.059657 0 0 1 27.05987-27.05986 27.059657 27.059657 0 0 1 27.05983 27.05986 27.059657 27.059657 0 0 1-15.03783 24.24192h27.51511a25.002499 25.002499 0 0 0 24.99998-25.00003v-119.0625a25.002499 25.002499 0 0 0-24.99998-25z" color="#000000" color-rendering="auto" dominant-baseline="auto" image-rendering="auto" shape-rendering="auto" solid-color="#000000" stop-color="#000000" style="font-feature-settings:normal;font-variant-alternates:normal;font-variant-caps:normal;font-variant-east-asian:normal;font-variant-ligatures:normal;font-variant-numeric:normal;font-variant-position:normal;font-variation-settings:normal;inline-size:0;isolation:auto;mix-blend-mode:normal;shape-margin:0;shape-padding:0;text-decoration-color:#000000;text-decoration-line:none;text-decoration-style:solid;text-indent:0;text-orientation:mixed;text-transform:none;white-space:normal"/></g><g transform="rotate(39.303606,-263.91384,773.37436)"><rect transform="rotate(90)" x="-249.49945" y="-425.20624" width="16.447256" height="219.87297" fill="#00f" stroke-linejoin="round" stroke-width="1.97305"/><text x="249.67889" y="-236.38449" fill="#000000" font-family="sans-serif" font-size="13.1722px" stroke-width=".329306" style="line-height:1.25" xml:space="preserve"><tspan x="249.67889" y="-236.38449" fill="#ffffff" font-family="sans-serif" font-weight="bold" stroke-width=".329306">← communication</tspan></text></g><g transform="translate(-693.86824,168.32355)" fill="#00c800"><rect x="1383.9152" y="281.41318" width="16.447256" height="48.862976"/><rect x="1385.2092" y="343.50552" width="13.859126" height="13.859126"/><rect x="1386.7842" y="368.04874" width="10.709325" height="10.709325"/><rect x="1388.359" y="388.28302" width="7.5595231" height="7.5595231"/></g><g stroke-linejoin="round"><rect x="690.04694" y="103.35983" width="16.447256" height="45.827713" fill="#00f" stroke-width=".900774"/><rect x="690.04694" y="330.59549" width="16.447256" height="127.60802" fill="#00f" stroke-width="1.50311"/><rect x="690.04694" y="131.66278" width="16.447256" height="55.944134" fill="url(#d)" stroke-width=".995243"/><rect x="690.04694" y="370.35373" width="16.447256" height="113.52991" fill="url(#c)" stroke-width="1.41778"/><rect transform="rotate(55.673863)" x="474.2543" y="-778.65631" width="16.447256" height="219.87297" fill="#00c800" stroke-width="1.97305"/></g><text transform="rotate(-34.326137)" x="603.12897" y="487.36923" fill="#000000" font-family="sans-serif" font-size="13.1722px" stroke-width=".329306" style="line-height:1.25" xml:space="preserve"><tspan x="603.12897" y="487.36923" fill="#ffffff" font-family="sans-serif" font-weight="bold" stroke-width=".329306">communication →</tspan></text><rect transform="rotate(129.30361)" x="-257.26566" y="-974.78168" width="16.447256" height="219.87297" fill="#00c800" stroke-linejoin="round" stroke-width="1.97305"/><text transform="rotate(39.303606)" x="799.25433" y="-244.15067" fill="#000000" font-family="sans-serif" font-size="13.1722px" stroke-width=".329306" style="line-height:1.25" xml:space="preserve"><tspan x="799.25433" y="-244.15067" fill="#ffffff" font-family="sans-serif" font-weight="bold" stroke-width=".329306">← communication</tspan></text><rect transform="rotate(55.673863)" x="420.07541" y="-509.40488" width="16.447256" height="219.87297" fill="#00f" stroke-linejoin="round" stroke-width="1.97305"/><text transform="rotate(-34.326137)" x="333.8775" y="433.19037" fill="#000000" font-family="sans-serif" font-size="13.1722px" stroke-width=".329306" style="line-height:1.25" xml:space="preserve"><tspan x="333.8775" y="433.19037" fill="#ffffff" font-family="sans-serif" font-weight="bold" stroke-width=".329306">communication →</tspan></text><rect transform="rotate(129.30361)" x="-370.35834" y="-546.6181" width="16.447256" height="219.87297" fill="#00f" stroke-linejoin="round" stroke-width="1.97305"/><text transform="rotate(39.303606)" x="371.09082" y="-357.24338" fill="#000000" font-family="sans-serif" font-size="13.1722px" stroke-width=".329306" style="line-height:1.25" xml:space="preserve"><tspan x="371.09082" y="-357.24338" fill="#ffffff" font-family="sans-serif" font-weight="bold" stroke-width=".329306">← communication</tspan></text><path d="m744.37575-33.81114a25.005068 25.005068 0 0 0-6.48642-0.86286l-79.08225-0.0727a25.005068 25.005068 0 0 0-25.0256 24.97964l-0.10938 119.07462a25.005068 25.005068 0 0 0 18.49321 24.16274z" fill="#00f" stroke-linejoin="round" stroke-width="1.65762"/><g transform="translate(493.03866,-329.52652)" fill="#00c800" stroke-linejoin="round"><path d="m256.86128 297.93989a25.005068 25.005068 0 0 0-5.52419-2.22451l-92.21044 167.28149a25.005068 25.005068 0 0 0 6.48642 0.86286l27.51791 0.0252a27.062437 27.062437 0 0 1-15.01712-24.25821 27.062437 27.062437 0 0 1 27.08749-27.03764 27.062437 27.062437 0 0 1 27.03772 27.08734 27.062437 27.062437 0 0 1-15.06157 24.23063l27.51782 0.0253a25.005068 25.005068 0 0 0 25.0256-24.97963l0.10939-119.07463a25.005068 25.005068 0 0 0-12.96903-21.93823z" stroke-width="1.65762"/><path d="m256.86128 297.93989a25.005068 25.005068 0 0 0-12.01061-3.08737l-70.20484-0.0645a68.193812 68.193812 0 0 0 30.58604 84.56811 68.193812 68.193812 0 0 0 64.54318 0.69693l0.0553-60.17494a25.005068 25.005068 0 0 0-12.96903-21.93823z" stroke-width="1.62305"/></g><path d="m698.2053 49.79365a68.193812 68.193812 0 0 0-64.47795-0.66098l-0.0553 60.17494a25.005068 25.005068 0 0 0 24.97963 25.0256l27.51791 0.0252a27.062437 27.062437 0 0 1-15.01712-24.25821 27.062437 27.062437 0 0 1 27.08749-27.03764 27.062437 27.062437 0 0 1 27.03772 27.08734 27.062437 27.062437 0 0 1-15.06157 24.23063l18.64027 0.0171a68.193812 68.193812 0 0 0-30.5859-84.56802 68.193812 68.193812 0 0 0-0.0652-0.036z" fill="#00f" stroke-linejoin="round" stroke-width="1.62305"/><circle cx="698.16571" cy="109.6713" r="21.268005" fill="#00f" stroke-linejoin="round"/><path d="m911.77317 295.02627a25.002499 25.002499 0 0 0-25 25.00003v119.0625a25.002499 25.002499 0 0 0 25 25.00002h27.51513a27.059657 27.059657 0 0 1-15.03786-24.24191 27.059657 27.059657 0 0 1 27.05987-27.05987 27.059657 27.059657 0 0 1 27.05983 27.05987 27.059657 27.059657 0 0 1-15.03783 24.24191h27.51511a25.002499 25.002499 0 0 0 24.99998-25.00002v-119.0625a25.002499 25.002499 0 0 0-24.99998-25.00003z" color="#000000" color-rendering="auto" dominant-baseline="auto" fill="#00c800" image-rendering="auto" shape-rendering="auto" solid-color="#000000" stop-color="#000000" style="font-feature-settings:normal;font-variant-alternates:normal;font-variant-caps:normal;font-variant-east-asian:normal;font-variant-ligatures:normal;font-variant-numeric:normal;font-variant-position:normal;font-variation-settings:normal;inline-size:0;isolation:auto;mix-blend-mode:normal;shape-margin:0;shape-padding:0;text-decoration-color:#000000;text-decoration-line:none;text-decoration-style:solid;text-indent:0;text-orientation:mixed;text-transform:none;white-space:normal"/><g transform="translate(493.56783,-102.75455)" fill="#00c800" stroke-linejoin="round"><path d="m256.86128 297.93989a25.005068 25.005068 0 0 0-5.52419-2.22451l-92.21044 167.28149a25.005068 25.005068 0 0 0 6.48642 0.86286l27.51791 0.0252a27.062437 27.062437 0 0 1-15.01712-24.25821 27.062437 27.062437 0 0 1 27.08749-27.03764 27.062437 27.062437 0 0 1 27.03772 27.08734 27.062437 27.062437 0 0 1-15.06157 24.23063l27.51782 0.0253a25.005068 25.005068 0 0 0 25.0256-24.97963l0.10939-119.07463a25.005068 25.005068 0 0 0-12.96903-21.93823z" stroke-width="1.65762"/><path d="m256.86128 297.93989a25.005068 25.005068 0 0 0-12.01061-3.08737l-70.20484-0.0645a68.193812 68.193812 0 0 0 30.58604 84.56811 68.193812 68.193812 0 0 0 64.54318 0.69693l0.0553-60.17494a25.005068 25.005068 0 0 0-12.96903-21.93823z" stroke-width="1.62305"/></g><path d="m698.2053 276.56562a68.193812 68.193812 0 0 0-64.47795-0.66098l-0.0553 60.17494a25.005068 25.005068 0 0 0 24.97963 25.0256l27.51791 0.0252a27.062437 27.062437 0 0 1-15.01712-24.25821 27.062437 27.062437 0 0 1 27.08749-27.03764 27.062437 27.062437 0 0 1 27.03772 27.08734 27.062437 27.062437 0 0 1-15.06157 24.23063l18.64027 0.0171a68.193812 68.193812 0 0 0-30.5859-84.56802 68.193812 68.193812 0 0 0-0.0652-0.036z" fill="#00f" stroke-linejoin="round" stroke-width="1.62305"/></g></svg>
