<?xml version="1.0" encoding="UTF-8"?>
<svg width="187.34mm" height="28.443mm" version="1.1" viewBox="0 0 187.34 28.443" xmlns="http://www.w3.org/2000/svg"><g transform="translate(-12.044 -136.17)"><path d="m44.109 143.24h27.781v14.288h-27.781z" fill="#0000c8" opacity=".994" stroke-width="6.2372"/><path d="m63.643 164.36v-27.936l24.193 13.968-12.097 6.984z" fill="#0000c8" opacity=".994" stroke-width="7.4656"/><g fill="#ffffff"><path d="m47.056 151.39 0.0955 0.5839q-0.2791 0.0588-0.49944 0.0588-0.35989 0-0.5582-0.11384-0.19831-0.11385-0.2791-0.29746-0.0808-0.1873-0.0808-0.78222v-2.2438h-0.48475v-0.51413h0.48475v-0.96584l0.65736-0.39662v1.3625h0.6647v0.51413h-0.6647v2.2806q0 0.28278 0.0331 0.36357 0.0367 0.0808 0.11385 0.12853 0.0808 0.0477 0.22768 0.0477 0.11017 0 0.29012-0.0257z" opacity=".994"/><path d="m47.695 151.98v-3.9001h0.59492v0.59125q0.22769-0.41498 0.41865-0.54718 0.19464-0.13221 0.426-0.13221 0.33419 0 0.67939 0.213l-0.22769 0.61329q-0.24237-0.14323-0.48475-0.14323-0.21667 0-0.38927 0.13221-0.17261 0.12853-0.24605 0.35989-0.11017 0.35255-0.11017 0.7712v2.0418z" opacity=".994"/><path d="m52.752 151.5q-0.36724 0.31215-0.70877 0.44068-0.33786 0.12854-0.72713 0.12854-0.64267 0-0.98788-0.31216-0.3452-0.31582-0.3452-0.80425 0-0.28644 0.12853-0.52148 0.13221-0.2387 0.34154-0.38192 0.21299-0.14323 0.47741-0.21668 0.19463-0.0514 0.58758-0.0992 0.80058-0.0955 1.1788-0.22769 4e-3 -0.13588 4e-3 -0.1726 0-0.40396-0.18729-0.56922-0.25339-0.22401-0.75284-0.22401-0.46639 0-0.6904 0.16525-0.22035 0.16159-0.32685 0.57657l-0.64634-0.0881q0.0881-0.41498 0.29012-0.66837 0.20198-0.25707 0.58391-0.39295 0.38193-0.13955 0.88505-0.13955 0.49944 0 0.81159 0.11752 0.31215 0.11751 0.45905 0.29746 0.1469 0.17627 0.20565 0.44803 0.0331 0.16893 0.0331 0.60962v0.88137q0 0.92177 0.0404 1.1678 0.0441 0.24237 0.16893 0.46639h-0.69041q-0.10282-0.20565-0.1322-0.48108zm-0.0551-1.4763q-0.35989 0.14689-1.0797 0.24972-0.40763 0.0588-0.57656 0.13221-0.16893 0.0734-0.26074 0.21667-0.0918 0.13955-0.0918 0.31215 0 0.26441 0.19831 0.44069 0.20198 0.17627 0.58758 0.17627 0.38193 0 0.67939-0.16526 0.29746-0.16893 0.43701-0.45904 0.1065-0.22402 0.1065-0.66103z" opacity=".994"/><path d="m54.39 151.98v-3.9001h0.59493v0.55453q0.42966-0.64267 1.2413-0.64267 0.35255 0 0.64634 0.12853 0.29746 0.12487 0.44436 0.33052 0.14689 0.20565 0.20565 0.48843 0.0367 0.18362 0.0367 0.64266v2.3981h-0.66103v-2.3724q0-0.40396-0.0771-0.60227-0.0771-0.20198-0.27543-0.3195-0.19464-0.12119-0.45905-0.12119-0.42232 0-0.7308 0.26809-0.30481 0.26808-0.30481 1.0172v2.13z" opacity=".994"/><path d="m58.309 150.81 0.65369-0.10282q0.0551 0.39294 0.3048 0.60227 0.2534 0.20932 0.7051 0.20932 0.45538 0 0.67572-0.18362 0.22034-0.18729 0.22034-0.43701 0-0.22401-0.19463-0.35255-0.13588-0.0881-0.67572-0.22401-0.72713-0.18362-1.0099-0.31583-0.2791-0.13588-0.42599-0.37091-0.14323-0.2387-0.14323-0.52515 0-0.26074 0.11752-0.48108 0.12119-0.22402 0.32684-0.37091 0.15424-0.11385 0.41865-0.19097 0.26809-0.0808 0.5729-0.0808 0.45904 0 0.80425 0.13221 0.34887 0.1322 0.51413 0.35989 0.16526 0.22402 0.22769 0.60227l-0.64634 0.0881q-0.0441-0.30114-0.25707-0.47007-0.20932-0.16893-0.59492-0.16893-0.45538 0-0.65002 0.15057-0.19463 0.15057-0.19463 0.35255 0 0.12853 0.0808 0.23136 0.0808 0.1065 0.2534 0.17627 0.0991 0.0367 0.5839 0.16893 0.70143 0.1873 0.97686 0.30848 0.2791 0.11752 0.43701 0.34521t0.15791 0.56555q0 0.33051-0.19463 0.6243-0.19097 0.29012-0.55453 0.4517-0.36357 0.15792-0.82262 0.15792-0.76018 0-1.1605-0.31583-0.39662-0.31582-0.50679-0.93646z" opacity=".994"/><path d="m64.878 151.5q-0.36724 0.31215-0.70877 0.44068-0.33786 0.12854-0.72714 0.12854-0.64266 0-0.98787-0.31216-0.3452-0.31582-0.3452-0.80425 0-0.28644 0.12853-0.52148 0.13221-0.2387 0.34153-0.38192 0.213-0.14323 0.47741-0.21668 0.19464-0.0514 0.58759-0.0992 0.80058-0.0955 1.1788-0.22769 4e-3 -0.13588 4e-3 -0.1726 0-0.40396-0.18729-0.56922-0.25339-0.22401-0.75284-0.22401-0.46639 0-0.69041 0.16525-0.22034 0.16159-0.32684 0.57657l-0.64634-0.0881q0.0881-0.41498 0.29012-0.66837 0.20198-0.25707 0.58391-0.39295 0.38193-0.13955 0.88504-0.13955 0.49945 0 0.8116 0.11752 0.31215 0.11751 0.45905 0.29746 0.14689 0.17627 0.20565 0.44803 0.0331 0.16893 0.0331 0.60962v0.88137q0 0.92177 0.0404 1.1678 0.0441 0.24237 0.16893 0.46639h-0.69041q-0.10282-0.20565-0.1322-0.48108zm-0.0551-1.4763q-0.35989 0.14689-1.0797 0.24972-0.40763 0.0588-0.57656 0.13221-0.16893 0.0734-0.26074 0.21667-0.0918 0.13955-0.0918 0.31215 0 0.26441 0.19831 0.44069 0.20198 0.17627 0.58758 0.17627 0.38192 0 0.67939-0.16526 0.29746-0.16893 0.43701-0.45904 0.1065-0.22402 0.1065-0.66103z" opacity=".994"/><path d="m69.061 150.55 0.65001 0.0845q-0.1065 0.67204-0.54718 1.054-0.43702 0.37826-1.076 0.37826-0.80058 0-1.289-0.52148-0.48475-0.52515-0.48475-1.502 0-0.63165 0.20932-1.1054 0.20933-0.47374 0.63533-0.70877 0.42966-0.23871 0.93278-0.23871 0.63532 0 1.0393 0.32317 0.40396 0.3195 0.5178 0.91075l-0.64267 0.0992q-0.0918-0.39295-0.32684-0.59126-0.23136-0.19831-0.56187-0.19831-0.49945 0-0.8116 0.3599-0.31215 0.35622-0.31215 1.1311 0 0.78589 0.30113 1.1421 0.30114 0.35622 0.78589 0.35622 0.38928 0 0.65002-0.2387 0.26074-0.23871 0.33051-0.73448z" opacity=".994"/><path d="m71.72 151.39 0.0955 0.5839q-0.2791 0.0588-0.49945 0.0588-0.35989 0-0.5582-0.11384-0.19831-0.11385-0.2791-0.29746-0.0808-0.1873-0.0808-0.78222v-2.2438h-0.48476v-0.51413h0.48476v-0.96584l0.65735-0.39662v1.3625h0.6647v0.51413h-0.6647v2.2806q0 0.28278 0.033 0.36357 0.0367 0.0808 0.11385 0.12853 0.0808 0.0477 0.22769 0.0477 0.11017 0 0.29011-0.0257z" opacity=".994"/><path d="m72.37 147.35v-0.76018h0.66103v0.76018zm0 4.6235v-3.9001h0.66103v3.9001z" opacity=".994"/><path d="m73.791 150.03q0-1.0834 0.60227-1.6048 0.50312-0.43334 1.2266-0.43334 0.80425 0 1.3147 0.52882 0.51046 0.52516 0.51046 1.4543 0 0.75284-0.22769 1.1862-0.22401 0.42967-0.65735 0.66837-0.42967 0.23871-0.94013 0.23871-0.81895 0-1.3257-0.52515-0.50312-0.52516-0.50312-1.513zm0.67939 0q0 0.74917 0.32684 1.1238 0.32684 0.37091 0.82262 0.37091 0.4921 0 0.81894-0.37458t0.32684-1.1421q0-0.72346-0.33051-1.0944-0.32685-0.37458-0.81527-0.37458-0.49578 0-0.82262 0.37091t-0.32684 1.1201z" opacity=".994"/><path d="m78.22 151.98v-3.9001h0.59493v0.55453q0.42967-0.64267 1.2413-0.64267 0.35255 0 0.64634 0.12853 0.29747 0.12487 0.44436 0.33052 0.1469 0.20565 0.20565 0.48843 0.0367 0.18362 0.0367 0.64266v2.3981h-0.66103v-2.3724q0-0.40396-0.0771-0.60227-0.0771-0.20198-0.27543-0.3195-0.19464-0.12119-0.45905-0.12119-0.42232 0-0.7308 0.26809-0.30481 0.26808-0.30481 1.0172v2.13z" opacity=".994"/></g><path d="m12.044 136.17h28.443v28.443h-28.443z" fill="#0000c8" opacity=".994" stroke-width="6.9"/><g fill="#ffffff"><path d="m15.219 151.88 0.65368-0.10282q0.05509 0.39294 0.30481 0.60227 0.25339 0.20932 0.7051 0.20932 0.45538 0 0.67572-0.18362 0.22034-0.18729 0.22034-0.43701 0-0.22402-0.19464-0.35255-0.13588-0.0881-0.67572-0.22401-0.72713-0.18362-1.0099-0.31583-0.2791-0.13588-0.426-0.37091-0.14322-0.2387-0.14322-0.52515 0-0.26074 0.11752-0.48108 0.12119-0.22402 0.32684-0.37091 0.15424-0.11385 0.41865-0.19097 0.26808-0.0808 0.57289-0.0808 0.45905 0 0.80425 0.13221 0.34888 0.1322 0.51413 0.35989 0.16526 0.22401 0.22769 0.60227l-0.64634 0.0881q-0.04407-0.30114-0.25707-0.47007-0.20933-0.16893-0.59493-0.16893-0.45538 0-0.65001 0.15057-0.19464 0.15057-0.19464 0.35255 0 0.12853 0.08079 0.23136 0.08079 0.1065 0.2534 0.17627 0.09915 0.0367 0.58391 0.16893 0.70142 0.18729 0.97685 0.30848 0.2791 0.11752 0.43701 0.34521 0.15791 0.22769 0.15791 0.56554 0 0.33052-0.19464 0.62431-0.19096 0.29012-0.55453 0.4517-0.36357 0.15791-0.82261 0.15791-0.76018 0-1.1605-0.31582-0.39662-0.31582-0.50679-0.93646z" opacity=".994"/><path d="m20.687 152.45 0.09548 0.58391q-0.2791 0.0588-0.49944 0.0588-0.35989 0-0.5582-0.11384-0.19831-0.11385-0.2791-0.29747-0.08079-0.18729-0.08079-0.78221v-2.2438h-0.48475v-0.51413h0.48475v-0.96584l0.65736-0.39662v1.3625h0.6647v0.51413h-0.6647v2.2806q0 0.28277 0.03305 0.36357 0.03672 0.0808 0.11384 0.12853 0.08079 0.0477 0.22769 0.0477 0.11017 0 0.29012-0.0257z" opacity=".994"/><path d="m23.878 152.56q-0.36724 0.31215-0.70877 0.44068-0.33786 0.12853-0.72713 0.12853-0.64267 0-0.98787-0.31215-0.3452-0.31582-0.3452-0.80425 0-0.28645 0.12853-0.52148 0.13221-0.2387 0.34153-0.38193 0.213-0.14322 0.47741-0.21667 0.19464-0.0514 0.58758-0.0992 0.80058-0.0955 1.1788-0.22769 0.0037-0.13588 0.0037-0.1726 0-0.40396-0.18729-0.56922-0.2534-0.22401-0.75284-0.22401-0.46639 0-0.69041 0.16525-0.22034 0.16159-0.32684 0.57657l-0.64634-0.0881q0.08814-0.41498 0.29012-0.66837 0.20198-0.25707 0.58391-0.39295 0.38193-0.13955 0.88504-0.13955 0.49944 0 0.8116 0.11752 0.31215 0.11751 0.45905 0.29746 0.1469 0.17627 0.20565 0.44803 0.03305 0.16893 0.03305 0.60962v0.88137q0 0.92177 0.0404 1.1678 0.04407 0.24237 0.16893 0.46639h-0.69041q-0.10283-0.20566-0.1322-0.48108zm-0.05509-1.4763q-0.35989 0.14689-1.0797 0.24972-0.40763 0.0588-0.57656 0.13221-0.16893 0.0734-0.26074 0.21667-0.09181 0.13955-0.09181 0.31215 0 0.26441 0.19831 0.44068 0.20198 0.17628 0.58758 0.17628 0.38193 0 0.67939-0.16526 0.29746-0.16893 0.43701-0.45905 0.1065-0.22401 0.1065-0.66103z" opacity=".994"/><path d="m26.96 152.45 0.09548 0.58391q-0.2791 0.0588-0.49944 0.0588-0.35989 0-0.5582-0.11384-0.19831-0.11385-0.2791-0.29747-0.08079-0.18729-0.08079-0.78221v-2.2438h-0.48476v-0.51413h0.48476v-0.96584l0.65736-0.39662v1.3625h0.6647v0.51413h-0.6647v2.2806q0 0.28277 0.03305 0.36357 0.03672 0.0808 0.11384 0.12853 0.08079 0.0477 0.22769 0.0477 0.11017 0 0.29012-0.0257z" opacity=".994"/><path d="m30.276 151.79 0.68306 0.0845q-0.16158 0.5986-0.5986 0.92911-0.43701 0.33051-1.1164 0.33051-0.85566 0-1.3588-0.52515-0.49944-0.52882-0.49944-1.48 0-0.98419 0.50679-1.5277 0.50679-0.54351 1.3147-0.54351 0.78222 0 1.278 0.5325 0.49577 0.53249 0.49577 1.4983 0 0.0588-0.0037 0.17627h-2.9085q0.03672 0.64267 0.36357 0.9842 0.32684 0.34153 0.81527 0.34153 0.36357 0 0.62063-0.19096 0.25707-0.19097 0.40764-0.60962zm-2.1704-1.0687h2.1777q-0.04407-0.4921-0.24972-0.73815-0.31582-0.38193-0.81894-0.38193-0.45538 0-0.76753 0.30481-0.30848 0.30481-0.34153 0.81527z" opacity=".994"/><path d="m33.695 150.39q0-0.95481 0.19464-1.535 0.19831-0.58391 0.58391-0.89973 0.38927-0.31583 0.97685-0.31583 0.43334 0 0.76018 0.17627 0.32684 0.17261 0.53984 0.50312 0.213 0.32684 0.33419 0.80058 0.12119 0.47007 0.12119 1.2706 0 0.94748-0.19464 1.5314-0.19464 0.58024-0.58391 0.89973-0.3856 0.31583-0.97685 0.31583-0.77855 0-1.2229-0.5582-0.5325-0.67205-0.5325-2.1888zm0.67939 0q0 1.3257 0.30848 1.7664 0.31215 0.43701 0.76753 0.43701 0.45538 0 0.76386-0.44068 0.31215-0.44069 0.31215-1.7628 0-1.3294-0.31215-1.7664-0.30848-0.43701-0.7712-0.43701-0.45538 0-0.72713 0.3856-0.34153 0.49209-0.34153 1.8178z" opacity=".994"/></g><path d="m123.75 143.24h27.781v14.288h-27.781z" fill="#0000c8" opacity=".994" stroke-width="6.2372"/><path d="m143.29 164.36v-27.936l24.193 13.968-12.097 6.984z" fill="#0000c8" opacity=".994" stroke-width="7.4656"/><g fill="#ffffff"><path d="m126.7 151.39 0.0955 0.5839q-0.2791 0.0588-0.49944 0.0588-0.35989 0-0.5582-0.11384-0.19831-0.11385-0.2791-0.29746-0.0808-0.1873-0.0808-0.78222v-2.2438h-0.48475v-0.51413h0.48475v-0.96584l0.65736-0.39662v1.3625h0.6647v0.51413h-0.6647v2.2806q0 0.28278 0.0331 0.36357 0.0367 0.0808 0.11385 0.12853 0.0808 0.0477 0.22768 0.0477 0.11017 0 0.29012-0.0257z" opacity=".994"/><path d="m127.34 151.98v-3.9001h0.59492v0.59125q0.22769-0.41498 0.41865-0.54718 0.19464-0.13221 0.426-0.13221 0.33419 0 0.67939 0.213l-0.22769 0.61329q-0.24237-0.14323-0.48475-0.14323-0.21667 0-0.38927 0.13221-0.17261 0.12853-0.24605 0.35989-0.11017 0.35255-0.11017 0.7712v2.0418z" opacity=".994"/><path d="m132.39 151.5q-0.36724 0.31215-0.70877 0.44068-0.33786 0.12854-0.72713 0.12854-0.64267 0-0.98788-0.31216-0.3452-0.31582-0.3452-0.80425 0-0.28644 0.12853-0.52148 0.13221-0.2387 0.34154-0.38192 0.21299-0.14323 0.47741-0.21668 0.19463-0.0514 0.58758-0.0992 0.80058-0.0955 1.1788-0.22769 4e-3 -0.13588 4e-3 -0.1726 0-0.40396-0.18729-0.56922-0.25339-0.22401-0.75284-0.22401-0.46639 0-0.6904 0.16525-0.22035 0.16159-0.32685 0.57657l-0.64634-0.0881q0.0881-0.41498 0.29012-0.66837 0.20198-0.25707 0.58391-0.39295 0.38193-0.13955 0.88505-0.13955 0.49944 0 0.81159 0.11752 0.31215 0.11751 0.45905 0.29746 0.1469 0.17627 0.20565 0.44803 0.0331 0.16893 0.0331 0.60962v0.88137q0 0.92177 0.0404 1.1678 0.0441 0.24237 0.16893 0.46639h-0.69041q-0.10282-0.20565-0.1322-0.48108zm-0.0551-1.4763q-0.35989 0.14689-1.0797 0.24972-0.40763 0.0588-0.57656 0.13221-0.16893 0.0734-0.26074 0.21667-0.0918 0.13955-0.0918 0.31215 0 0.26441 0.19831 0.44069 0.20198 0.17627 0.58758 0.17627 0.38193 0 0.67939-0.16526 0.29746-0.16893 0.43701-0.45904 0.1065-0.22402 0.1065-0.66103z" opacity=".994"/><path d="m134.03 151.98v-3.9001h0.59493v0.55453q0.42966-0.64267 1.2413-0.64267 0.35255 0 0.64634 0.12853 0.29746 0.12487 0.44436 0.33052 0.14689 0.20565 0.20565 0.48843 0.0367 0.18362 0.0367 0.64266v2.3981h-0.66103v-2.3724q0-0.40396-0.0771-0.60227-0.0771-0.20198-0.27543-0.3195-0.19464-0.12119-0.45905-0.12119-0.42232 0-0.7308 0.26809-0.30481 0.26808-0.30481 1.0172v2.13z" opacity=".994"/><path d="m137.95 150.81 0.65369-0.10282q0.0551 0.39294 0.3048 0.60227 0.2534 0.20932 0.7051 0.20932 0.45538 0 0.67572-0.18362 0.22034-0.18729 0.22034-0.43701 0-0.22401-0.19463-0.35255-0.13588-0.0881-0.67572-0.22401-0.72713-0.18362-1.0099-0.31583-0.2791-0.13588-0.42599-0.37091-0.14323-0.2387-0.14323-0.52515 0-0.26074 0.11752-0.48108 0.12119-0.22402 0.32684-0.37091 0.15424-0.11385 0.41865-0.19097 0.26809-0.0808 0.5729-0.0808 0.45904 0 0.80425 0.13221 0.34887 0.1322 0.51413 0.35989 0.16526 0.22402 0.22769 0.60227l-0.64634 0.0881q-0.0441-0.30114-0.25707-0.47007-0.20932-0.16893-0.59492-0.16893-0.45538 0-0.65002 0.15057-0.19463 0.15057-0.19463 0.35255 0 0.12853 0.0808 0.23136 0.0808 0.1065 0.2534 0.17627 0.0991 0.0367 0.5839 0.16893 0.70143 0.1873 0.97686 0.30848 0.2791 0.11752 0.43701 0.34521t0.15791 0.56555q0 0.33051-0.19463 0.6243-0.19097 0.29012-0.55453 0.4517-0.36357 0.15792-0.82262 0.15792-0.76018 0-1.1605-0.31583-0.39662-0.31582-0.50679-0.93646z" opacity=".994"/><path d="m144.52 151.5q-0.36724 0.31215-0.70877 0.44068-0.33786 0.12854-0.72714 0.12854-0.64266 0-0.98787-0.31216-0.3452-0.31582-0.3452-0.80425 0-0.28644 0.12853-0.52148 0.13221-0.2387 0.34153-0.38192 0.213-0.14323 0.47741-0.21668 0.19464-0.0514 0.58759-0.0992 0.80058-0.0955 1.1788-0.22769 4e-3 -0.13588 4e-3 -0.1726 0-0.40396-0.18729-0.56922-0.25339-0.22401-0.75284-0.22401-0.46639 0-0.69041 0.16525-0.22034 0.16159-0.32684 0.57657l-0.64634-0.0881q0.0881-0.41498 0.29012-0.66837 0.20198-0.25707 0.58391-0.39295 0.38193-0.13955 0.88504-0.13955 0.49945 0 0.8116 0.11752 0.31215 0.11751 0.45905 0.29746 0.14689 0.17627 0.20565 0.44803 0.0331 0.16893 0.0331 0.60962v0.88137q0 0.92177 0.0404 1.1678 0.0441 0.24237 0.16893 0.46639h-0.69041q-0.10282-0.20565-0.1322-0.48108zm-0.0551-1.4763q-0.35989 0.14689-1.0797 0.24972-0.40763 0.0588-0.57656 0.13221-0.16893 0.0734-0.26074 0.21667-0.0918 0.13955-0.0918 0.31215 0 0.26441 0.19831 0.44069 0.20198 0.17627 0.58758 0.17627 0.38192 0 0.67939-0.16526 0.29746-0.16893 0.43701-0.45904 0.1065-0.22402 0.1065-0.66103z" opacity=".994"/><path d="m148.7 150.55 0.65001 0.0845q-0.1065 0.67204-0.54718 1.054-0.43702 0.37826-1.076 0.37826-0.80058 0-1.289-0.52148-0.48475-0.52515-0.48475-1.502 0-0.63165 0.20932-1.1054 0.20933-0.47374 0.63533-0.70877 0.42966-0.23871 0.93278-0.23871 0.63532 0 1.0393 0.32317 0.40396 0.3195 0.5178 0.91075l-0.64267 0.0992q-0.0918-0.39295-0.32684-0.59126-0.23136-0.19831-0.56187-0.19831-0.49945 0-0.8116 0.3599-0.31215 0.35622-0.31215 1.1311 0 0.78589 0.30113 1.1421 0.30114 0.35622 0.78589 0.35622 0.38928 0 0.65002-0.2387 0.26074-0.23871 0.33051-0.73448z" opacity=".994"/><path d="m151.36 151.39 0.0955 0.5839q-0.2791 0.0588-0.49945 0.0588-0.35989 0-0.5582-0.11384-0.19831-0.11385-0.2791-0.29746-0.0808-0.1873-0.0808-0.78222v-2.2438h-0.48476v-0.51413h0.48476v-0.96584l0.65735-0.39662v1.3625h0.6647v0.51413h-0.6647v2.2806q0 0.28278 0.033 0.36357 0.0367 0.0808 0.11385 0.12853 0.0808 0.0477 0.22769 0.0477 0.11017 0 0.29011-0.0257z" opacity=".994"/><path d="m152.01 147.35v-0.76018h0.66103v0.76018zm0 4.6235v-3.9001h0.66103v3.9001z" opacity=".994"/><path d="m153.43 150.03q0-1.0834 0.60227-1.6048 0.50312-0.43334 1.2266-0.43334 0.80425 0 1.3147 0.52882 0.51046 0.52516 0.51046 1.4543 0 0.75284-0.22769 1.1862-0.22401 0.42967-0.65735 0.66837-0.42967 0.23871-0.94013 0.23871-0.81895 0-1.3257-0.52515-0.50312-0.52516-0.50312-1.513zm0.67939 0q0 0.74917 0.32684 1.1238 0.32684 0.37091 0.82262 0.37091 0.4921 0 0.81894-0.37458t0.32684-1.1421q0-0.72346-0.33051-1.0944-0.32685-0.37458-0.81527-0.37458-0.49578 0-0.82262 0.37091t-0.32684 1.1201z" opacity=".994"/><path d="m157.86 151.98v-3.9001h0.59493v0.55453q0.42967-0.64267 1.2413-0.64267 0.35255 0 0.64634 0.12853 0.29747 0.12487 0.44436 0.33052 0.1469 0.20565 0.20565 0.48843 0.0367 0.18362 0.0367 0.64266v2.3981h-0.66103v-2.3724q0-0.40396-0.0771-0.60227-0.0771-0.20198-0.27543-0.3195-0.19464-0.12119-0.45905-0.12119-0.42232 0-0.7308 0.26809-0.30481 0.26808-0.30481 1.0172v2.13z" opacity=".994"/></g><path d="m91.687 136.17h28.443v28.443h-28.443z" fill="#0000c8" opacity=".994" stroke-width="6.9"/><g fill="#ffffff"><path d="m94.861 151.88 0.65368-0.10282q0.05509 0.39294 0.30481 0.60227 0.25339 0.20932 0.7051 0.20932 0.45538 0 0.67572-0.18362 0.22034-0.18729 0.22034-0.43701 0-0.22401-0.19464-0.35255-0.13588-0.0881-0.67572-0.22401-0.72713-0.18362-1.0099-0.31583-0.2791-0.13588-0.426-0.37091-0.14322-0.2387-0.14322-0.52515 0-0.26074 0.11752-0.48108 0.12119-0.22402 0.32684-0.37091 0.15424-0.11385 0.41865-0.19097 0.26808-0.0808 0.57289-0.0808 0.45905 0 0.80425 0.13221 0.34888 0.1322 0.51413 0.35989 0.16526 0.22402 0.22769 0.60227l-0.64634 0.0881q-0.04407-0.30114-0.25707-0.47007-0.20933-0.16893-0.59493-0.16893-0.45538 0-0.65001 0.15057-0.19464 0.15057-0.19464 0.35255 0 0.12853 0.08079 0.23136 0.08079 0.1065 0.25339 0.17627 0.09915 0.0367 0.58391 0.16893 0.70142 0.1873 0.97685 0.30848 0.2791 0.11752 0.43701 0.34521 0.15791 0.22769 0.15791 0.56555 0 0.33051-0.19464 0.6243-0.19096 0.29012-0.55453 0.4517-0.36357 0.15792-0.82261 0.15792-0.76018 0-1.1605-0.31583-0.39662-0.31582-0.50679-0.93646z" opacity=".994"/><path d="m100.33 152.46 0.0955 0.5839q-0.2791 0.0588-0.49945 0.0588-0.35989 0-0.5582-0.11384-0.19831-0.11385-0.2791-0.29746-0.08079-0.1873-0.08079-0.78222v-2.2438h-0.48475v-0.51413h0.48475v-0.96584l0.65736-0.39662v1.3625h0.66469v0.51413h-0.66469v2.2806q0 0.28278 0.03305 0.36357 0.03672 0.0808 0.11384 0.12853 0.08079 0.0477 0.22769 0.0477 0.11017 0 0.29011-0.0257z" opacity=".994"/><path d="m103.52 152.57q-0.36724 0.31215-0.70877 0.44068-0.33786 0.12854-0.72714 0.12854-0.64266 0-0.98787-0.31216-0.3452-0.31582-0.3452-0.80425 0-0.28644 0.12853-0.52148 0.13221-0.2387 0.34153-0.38192 0.213-0.14323 0.47741-0.21668 0.19464-0.0514 0.58758-0.0991 0.80058-0.0955 1.1788-0.22769 4e-3 -0.13588 4e-3 -0.1726 0-0.40396-0.18729-0.56922-0.25339-0.22401-0.75284-0.22401-0.46639 0-0.69041 0.16525-0.22034 0.16159-0.32684 0.57657l-0.64634-0.0881q0.0881-0.41498 0.29012-0.66837 0.20198-0.25707 0.58391-0.39295 0.38193-0.13955 0.88504-0.13955 0.49945 0 0.8116 0.11752 0.31215 0.11751 0.45905 0.29746 0.14689 0.17627 0.20565 0.44803 0.0331 0.16893 0.0331 0.60962v0.88137q0 0.92177 0.0404 1.1678 0.0441 0.24237 0.16893 0.46639h-0.69041q-0.10283-0.20565-0.1322-0.48108zm-0.0551-1.4763q-0.35989 0.14689-1.0797 0.24972-0.40764 0.0588-0.57656 0.13221-0.16893 0.0734-0.26074 0.21667-0.0918 0.13955-0.0918 0.31215 0 0.26441 0.19831 0.44069 0.20198 0.17627 0.58758 0.17627 0.38192 0 0.67939-0.16526 0.29746-0.16893 0.43701-0.45905 0.1065-0.22401 0.1065-0.66102z" opacity=".994"/><path d="m106.6 152.46 0.0955 0.5839q-0.2791 0.0588-0.49945 0.0588-0.35989 0-0.5582-0.11384-0.19831-0.11385-0.2791-0.29746-0.0808-0.1873-0.0808-0.78222v-2.2438h-0.48476v-0.51413h0.48476v-0.96584l0.65735-0.39662v1.3625h0.6647v0.51413h-0.6647v2.2806q0 0.28278 0.033 0.36357 0.0367 0.0808 0.11385 0.12853 0.0808 0.0477 0.22769 0.0477 0.11017 0 0.29011-0.0257z" opacity=".994"/><path d="m109.92 151.79 0.68306 0.0845q-0.16159 0.5986-0.5986 0.92911-0.43701 0.33052-1.1164 0.33052-0.85567 0-1.3588-0.52515-0.49945-0.52883-0.49945-1.48 0-0.98419 0.50679-1.5277 0.50679-0.54351 1.3147-0.54351 0.78222 0 1.278 0.5325 0.49577 0.53249 0.49577 1.4983 0 0.0588-4e-3 0.17627h-2.9085q0.0367 0.64267 0.36357 0.9842 0.32684 0.34153 0.81527 0.34153 0.36357 0 0.62063-0.19096 0.25707-0.19096 0.40764-0.60962zm-2.1704-1.0687h2.1777q-0.0441-0.4921-0.24972-0.73815-0.31583-0.38193-0.81894-0.38193-0.45538 0-0.76753 0.30481-0.30848 0.30481-0.34153 0.81527z" opacity=".994"/><path d="m115.83 153.05h-0.66103v-4.2122q-0.2387 0.22768-0.62798 0.45537-0.3856 0.22769-0.69408 0.34153v-0.63899q0.55453-0.26074 0.96951-0.63165t0.58758-0.71979h0.426z" opacity=".994"/></g><path d="m170.94 136.17h28.443v28.443h-28.443z" fill="#0000c8" opacity=".994" stroke-width="6.9"/><g fill="#ffffff"><path d="m174.11 151.88 0.65368-0.10282q0.0551 0.39294 0.30481 0.60227 0.25339 0.20932 0.7051 0.20932 0.45537 0 0.67572-0.18362 0.22034-0.18729 0.22034-0.43701 0-0.22401-0.19464-0.35255-0.13588-0.0881-0.67572-0.22401-0.72713-0.18362-1.0099-0.31583-0.2791-0.13588-0.426-0.37091-0.14322-0.2387-0.14322-0.52515 0-0.26074 0.11752-0.48108 0.12118-0.22402 0.32684-0.37091 0.15424-0.11385 0.41865-0.19097 0.26808-0.0808 0.57289-0.0808 0.45905 0 0.80425 0.13221 0.34888 0.1322 0.51414 0.35989 0.16525 0.22402 0.22768 0.60227l-0.64634 0.0881q-0.0441-0.30114-0.25706-0.47007-0.20933-0.16893-0.59493-0.16893-0.45537 0-0.65001 0.15057t-0.19464 0.35255q0 0.12853 0.0808 0.23136 0.0808 0.1065 0.25339 0.17627 0.0991 0.0367 0.58391 0.16893 0.70142 0.1873 0.97685 0.30848 0.2791 0.11752 0.43702 0.34521 0.15791 0.22769 0.15791 0.56555 0 0.33051-0.19464 0.6243-0.19096 0.29012-0.55453 0.4517-0.36356 0.15792-0.82261 0.15792-0.76018 0-1.1605-0.31583-0.39662-0.31582-0.50679-0.93646z" opacity=".994"/><path d="m179.58 152.46 0.0955 0.5839q-0.2791 0.0588-0.49945 0.0588-0.35989 0-0.5582-0.11384-0.19831-0.11385-0.2791-0.29746-0.0808-0.1873-0.0808-0.78222v-2.2438h-0.48476v-0.51413h0.48476v-0.96584l0.65735-0.39662v1.3625h0.66471v0.51413h-0.66471v2.2806q0 0.28278 0.0331 0.36357 0.0367 0.0808 0.11384 0.12853 0.0808 0.0477 0.22769 0.0477 0.11017 0 0.29012-0.0257z" opacity=".994"/><path d="m182.77 152.57q-0.36724 0.31215-0.70877 0.44068-0.33786 0.12854-0.72714 0.12854-0.64266 0-0.98787-0.31216-0.3452-0.31582-0.3452-0.80425 0-0.28644 0.12853-0.52148 0.13221-0.2387 0.34153-0.38192 0.213-0.14323 0.47741-0.21668 0.19464-0.0514 0.58759-0.0991 0.80057-0.0955 1.1788-0.22769 4e-3 -0.13588 4e-3 -0.1726 0-0.40396-0.18729-0.56922-0.25339-0.22401-0.75284-0.22401-0.46639 0-0.69041 0.16525-0.22034 0.16159-0.32684 0.57657l-0.64634-0.0881q0.0881-0.41498 0.29012-0.66837 0.20198-0.25707 0.58391-0.39295 0.38193-0.13955 0.88504-0.13955 0.49945 0 0.8116 0.11752 0.31215 0.11751 0.45905 0.29746 0.14689 0.17627 0.20565 0.44803 0.0331 0.16893 0.0331 0.60962v0.88137q0 0.92177 0.0404 1.1678 0.0441 0.24237 0.16893 0.46639h-0.69041q-0.10282-0.20565-0.1322-0.48108zm-0.0551-1.4763q-0.35989 0.14689-1.0797 0.24972-0.40763 0.0588-0.57656 0.13221-0.16893 0.0734-0.26074 0.21667-0.0918 0.13955-0.0918 0.31215 0 0.26441 0.19831 0.44069 0.20198 0.17627 0.58758 0.17627 0.38192 0 0.67939-0.16526 0.29746-0.16893 0.43701-0.45905 0.1065-0.22401 0.1065-0.66102z" opacity=".994"/><path d="m185.85 152.46 0.0955 0.5839q-0.2791 0.0588-0.49945 0.0588-0.35989 0-0.5582-0.11384-0.19831-0.11385-0.2791-0.29746-0.0808-0.1873-0.0808-0.78222v-2.2438h-0.48476v-0.51413h0.48476v-0.96584l0.65735-0.39662v1.3625h0.6647v0.51413h-0.6647v2.2806q0 0.28278 0.0331 0.36357 0.0367 0.0808 0.11384 0.12853 0.0808 0.0477 0.22769 0.0477 0.11017 0 0.29011-0.0257z" opacity=".994"/><path d="m189.17 151.79 0.68306 0.0845q-0.16158 0.5986-0.5986 0.92911-0.43701 0.33052-1.1164 0.33052-0.85567 0-1.3588-0.52515-0.49945-0.52883-0.49945-1.48 0-0.98419 0.50679-1.5277 0.50679-0.54351 1.3147-0.54351 0.78222 0 1.278 0.5325 0.49577 0.53249 0.49577 1.4983 0 0.0588-4e-3 0.17627h-2.9085q0.0367 0.64267 0.36357 0.9842 0.32684 0.34153 0.81527 0.34153 0.36357 0 0.62063-0.19096 0.25707-0.19096 0.40764-0.60962zm-2.1704-1.0687h2.1777q-0.0441-0.4921-0.24972-0.73815-0.31583-0.38193-0.81894-0.38193-0.45538 0-0.76753 0.30481-0.30848 0.30481-0.34153 0.81527z" opacity=".994"/><path d="m196.06 152.41v0.63532h-3.5585q-7e-3 -0.23871 0.0771-0.45905 0.13588-0.36356 0.43334-0.71611 0.30114-0.35255 0.86668-0.81527 0.8777-0.71979 1.1862-1.1384 0.30848-0.42233 0.30848-0.79691 0-0.39294-0.28277-0.66103-0.2791-0.27175-0.7308-0.27175-0.47741 0-0.76386 0.28644-0.28644 0.28645-0.29012 0.79324l-0.67939-0.0698q0.0698-0.76018 0.52515-1.1568 0.45538-0.40029 1.2229-0.40029 0.77487 0 1.2266 0.42967 0.45171 0.42967 0.45171 1.065 0 0.32317-0.13221 0.63532-0.13221 0.31216-0.44069 0.65736-0.3048 0.3452-1.0172 0.94747-0.59492 0.49945-0.76385 0.6794-0.16893 0.17627-0.2791 0.35622z" opacity=".994"/></g></g></svg>
