<?xml version="1.0" encoding="UTF-8"?>
<svg width="846.6mm" height="635.15mm" version="1.1" viewBox="0 0 846.6 635.15" xmlns="http://www.w3.org/2000/svg" xmlns:xlink="http://www.w3.org/1999/xlink"><defs><linearGradient id="e" x1="197.01" x2="197.01" y1="187.61" y2="141.78" gradientTransform="matrix(1 0 0 1.2207 108.2 -30.571)" gradientUnits="userSpaceOnUse" xlink:href="#a"/><linearGradient id="a"><stop stop-color="#0000ff" offset="0"/><stop stop-color="#ff0001" offset="1"/></linearGradient><linearGradient id="d" x1="197.01" x2="197.01" y1="187.61" y2="141.78" gradientTransform="matrix(1 0 0 2.4773 -356.94 -358.36)" gradientUnits="userSpaceOnUse" xlink:href="#a"/><linearGradient id="c" x1="197.01" x2="197.01" y1="187.61" y2="141.78" gradientTransform="matrix(1 0 0 1.2207 -280.13 -639.51)" gradientUnits="userSpaceOnUse" xlink:href="#a"/><linearGradient id="b" x1="197.01" x2="197.01" y1="187.61" y2="141.78" gradientTransform="matrix(1 0 0 1.2207 -432.9 -639.51)" gradientUnits="userSpaceOnUse" xlink:href="#a"/></defs><g transform="translate(186.69 165.87)"><rect transform="matrix(-.82584 -.5639 -.5639 .82584 0 0)" x="-494.75" y="-414.19" width="16.447" height="219.87" fill="#0000ff" stroke-linejoin="round" stroke-width="1.973"/><g transform="rotate(106.34 246.24 157.4)" fill="#ff0000" stroke-linejoin="round"><rect x="305.2" y="114.2" width="16.447" height="45.828" stroke-width=".90077"/><rect x="305.2" y="183.1" width="16.447" height="45.828" stroke-width=".90077"/><rect x="305.2" y="142.51" width="16.447" height="55.944" stroke-width=".99524"/></g><g transform="matrix(0 -1 -1 0 209.16 1290.8)" fill="#0000ff"><rect x="1383.9" y="281.41" width="16.447" height="48.863"/><rect x="1385.2" y="343.51" width="13.859" height="13.859"/><rect x="1386.8" y="368.05" width="10.709" height="10.709"/><rect x="1388.4" y="388.28" width="7.5595" height="7.5595"/></g><g transform="matrix(0 -1 -1 0 209.16 1796.9)" fill="#ff0000"><rect x="1383.9" y="281.41" width="16.447" height="48.863"/><rect x="1385.2" y="343.51" width="13.859" height="13.859"/><rect x="1386.8" y="368.05" width="10.709" height="10.709"/><rect x="1388.4" y="388.28" width="7.5595" height="7.5595"/></g><path d="m82.453 444.29a25.002 25.002 0 0 1-25 25h-119.06a25.002 25.002 0 0 1-25-25v-27.515a27.06 27.06 0 0 0 24.242 15.038 27.06 27.06 0 0 0 27.06-27.06 27.06 27.06 0 0 0-27.06-27.06 27.06 27.06 0 0 0-24.242 15.038v-27.515a25.002 25.002 0 0 1 25-25h119.06a25.002 25.002 0 0 1 25 25z" color="#000000" color-rendering="auto" dominant-baseline="auto" fill="#fe0000" image-rendering="auto" shape-rendering="auto" solid-color="#000000" stop-color="#000000" style="font-feature-settings:normal;font-variant-alternates:normal;font-variant-caps:normal;font-variant-east-asian:normal;font-variant-ligatures:normal;font-variant-numeric:normal;font-variant-position:normal;font-variation-settings:normal;inline-size:0;isolation:auto;mix-blend-mode:normal;shape-margin:0;shape-padding:0;text-decoration-color:#000000;text-decoration-line:none;text-decoration-style:solid;text-indent:0;text-orientation:mixed;text-transform:none;white-space:normal"/><circle transform="matrix(0,-1,-1,0,0,0)" cx="-404.75" cy="61.719" r="21.268" fill="#ff0001" stroke-linejoin="round"/><path d="m274.94 444.29a25.002 25.002 0 0 1-25 25h-119.06a25.002 25.002 0 0 1-25-25v-27.515a27.06 27.06 0 0 0 24.242 15.038 27.06 27.06 0 0 0 27.06-27.06 27.06 27.06 0 0 0-27.06-27.06 27.06 27.06 0 0 0-24.242 15.038v-27.515a25.002 25.002 0 0 1 25-25h119.06a25.002 25.002 0 0 1 25 25z" color="#000000" color-rendering="auto" dominant-baseline="auto" fill="#fe0000" image-rendering="auto" shape-rendering="auto" solid-color="#000000" stop-color="#000000" style="font-feature-settings:normal;font-variant-alternates:normal;font-variant-caps:normal;font-variant-east-asian:normal;font-variant-ligatures:normal;font-variant-numeric:normal;font-variant-position:normal;font-variation-settings:normal;inline-size:0;isolation:auto;mix-blend-mode:normal;shape-margin:0;shape-padding:0;text-decoration-color:#000000;text-decoration-line:none;text-decoration-style:solid;text-indent:0;text-orientation:mixed;text-transform:none;white-space:normal"/><circle transform="matrix(0,-1,-1,0,0,0)" cx="-404.75" cy="-130.77" r="21.268" fill="#ff0001" stroke-linejoin="round"/><rect transform="matrix(0,-1,-1,0,0,0)" x="-412.97" y="-131.62" width="16.447" height="127.61" fill="#ff0001" stroke-linejoin="round" stroke-width="1.5031"/><g fill="#0000ff"><path d="m82.453-61.794a25.002 25.002 0 0 1-25 25h-119.06a25.002 25.002 0 0 1-25-25v-27.515a27.06 27.06 0 0 0 24.242 15.038 27.06 27.06 0 0 0 27.06-27.06 27.06 27.06 0 0 0-27.06-27.06 27.06 27.06 0 0 0-24.242 15.038v-27.515a25.002 25.002 0 0 1 25-25h119.06a25.002 25.002 0 0 1 25 25z" color="#000000" color-rendering="auto" dominant-baseline="auto" image-rendering="auto" shape-rendering="auto" solid-color="#000000" stop-color="#000000" style="font-feature-settings:normal;font-variant-alternates:normal;font-variant-caps:normal;font-variant-east-asian:normal;font-variant-ligatures:normal;font-variant-numeric:normal;font-variant-position:normal;font-variation-settings:normal;inline-size:0;isolation:auto;mix-blend-mode:normal;shape-margin:0;shape-padding:0;text-decoration-color:#000000;text-decoration-line:none;text-decoration-style:solid;text-indent:0;text-orientation:mixed;text-transform:none;white-space:normal"/><g stroke-linejoin="round"><circle transform="matrix(0,-1,-1,0,0,0)" cx="101.33" cy="61.719" r="21.268"/><circle transform="matrix(0,-1,-1,0,0,0)" cx="101.33" cy="-130.77" r="21.268"/><rect transform="matrix(0,-1,-1,0,0,0)" x="93.107" y="-131.62" width="16.447" height="127.61" stroke-width="1.5031"/></g><path d="m274.94-61.794a25.002 25.002 0 0 1-25 25h-119.06a25.002 25.002 0 0 1-25-25v-27.515a27.06 27.06 0 0 0 24.242 15.038 27.06 27.06 0 0 0 27.06-27.06 27.06 27.06 0 0 0-27.06-27.06 27.06 27.06 0 0 0-24.242 15.038v-27.515a25.002 25.002 0 0 1 25-25h119.06a25.002 25.002 0 0 1 25 25z" color="#000000" color-rendering="auto" dominant-baseline="auto" image-rendering="auto" shape-rendering="auto" solid-color="#000000" stop-color="#000000" style="font-feature-settings:normal;font-variant-alternates:normal;font-variant-caps:normal;font-variant-east-asian:normal;font-variant-ligatures:normal;font-variant-numeric:normal;font-variant-position:normal;font-variation-settings:normal;inline-size:0;isolation:auto;mix-blend-mode:normal;shape-margin:0;shape-padding:0;text-decoration-color:#000000;text-decoration-line:none;text-decoration-style:solid;text-indent:0;text-orientation:mixed;text-transform:none;white-space:normal"/></g><path d="m467.43 444.29a25.002 25.002 0 0 1-25 25h-119.06a25.002 25.002 0 0 1-25-25v-27.515a27.06 27.06 0 0 0 24.242 15.038 27.06 27.06 0 0 0 27.06-27.06 27.06 27.06 0 0 0-27.06-27.06 27.06 27.06 0 0 0-24.242 15.038v-27.515a25.002 25.002 0 0 1 25-25h119.06a25.002 25.002 0 0 1 25 25z" color="#000000" color-rendering="auto" dominant-baseline="auto" fill="#fe0000" image-rendering="auto" shape-rendering="auto" solid-color="#000000" stop-color="#000000" style="font-feature-settings:normal;font-variant-alternates:normal;font-variant-caps:normal;font-variant-east-asian:normal;font-variant-ligatures:normal;font-variant-numeric:normal;font-variant-position:normal;font-variation-settings:normal;inline-size:0;isolation:auto;mix-blend-mode:normal;shape-margin:0;shape-padding:0;text-decoration-color:#000000;text-decoration-line:none;text-decoration-style:solid;text-indent:0;text-orientation:mixed;text-transform:none;white-space:normal"/><circle transform="matrix(0,-1,-1,0,0,0)" cx="-404.75" cy="-323.25" r="21.268" fill="#ff0001" stroke-linejoin="round"/><rect transform="matrix(0,-1,-1,0,0,0)" x="-412.97" y="-324.11" width="16.447" height="127.61" fill="#ff0001" stroke-linejoin="round" stroke-width="1.5031"/><g fill="#0000ff"><circle transform="matrix(0,-1,-1,0,0,0)" cx="101.33" cy="-323.25" r="21.268" stroke-linejoin="round"/><rect transform="matrix(0,-1,-1,0,0,0)" x="93.107" y="-324.11" width="16.447" height="127.61" stroke-linejoin="round" stroke-width="1.5031"/><path d="m467.43-61.794a25.002 25.002 0 0 1-25 25h-119.06a25.002 25.002 0 0 1-25-25v-27.515a27.06 27.06 0 0 0 24.242 15.038 27.06 27.06 0 0 0 27.06-27.06 27.06 27.06 0 0 0-27.06-27.06 27.06 27.06 0 0 0-24.242 15.038v-27.515a25.002 25.002 0 0 1 25-25h119.06a25.002 25.002 0 0 1 25 25z" color="#000000" color-rendering="auto" dominant-baseline="auto" image-rendering="auto" shape-rendering="auto" solid-color="#000000" stop-color="#000000" style="font-feature-settings:normal;font-variant-alternates:normal;font-variant-caps:normal;font-variant-east-asian:normal;font-variant-ligatures:normal;font-variant-numeric:normal;font-variant-position:normal;font-variation-settings:normal;inline-size:0;isolation:auto;mix-blend-mode:normal;shape-margin:0;shape-padding:0;text-decoration-color:#000000;text-decoration-line:none;text-decoration-style:solid;text-indent:0;text-orientation:mixed;text-transform:none;white-space:normal"/><rect transform="matrix(-.82584 -.5639 -.5639 .82584 0 0)" x="-171.55" y="-190.4" width="16.447" height="219.87" stroke-linejoin="round" stroke-width="1.973"/></g><g transform="matrix(-.63343 -.7738 -.7738 .63343 35.371 419.8)"><rect transform="rotate(90)" x="-249.5" y="-425.21" width="16.447" height="219.87" fill="#0000ff" stroke-linejoin="round" stroke-width="1.973"/><text x="249.67889" y="-236.38449" fill="#000000" font-family="sans-serif" font-size="13.172px" stroke-width=".32931" style="line-height:1.25" xml:space="preserve"><tspan x="249.67889" y="-236.38449" fill="#ffffff" font-family="sans-serif" font-weight="bold" stroke-width=".32931">← communication</tspan></text></g><g transform="matrix(0 -1 -1 0 209.16 1543.8)" fill="#0000ff"><rect x="1383.9" y="281.41" width="16.447" height="48.863"/><rect x="1385.2" y="343.51" width="13.859" height="13.859"/><rect x="1386.8" y="368.05" width="10.709" height="10.709"/><rect x="1388.4" y="388.28" width="7.5595" height="7.5595"/></g><g stroke-linejoin="round"><rect transform="matrix(0,-1,-1,0,0,0)" x="-159.93" y="-46.884" width="16.447" height="127.61" fill="#ff0001" stroke-width="1.5031"/><rect transform="matrix(0,-1,-1,0,0,0)" x="-159.93" y="-7.1255" width="16.447" height="113.53" fill="url(#d)" stroke-width="1.4178"/><rect transform="matrix(-.82584 -.5639 -.5639 .82584 0 0)" x="-191.02" y="102.55" width="16.447" height="219.87" fill="#ff0000" stroke-width="1.973"/><rect transform="matrix(-.7738 .63343 .63343 .7738 0 0)" x="-10.957" y="-77.961" width="16.447" height="219.87" fill="#0000ff" stroke-width="1.973"/><path d="m183.99 105.6a25.005 25.005 0 0 1 0.86286 6.4864l0.0727 79.082a25.005 25.005 0 0 1-24.98 25.026l-119.07 0.10938a25.005 25.005 0 0 1-24.163-18.493z" fill="#ff0000" stroke-width="1.6576"/></g><g transform="matrix(0 -1 -1 0 480.23 356.94)" fill="#0000ff" stroke-linejoin="round"><path d="m256.86 297.94a25.005 25.005 0 0 0-5.5242-2.2245l-92.21 167.28a25.005 25.005 0 0 0 6.4864 0.86286l27.518 0.0252a27.062 27.062 0 0 1-15.017-24.258 27.062 27.062 0 0 1 27.087-27.038 27.062 27.062 0 0 1 27.038 27.087 27.062 27.062 0 0 1-15.062 24.231l27.518 0.0253a25.005 25.005 0 0 0 25.026-24.98l0.10939-119.07a25.005 25.005 0 0 0-12.969-21.938z" stroke-width="1.6576"/><path d="m256.86 297.94a25.005 25.005 0 0 0-12.011-3.0874l-70.205-0.0645a68.194 68.194 0 0 0 30.586 84.568 68.194 68.194 0 0 0 64.543 0.69693l0.0553-60.175a25.005 25.005 0 0 0-12.969-21.938z" stroke-width="1.623"/></g><path d="m100.91 151.77a68.194 68.194 0 0 1 0.66098 64.478l-60.175 0.0553a25.005 25.005 0 0 1-25.026-24.98l-0.0251-27.518a27.062 27.062 0 0 0 24.258 15.017 27.062 27.062 0 0 0 27.038-27.087 27.062 27.062 0 0 0-27.087-27.038 27.062 27.062 0 0 0-24.231 15.062l-0.0172-18.64a68.194 68.194 0 0 1 84.568 30.586 68.194 68.194 0 0 1 0.036 0.0652z" fill="#ff0000" stroke-linejoin="round" stroke-width="1.623"/><circle transform="matrix(0,-1,-1,0,0,0)" cx="-151.81" cy="-40.507" r="21.268" fill="#ff0001" stroke-linejoin="round"/><path d="m659.91 444.29a25.002 25.002 0 0 1-25 25h-119.06a25.002 25.002 0 0 1-25-25v-27.515a27.06 27.06 0 0 0 24.242 15.038 27.06 27.06 0 0 0 27.06-27.06 27.06 27.06 0 0 0-27.06-27.06 27.06 27.06 0 0 0-24.242 15.038v-27.515a25.002 25.002 0 0 1 25-25h119.06a25.002 25.002 0 0 1 25 25z" color="#000000" color-rendering="auto" dominant-baseline="auto" fill="#fe0000" image-rendering="auto" shape-rendering="auto" solid-color="#000000" stop-color="#000000" style="font-feature-settings:normal;font-variant-alternates:normal;font-variant-caps:normal;font-variant-east-asian:normal;font-variant-ligatures:normal;font-variant-numeric:normal;font-variant-position:normal;font-variation-settings:normal;inline-size:0;isolation:auto;mix-blend-mode:normal;shape-margin:0;shape-padding:0;text-decoration-color:#000000;text-decoration-line:none;text-decoration-style:solid;text-indent:0;text-orientation:mixed;text-transform:none;white-space:normal"/><circle transform="matrix(0,-1,-1,0,0,0)" cx="-404.75" cy="-515.74" r="21.268" fill="#ff0001" stroke-linejoin="round"/><rect transform="matrix(0,-1,-1,0,0,0)" x="-412.97" y="-516.59" width="16.447" height="127.61" fill="#ff0001" stroke-linejoin="round" stroke-width="1.5031"/><g fill="#0000ff"><circle transform="matrix(0,-1,-1,0,0,0)" cx="101.33" cy="-515.74" r="21.268" stroke-linejoin="round"/><rect transform="matrix(0,-1,-1,0,0,0)" x="93.107" y="-516.59" width="16.447" height="127.61" stroke-linejoin="round" stroke-width="1.5031"/><path d="m659.91-61.794a25.002 25.002 0 0 1-25 25h-119.06a25.002 25.002 0 0 1-25-25v-27.515a27.06 27.06 0 0 0 24.242 15.038 27.06 27.06 0 0 0 27.06-27.06 27.06 27.06 0 0 0-27.06-27.06 27.06 27.06 0 0 0-24.242 15.038v-27.515a25.002 25.002 0 0 1 25-25h119.06a25.002 25.002 0 0 1 25 25z" color="#000000" color-rendering="auto" dominant-baseline="auto" image-rendering="auto" shape-rendering="auto" solid-color="#000000" stop-color="#000000" style="font-feature-settings:normal;font-variant-alternates:normal;font-variant-caps:normal;font-variant-east-asian:normal;font-variant-ligatures:normal;font-variant-numeric:normal;font-variant-position:normal;font-variation-settings:normal;inline-size:0;isolation:auto;mix-blend-mode:normal;shape-margin:0;shape-padding:0;text-decoration-color:#000000;text-decoration-line:none;text-decoration-style:solid;text-indent:0;text-orientation:mixed;text-transform:none;white-space:normal"/></g><g transform="matrix(0 -1 -1 0 707.01 280.13)" stroke-linejoin="round"><path d="m251.34 295.72a25.005 25.005 0 0 0-6.4864-0.86286l-79.082-0.0727a25.005 25.005 0 0 0-25.026 24.98l-0.10938 119.07a25.005 25.005 0 0 0 18.493 24.163z" fill="#ff0000" stroke-width="1.6576"/><g fill="#0000ff"><path d="m256.86 297.94a25.005 25.005 0 0 0-5.5242-2.2245l-92.21 167.28a25.005 25.005 0 0 0 6.4864 0.86286l27.518 0.0252a27.062 27.062 0 0 1-15.017-24.258 27.062 27.062 0 0 1 27.087-27.038 27.062 27.062 0 0 1 27.038 27.087 27.062 27.062 0 0 1-15.062 24.231l27.518 0.0253a25.005 25.005 0 0 0 25.026-24.98l0.10939-119.07a25.005 25.005 0 0 0-12.969-21.938z" stroke-width="1.6576"/><path d="m256.86 297.94a25.005 25.005 0 0 0-12.011-3.0874l-70.205-0.0645a68.194 68.194 0 0 0 30.586 84.568 68.194 68.194 0 0 0 64.543 0.69693l0.0553-60.175a25.005 25.005 0 0 0-12.969-21.938z" stroke-width="1.623"/></g><path d="m205.17 379.32a68.194 68.194 0 0 0-64.478-0.66098l-0.0553 60.175a25.005 25.005 0 0 0 24.98 25.026l27.518 0.0252a27.062 27.062 0 0 1-15.017-24.258 27.062 27.062 0 0 1 27.087-27.038 27.062 27.062 0 0 1 27.038 27.087 27.062 27.062 0 0 1-15.062 24.231l18.64 0.0171a68.194 68.194 0 0 0-30.586-84.568 68.194 68.194 0 0 0-0.0652-0.036z" fill="#ff0000" stroke-width="1.623"/><circle cx="205.13" cy="439.2" r="21.268" fill="#ff0001"/></g><g transform="matrix(-.28126 -.95963 -.95963 .28126 466.54 337.89)" stroke-linejoin="round"><rect x="305.2" y="114.2" width="16.447" height="45.828" fill="#ff0001" stroke-width=".90077"/><rect x="305.2" y="183.1" width="16.447" height="45.828" fill="#0000ff" stroke-width=".90077"/><rect x="305.2" y="142.51" width="16.447" height="55.944" fill="url(#e)" stroke-width=".99524"/></g><rect transform="matrix(0,-1,-1,0,0,0)" x="-83.118" y="-494.74" width="16.447" height="45.828" fill="#ff0001" stroke-linejoin="round" stroke-width=".90077"/><g transform="matrix(0 -1 -1 0 927.62 280.13)" stroke-linejoin="round"><path d="m251.34 295.72a25.005 25.005 0 0 0-6.4864-0.86286l-79.082-0.0727a25.005 25.005 0 0 0-25.026 24.98l-0.10938 119.07a25.005 25.005 0 0 0 18.493 24.163z" fill="#ff0000" stroke-width="1.6576"/><g fill="#0000ff"><path d="m256.86 297.94a25.005 25.005 0 0 0-5.5242-2.2245l-92.21 167.28a25.005 25.005 0 0 0 6.4864 0.86286l27.518 0.0252a27.062 27.062 0 0 1-15.017-24.258 27.062 27.062 0 0 1 27.087-27.038 27.062 27.062 0 0 1 27.038 27.087 27.062 27.062 0 0 1-15.062 24.231l27.518 0.0253a25.005 25.005 0 0 0 25.026-24.98l0.10939-119.07a25.005 25.005 0 0 0-12.969-21.938z" stroke-width="1.6576"/><path d="m256.86 297.94a25.005 25.005 0 0 0-12.011-3.0874l-70.205-0.0645a68.194 68.194 0 0 0 30.586 84.568 68.194 68.194 0 0 0 64.543 0.69693l0.0553-60.175a25.005 25.005 0 0 0-12.969-21.938z" stroke-width="1.623"/></g><path d="m205.17 379.32a68.194 68.194 0 0 0-64.478-0.66098l-0.0553 60.175a25.005 25.005 0 0 0 24.98 25.026l27.518 0.0252a27.062 27.062 0 0 1-15.017-24.258 27.062 27.062 0 0 1 27.087-27.038 27.062 27.062 0 0 1 27.038 27.087 27.062 27.062 0 0 1-15.062 24.231l18.64 0.0171a68.194 68.194 0 0 0-30.586-84.568 68.194 68.194 0 0 0-0.0652-0.036z" fill="#ff0000" stroke-width="1.623"/><circle cx="205.13" cy="439.2" r="21.268" fill="#ff0001"/></g><g stroke-linejoin="round"><rect transform="matrix(0,-1,-1,0,0,0)" x="-83.118" y="-466.43" width="16.447" height="55.944" fill="url(#c)" stroke-width=".99524"/><rect transform="matrix(-.82584 -.5639 -.5639 .82584 0 0)" x="-575.78" y="-128.13" width="16.447" height="219.87" fill="#ff0000" stroke-width="1.973"/><rect transform="matrix(-.7738 .63343 .63343 .7738 0 0)" x="-277.65" y="477.31" width="16.447" height="219.87" fill="#ff0000" stroke-width="1.973"/></g><g transform="matrix(0 -1 -1 0 707.01 432.9)" stroke-linejoin="round"><path d="m251.34 295.72a25.005 25.005 0 0 0-6.4864-0.86286l-79.082-0.0727a25.005 25.005 0 0 0-25.026 24.98l-0.10938 119.07a25.005 25.005 0 0 0 18.493 24.163z" fill="#ff0000" stroke-width="1.6576"/><g fill="#0000ff"><path d="m256.86 297.94a25.005 25.005 0 0 0-5.5242-2.2245l-92.21 167.28a25.005 25.005 0 0 0 6.4864 0.86286l27.518 0.0252a27.062 27.062 0 0 1-15.017-24.258 27.062 27.062 0 0 1 27.087-27.038 27.062 27.062 0 0 1 27.038 27.087 27.062 27.062 0 0 1-15.062 24.231l27.518 0.0253a25.005 25.005 0 0 0 25.026-24.98l0.10939-119.07a25.005 25.005 0 0 0-12.969-21.938z" stroke-width="1.6576"/><path d="m256.86 297.94a25.005 25.005 0 0 0-12.011-3.0874l-70.205-0.0645a68.194 68.194 0 0 0 30.586 84.568 68.194 68.194 0 0 0 64.543 0.69693l0.0553-60.175a25.005 25.005 0 0 0-12.969-21.938z" stroke-width="1.623"/></g><path d="m205.17 379.32a68.194 68.194 0 0 0-64.478-0.66098l-0.0553 60.175a25.005 25.005 0 0 0 24.98 25.026l27.518 0.0252a27.062 27.062 0 0 1-15.017-24.258 27.062 27.062 0 0 1 27.087-27.038 27.062 27.062 0 0 1 27.038 27.087 27.062 27.062 0 0 1-15.062 24.231l18.64 0.0171a68.194 68.194 0 0 0-30.586-84.568 68.194 68.194 0 0 0-0.0652-0.036z" fill="#ff0000" stroke-width="1.623"/><circle cx="205.13" cy="439.2" r="21.268" fill="#ff0001"/></g><rect transform="matrix(0,-1,-1,0,0,0)" x="-235.89" y="-494.74" width="16.447" height="45.828" fill="#ff0001" stroke-linejoin="round" stroke-width=".90077"/><g transform="matrix(0 -1 -1 0 927.62 432.9)" stroke-linejoin="round"><path d="m251.34 295.72a25.005 25.005 0 0 0-6.4864-0.86286l-79.082-0.0727a25.005 25.005 0 0 0-25.026 24.98l-0.10938 119.07a25.005 25.005 0 0 0 18.493 24.163z" fill="#ff0000" stroke-width="1.6576"/><g fill="#0000ff"><path d="m256.86 297.94a25.005 25.005 0 0 0-5.5242-2.2245l-92.21 167.28a25.005 25.005 0 0 0 6.4864 0.86286l27.518 0.0252a27.062 27.062 0 0 1-15.017-24.258 27.062 27.062 0 0 1 27.087-27.038 27.062 27.062 0 0 1 27.038 27.087 27.062 27.062 0 0 1-15.062 24.231l27.518 0.0253a25.005 25.005 0 0 0 25.026-24.98l0.10939-119.07a25.005 25.005 0 0 0-12.969-21.938z" stroke-width="1.6576"/><path d="m256.86 297.94a25.005 25.005 0 0 0-12.011-3.0874l-70.205-0.0645a68.194 68.194 0 0 0 30.586 84.568 68.194 68.194 0 0 0 64.543 0.69693l0.0553-60.175a25.005 25.005 0 0 0-12.969-21.938z" stroke-width="1.623"/></g><path d="m205.17 379.32a68.194 68.194 0 0 0-64.478-0.66098l-0.0553 60.175a25.005 25.005 0 0 0 24.98 25.026l27.518 0.0252a27.062 27.062 0 0 1-15.017-24.258 27.062 27.062 0 0 1 27.087-27.038 27.062 27.062 0 0 1 27.038 27.087 27.062 27.062 0 0 1-15.062 24.231l18.64 0.0171a68.194 68.194 0 0 0-30.586-84.568 68.194 68.194 0 0 0-0.0652-0.036z" fill="#ff0000" stroke-width="1.623"/><circle cx="205.13" cy="439.2" r="21.268" fill="#ff0001"/></g><rect transform="matrix(0,-1,-1,0,0,0)" x="-235.89" y="-466.43" width="16.447" height="55.944" fill="url(#b)" stroke-linejoin="round" stroke-width=".99524"/></g></svg>
