<?xml version="1.0" encoding="UTF-8"?>
<svg width="288.11mm" height="72.794mm" version="1.1" viewBox="0 0 288.11 72.794" xmlns="http://www.w3.org/2000/svg"><defs><linearGradient id="a" x1="-23.843" x2="57.381" y1="77.139" y2="77.139" gradientTransform="matrix(2.8346 0 0 2.8346 386.48 -42.003)" gradientUnits="userSpaceOnUse"><stop stop-color="#009600" offset="0"/><stop stop-color="#009600" offset=".21939"/><stop stop-color="#0000c8" offset=".89541"/><stop stop-color="#0000c8" offset="1"/></linearGradient></defs><g transform="translate(47.086 -135.98)"><g transform="translate(12.512 49.907)" fill="#0000c8"><g fill-rule="evenodd"><path d="m189.08 86.069-39.426 12.289v5.5686l39.426-12.289z"/><path d="m152.17 101.95h1.6108v56.91h-1.6108z"/><path d="m224.53 101.95h1.6108v56.91h-1.6108z"/><path d="m189.08 86.069 39.433 12.289v5.5686l-39.433-12.289z"/></g><g><path d="m178.2 131.56c0 1.3949-0.55386 2.7316-1.5392 3.7179-0.98672 0.98531-2.3234 1.5395-3.7179 1.5395s-2.7312-0.55421-3.7165-1.5395c-0.98671-0.98637-1.5406-2.323-1.5406-3.7179 0-2.9034 2.3537-5.2571 5.2571-5.2571 2.9037 0 5.2571 2.3537 5.2571 5.2571z"/><path d="m184.29 130.06h21.001c3.0787 0 4.8934 1.99 4.8934 4.6383v7.6098h-25.895z"/><path d="m178.58 132.78v4.5572h-8.0807c-3.8986 0.0138-3.8986 5.0285 0 5.0285h10.594c1.5462 0 2.515-1.2499 2.515-2.661v-6.9247c0-3.791-5.0285-3.791-5.0285 0z"/><path d="m166.69 125.68c0-4.1409-5.7407-4.1409-5.7407 0v33.181h5.8758v-8.5633h44.65v8.5094h5.7408v-25.638c0-4.3699-5.8085-4.3699-5.8085 0v10.232h-44.717z"/></g></g><g fill="#009600"><path d="m-38.611 205.66h90.982c4.6796 0 8.4748-3.7952 8.4748-8.4762v-18.335c0-4.6796-3.7952-8.4748-8.4748-8.4748h-72.648c-14.828 0-26.81 12.023-26.81 26.81 0 4.681 3.7952 8.4762 8.4748 8.4762zm71.32-30.962c0-1.0516 0.85161-1.9032 1.9032-1.9032h19.602c1.0516 0 1.9032 0.85161 1.9032 1.9032v6.3415c0 1.0516-0.85161 1.9032-1.9032 1.9032h-19.602c-1.0502 0-1.9032-0.85161-1.9032-1.9032zm-24.33 0c0-1.0516 0.8516-1.9032 1.9029-1.9032h19.603c1.0513 0 1.9029 0.85161 1.9029 1.9032v6.3415c0 1.0516-0.85161 1.9032-1.9029 1.9032h-19.603c-1.0513 0-1.9029-0.85161-1.9029-1.9032zm-24.331 0c0-1.0516 0.8516-1.9032 1.9029-1.9032h19.603c1.0513 0 1.9029 0.85161 1.9029 1.9032v6.3415c0 1.0516-0.85161 1.9032-1.9029 1.9032h-19.603c-1.0513 0-1.9029-0.85161-1.9029-1.9032zm-24.769 7.7085c5.1139-7.6398 12.644-10.188 12.9-10.188h8.1802c1.21 0 2.1897 0.98143 2.1897 2.1911v6.5154c0 1.21-0.97966 2.1897-2.1897 2.1897h-20.694c-0.36407 0-0.58702-0.4064-0.38594-0.70838z"/><path d="m62.058 207.39h-107.59c-0.9151 0-0.91652 1.3832 0 1.3832h107.59c0.91511 0 0.9137-1.3832 0-1.3832z"/></g><g transform="rotate(29.201 33.462 181.16)"><g transform="matrix(.35278 0 0 .35278 -47.086 86.069)"><path d="m350.57 224.72 166.9-96.129" fill="#c80000" stroke="#0000c8" stroke-width="10.772"/></g><path d="m135.47 131.43-1.8948 7.0432 13.068-13.478-18.215 4.5395z" fill="#0000c8" fill-rule="evenodd"/><g transform="matrix(.35278 0 0 .35278 -47.086 86.069)"><path d="m350.57 224.72 166.9-96.129" fill="#c80000" stroke="#009600" stroke-width="10.772"/></g><path d="m76.588 165.35 1.8948-7.0432-13.068 13.477 18.215-4.5392z" fill="#009600" fill-rule="evenodd"/><g transform="matrix(.35278 0 0 .35278 -47.086 86.069)"><path d="m350.57 224.72 166.9-96.129" fill="#c80000" stroke="url(#a)" stroke-width="10.772"/></g></g></g></svg>
