<svg version="1.1" xmlns="http://www.w3.org/2000/svg" viewBox="0 0 344.73750617423696 363.65765914095783" width="344.73750617423696" height="363.65765914095783">
  <!-- svg-source:excalidraw -->
  
  <defs>
    <style class="style-fonts">
      @font-face {
        font-family: "Virgil";
        src: url("https://excalidraw.com/Virgil.woff2");
      }
      @font-face {
        font-family: "Cascadia";
        src: url("https://excalidraw.com/Cascadia.woff2");
      }
      @font-face {
        font-family: "Assistant";
        src: url("https://excalidraw.com/Assistant-Regular.woff2");
      }
    </style>
    
  </defs>
  <g stroke-linecap="round" transform="translate(14.585251857416381 29.667856922348676) rotate(0 158.61352363703722 157.06607462594414)"><path d="M102.81 10.5 C115.68 2.93, 132.23 1.18, 147.69 0.23 C163.15 -0.72, 180.35 1.07, 195.57 4.81 C210.79 8.55, 225.59 14.95, 239.01 22.66 C252.43 30.37, 265.52 39.83, 276.09 51.08 C286.67 62.32, 295.75 76.03, 302.45 90.13 C309.14 104.23, 314.3 120.46, 316.25 135.7 C318.21 150.93, 316.86 166.41, 314.19 181.54 C311.52 196.66, 307.04 212.63, 300.24 226.43 C293.45 240.23, 284.07 253.16, 273.42 264.34 C262.77 275.53, 249.79 285.82, 236.37 293.54 C222.94 301.26, 208.22 307.29, 192.86 310.67 C177.51 314.05, 159.92 315.2, 144.24 313.8 C128.56 312.4, 113.15 307.99, 98.78 302.3 C84.4 296.61, 70.12 289.51, 58.01 279.65 C45.9 269.79, 34.73 256.01, 26.12 243.16 C17.5 230.3, 10.61 217.16, 6.31 202.52 C2 187.89, 0.2 170.84, 0.28 155.37 C0.36 139.89, 1.95 124.37, 6.8 109.67 C11.65 94.97, 20.33 79.81, 29.36 67.17 C38.38 54.53, 45.46 44.17, 60.94 33.82 C76.41 23.47, 108.3 9.95, 122.21 5.07 C136.11 0.2, 143.72 2.09, 144.36 4.56 M190.8 2.57 C205.45 3.01, 219.36 11.93, 232.79 19.54 C246.23 27.16, 260.43 37.52, 271.4 48.25 C282.38 58.97, 291.49 70.57, 298.62 83.88 C305.76 97.18, 311.46 112.59, 314.22 128.09 C316.98 143.59, 316.81 161.22, 315.17 176.87 C313.53 192.52, 310.76 208.14, 304.41 221.97 C298.05 235.81, 287.62 248.5, 277.04 259.87 C266.45 271.23, 253.81 281.88, 240.89 290.15 C227.97 298.42, 214.4 305.7, 199.5 309.48 C184.6 313.25, 167.5 313.53, 151.49 312.83 C135.47 312.13, 118.15 310.41, 103.39 305.28 C88.64 300.16, 75.04 291.44, 62.97 282.09 C50.91 272.75, 39.9 261.86, 31.01 249.21 C22.12 236.56, 14.76 220.97, 9.63 206.18 C4.51 191.39, 0.86 175.47, 0.28 160.47 C-0.3 145.47, 2.14 130.71, 6.14 116.2 C10.15 101.68, 15.75 86.47, 24.3 73.36 C32.85 60.25, 45.3 47.58, 57.45 37.55 C69.59 27.51, 83.09 19.21, 97.18 13.17 C111.26 7.12, 126.56 3.14, 141.95 1.26 C157.35 -0.62, 181.7 1.21, 189.55 1.88 C197.39 2.55, 189.72 2.61, 189.03 5.27" stroke="#1e1e1e" stroke-width="2" fill="none"></path></g><g transform="translate(33.94290482413726 65.20872318412921) rotate(0 10.71875 22.5)"><text x="0" y="31.536" font-family="Virgil, Segoe UI Emoji" font-size="36px" fill="#2f9e44" text-anchor="start" style="white-space: pre;" direction="ltr" dominant-baseline="alphabetic">◌</text></g><g transform="translate(141.5331659429089 10) rotate(0 10.71875 22.5)"><text x="0" y="31.536" font-family="Virgil, Segoe UI Emoji" font-size="36px" fill="#2f9e44" text-anchor="start" style="white-space: pre;" direction="ltr" dominant-baseline="alphabetic">◌</text></g><g transform="translate(246.759698697236 34.75918417748875) rotate(0 10.71875 22.5)"><text x="0" y="31.536" font-family="Virgil, Segoe UI Emoji" font-size="36px" fill="#2f9e44" text-anchor="start" style="white-space: pre;" direction="ltr" dominant-baseline="alphabetic">◌</text></g><g transform="translate(313.30000617423696 130.70102286525758) rotate(0 10.71875 22.5)"><text x="0" y="31.536" font-family="Virgil, Segoe UI Emoji" font-size="36px" fill="#2f9e44" text-anchor="start" style="white-space: pre;" direction="ltr" dominant-baseline="alphabetic">◌</text></g><g transform="translate(296.2780670522135 234.38010660849164) rotate(0 10.71875 22.5)"><text x="0" y="31.536" font-family="Virgil, Segoe UI Emoji" font-size="36px" fill="#2f9e44" text-anchor="start" style="white-space: pre;" direction="ltr" dominant-baseline="alphabetic">◌</text></g><g transform="translate(214.26326946428208 294.7306180411204) rotate(0 10.71875 22.5)"><text x="0" y="31.536" font-family="Virgil, Segoe UI Emoji" font-size="36px" fill="#2f9e44" text-anchor="start" style="white-space: pre;" direction="ltr" dominant-baseline="alphabetic">◌</text></g><g transform="translate(105.94183868776884 308.65765914095783) rotate(0 10.71875 22.5)"><text x="0" y="31.536" font-family="Virgil, Segoe UI Emoji" font-size="36px" fill="#2f9e44" text-anchor="start" style="white-space: pre;" direction="ltr" dominant-baseline="alphabetic">◌</text></g><g transform="translate(10 228.1903105641195) rotate(0 10.71875 22.5)"><text x="0" y="31.536" font-family="Virgil, Segoe UI Emoji" font-size="36px" fill="#2f9e44" text-anchor="start" style="white-space: pre;" direction="ltr" dominant-baseline="alphabetic">◌</text></g><g stroke-linecap="round"><g transform="translate(52.38831427895212 89.28112329951222) rotate(0 29.069388133116547 2.689796044372187)"><path d="M0.95 -0.29 C10.65 0.48, 47.59 3.56, 57.14 4.69 M-0.01 -1.48 C10.15 -0.58, 49.74 4.83, 59.32 5.87" stroke="#2f9e44" stroke-width="2" fill="none"></path></g></g><mask></mask><g stroke-linecap="round"><g transform="translate(144.54902966720874 41.52193912202347) rotate(0 -16.237245055465223 22.700765605383936)"><path d="M1.07 -0.83 C-4.23 6.59, -26.02 37.18, -31.68 44.89 M0.17 1.35 C-5.23 8.9, -26.53 38.59, -32.21 46.16" stroke="#2f9e44" stroke-width="2" fill="none"></path></g></g><mask></mask><g stroke-linecap="round"><g transform="translate(252.70260352137325 67.8285723106053) rotate(0 -5.32117351663959 25.795663627570022)"><path d="M0.09 -0.23 C-1.94 8.39, -10.01 42.08, -11.61 50.63 M-1.32 -1.4 C-3.04 7.43, -8.01 42.74, -9.4 51.66" stroke="#2f9e44" stroke-width="2" fill="none"></path></g></g><mask></mask><g stroke-linecap="round"><g transform="translate(242.06025648809418 119.41989956574531) rotate(0 34.48545967194218 15.021939122023497)"><path d="M1.04 -0.19 C12.53 4.79, 58.49 25.57, 69.97 30.62 M0.12 -1.33 C11.45 3.23, 57.96 23.33, 69.54 28.8" stroke="#2f9e44" stroke-width="2" fill="none"></path></g></g><mask></mask><g stroke-linecap="round"><g transform="translate(292.46178769886194 246.47857539772372) rotate(0 -29.843112638663058 -10.142347033279123)"><path d="M1.17 -0.84 C-8.94 -4.3, -50.06 -17.72, -60.2 -20.83 M0.32 1.33 C-10.03 -1.96, -51.28 -15.79, -61.42 -19.58" stroke="#2f9e44" stroke-width="2" fill="none"></path></g></g><mask></mask><g stroke-linecap="round"><g transform="translate(218.8485213216984 223.09898330897937) rotate(0 1.952550988906978 41.77015373850048)"><path d="M-0.89 -0.47 C-0.24 13.47, 2.56 69.61, 3.26 83.64 M0.84 -1.77 C1.94 12.39, 5.4 70.75, 5.63 85.24" stroke="#2f9e44" stroke-width="2" fill="none"></path></g></g><mask></mask><g stroke-linecap="round"><g transform="translate(115.81178461174352 314.73418880816644) rotate(0 -5.737245055465223 -34.98545967194221)"><path d="M-1.09 -0.87 C-2.91 -12.82, -9.01 -59.49, -10.92 -70.99 M0.53 1.29 C-1.39 -10.61, -9.78 -58.35, -11.58 -69.98" stroke="#2f9e44" stroke-width="2" fill="none"></path></g></g><mask></mask><g stroke-linecap="round"><g transform="translate(30.62913010146343 245.1209224310029) rotate(0 32.2117351663957 -4.04744901109305)"><path d="M0.98 -0.58 C11.7 -1.79, 52.83 -5.7, 63.29 -7.12 M0.03 1.74 C11.19 0.18, 54.98 -7.06, 65.41 -8.73" stroke="#2f9e44" stroke-width="2" fill="none"></path></g></g><mask></mask><g stroke-linecap="round"><g transform="translate(104.33729450081307 93.11326637716354) rotate(0 10.058418572104785 29.40153121076787)"><path d="M-0.05 -0.97 C3.24 8.75, 16.3 49.45, 19.54 59.39 M-1.54 1.13 C2.17 11.02, 18.04 47.77, 21.94 57.58" stroke="#2f9e44" stroke-width="2" fill="none"></path></g></g><mask></mask><g stroke-linecap="round"><g transform="translate(122.90668263392956 156.5586758319784) rotate(0 -11.605867583197835 34.04387824404702)"><path d="M-0.53 0.49 C-4.72 11.86, -20.43 56.08, -24.37 67.17 M1.39 -0.29 C-2.51 11.28, -18.4 56.88, -22.26 68.23" stroke="#2f9e44" stroke-width="2" fill="none"></path></g></g><mask></mask><g stroke-linecap="round"><g transform="translate(212.6587252773263 216.90918726460723) rotate(0 -6.963520549918712 -27.08035769412831)"><path d="M0.14 -0.33 C-2.06 -9.52, -11.64 -45.24, -14.11 -54.31 M-1.24 -1.55 C-3.54 -10.62, -13.33 -44.16, -15.16 -52.85" stroke="#2f9e44" stroke-width="2" fill="none"></path></g></g><mask></mask><g stroke-linecap="round"><g transform="translate(235.87046044372198 117.87245055465229) rotate(0 -19.343112638663058 21.664286155302648)"><path d="M-0.84 -0.48 C-7.22 6.75, -31.71 37.2, -37.84 44.38 M0.92 -1.78 C-5.58 5.05, -31.88 35.26, -38.34 42.8" stroke="#2f9e44" stroke-width="2" fill="none"></path></g></g><mask></mask><g transform="translate(79.75375000000008 195.85341980314087) rotate(0 19.71875 41.392128279883394)"><text x="0" y="58.01520699708453" font-family="Virgil, Segoe UI Emoji" font-size="66.2274052478134px" fill="#2f9e44" text-anchor="start" style="white-space: pre;" direction="ltr" dominant-baseline="alphabetic">◌</text></g><g transform="translate(80.75375000000008 83.19452767486104) rotate(0 34.21875 71.82944606413992)"><text x="0" y="100.67615160349851" font-family="Virgil, Segoe UI Emoji" font-size="114.92711370262386px" fill="#2f9e44" text-anchor="start" style="white-space: pre;" direction="ltr" dominant-baseline="alphabetic">◌</text></g><g stroke-linecap="round"><g transform="translate(127.47250000000008 155.35341980314092) rotate(0 11 12.5)"><path d="M0.28 1.04 C3.92 5.38, 17.26 20.85, 20.93 25.01 M-1.03 0.54 C3.04 5.18, 19.3 22.61, 23.07 26.55" stroke="#2f9e44" stroke-width="2" fill="none"></path></g></g><mask></mask><g stroke-linecap="round"><g transform="translate(177.47250000000008 162.35341980314092) rotate(0 -11 8)"><path d="M-0.43 -0.09 C-3.78 2.55, -17.37 13.8, -20.96 16.29 M1.54 -1.19 C-1.8 1.04, -17.31 11.53, -21.37 14.32" stroke="#2f9e44" stroke-width="2" fill="none"></path></g></g><mask></mask><g transform="translate(115.75375000000008 128.85341980314087) rotate(0 37.23819444444439 78.16763848396499)"><text x="0" y="109.55976209912518" font-family="Virgil, Segoe UI Emoji" font-size="125.06822157434381px" fill="#2f9e44" text-anchor="start" style="white-space: pre;" direction="ltr" dominant-baseline="alphabetic">◌</text></g><g transform="translate(87.75375000000008 49.96129152325756) rotate(0 19.71875 41.39212827988338)"><text x="0" y="58.01520699708453" font-family="Virgil, Segoe UI Emoji" font-size="66.2274052478134px" fill="#2f9e44" text-anchor="start" style="white-space: pre;" direction="ltr" dominant-baseline="alphabetic">◌</text></g><g transform="translate(221.75375000000008 77.96129152325756) rotate(0 19.71875 41.392128279883394)"><text x="0" y="58.01520699708453" font-family="Virgil, Segoe UI Emoji" font-size="66.2274052478134px" fill="#2f9e44" text-anchor="start" style="white-space: pre;" direction="ltr" dominant-baseline="alphabetic">◌</text></g><g transform="translate(199.75375000000008 173.96129152325744) rotate(0 19.71875 41.392128279883394)"><text x="0" y="58.01520699708453" font-family="Virgil, Segoe UI Emoji" font-size="66.2274052478134px" fill="#2f9e44" text-anchor="start" style="white-space: pre;" direction="ltr" dominant-baseline="alphabetic">◌</text></g><g transform="translate(169.25375000000008 84.52397373900101) rotate(0 34.21875 71.82944606413992)"><text x="0" y="100.67615160349851" font-family="Virgil, Segoe UI Emoji" font-size="114.92711370262386px" fill="#2f9e44" text-anchor="start" style="white-space: pre;" direction="ltr" dominant-baseline="alphabetic">◌</text></g></svg>